# 3ds Max Wavefront OBJ Exporter v0.97b - (c)2007 guruware
# File Created: 24.07.2017 13:43:22

#
# object SM_PavingStone_2
#

v  12.2648 -17.8038 11.0834
v  15.8557 17.8029 11.0152
v  -27.7927 17.7927 11.0834
v  -27.7927 -17.7927 11.0834
v  12.0429 -20.0000 0.0000
v  12.0429 -20.0000 8.8761
v  -30.0000 -20.0000 8.8761
v  -30.0000 -20.0000 0.0000
v  30.0000 -20.0000 0.0000
v  30.0000 20.0000 0.0000
v  30.0000 20.0000 8.8761
v  30.0000 -20.0000 8.8761
v  15.8598 20.0000 0.0000
v  15.8598 20.0000 8.8761
v  -30.0000 20.0000 0.0000
v  -30.0000 20.0000 8.8761
v  27.7927 -17.7927 11.0834
v  27.7927 17.7927 11.0834
v  19.4670 -17.8026 11.0834
v  19.6767 -20.0000 8.8761
v  19.6767 -20.0000 0.0000
v  15.8598 -18.2438 8.2166
v  15.8598 -18.2438 0.0000
# 23 vertices

vn 0.0009 0.0010 1.0000
vn 0.0016 0.0018 1.0000
vn 0.0007 0.0008 1.0000
vn 0.0000 0.0000 1.0000
vn 0.0000 -1.0000 0.0000
vn 1.0000 0.0000 0.0000
vn 0.0000 1.0000 0.0000
vn -1.0000 0.0000 0.0000
vn -0.0012 0.0015 1.0000
vn -0.0057 0.0000 1.0000
vn -0.0048 0.0003 1.0000
vn -0.0000 0.0019 1.0000
vn 0.6178 -0.0608 0.7840
vn 0.4180 -0.9084 0.0000
vn -0.6164 -0.0610 0.7850
vn -0.4180 -0.9084 0.0000
vn -0.0000 -0.7072 0.7070
vn 0.0000 -0.7071 0.7071
vn -0.0002 -0.7088 0.7054
vn -0.0002 -0.7089 0.7053
vn -0.0017 0.6978 0.7163
vn -0.0015 0.6984 0.7157
vn 0.0009 0.7069 0.7073
vn 0.0009 0.7076 0.7066
vn -0.7071 0.0000 0.7071
vn 0.7071 0.0000 0.7071
vn -0.0004 0.7060 0.7082
vn 0.0000 0.7071 0.7071
vn 0.0002 -0.7083 0.7059
vn 0.0000 -0.7087 0.7055
vn 0.0006 -0.7073 0.7069
vn 0.0008 -0.7067 0.7075
vn 0.4137 -0.6659 0.6209
vn -0.4134 -0.6647 0.6224
# 34 vertex normals

vt 0.4401 0.0581 0.0000
vt 0.4999 0.9419 0.0000
vt 0.0277 0.9448 0.0000
vt 0.0285 0.0552 0.0000
vt 0.4364 0.0000 0.0000
vt 0.4364 0.8008 0.0000
vt 0.0671 0.7939 0.0000
vt 0.0614 -0.0057 0.0000
vt 0.0000 0.0000 0.0000
vt 1.0000 0.0000 0.0000
vt 1.0000 0.8008 0.0000
vt 0.0000 0.8008 0.0000
vt 0.5000 0.0000 0.0000
vt 0.5000 0.8008 0.0000
vt 0.9121 0.0552 0.0000
vt 0.9219 0.9448 0.0000
vt 0.5601 0.0549 0.0000
vt 0.5636 0.8008 0.0000
vt 0.5636 0.0000 0.0000
vt 0.5000 0.0613 0.0000
vt 0.4817 0.9572 0.0000
vt 0.0944 1.0415 0.0000
vt 0.0734 0.8869 0.0000
vt 0.4403 0.9613 0.0000
vt 0.5009 0.8675 0.0000
vt 0.0513 0.8743 0.0000
vt 0.0643 0.9465 0.0000
vt 0.0551 0.8970 0.0000
vt 0.9450 0.8578 0.0000
vt 1.0019 1.0026 0.0000
vt 1.0093 0.0026 0.0000
vt 0.4755 1.0130 0.0000
vt 0.9252 1.0286 0.0000
vt 0.5049 1.0839 0.0000
vt 0.9654 0.9561 0.0000
vt 0.4540 0.9712 0.0000
vt 0.5147 0.9697 0.0000
vt 0.5438 0.9616 0.0000
# 38 texture coords

g SM_PavingStone_2
s 1
f 1/1/1 2/2/2 3/3/3 4/4/4 
s 2
f 5/5/5 6/6/5 7/7/5 8/8/5 
f 9/9/6 10/10/6 11/11/6 12/12/6 
s 4
f 13/13/7 14/14/7 11/12/7 10/9/7 
s 8
f 15/9/8 8/10/8 7/11/8 16/12/8 
s 2
f 17/15/9 18/16/10 2/2/11 19/17/12 
s 4
f 9/10/5 12/11/5 20/18/5 21/19/5 
f 13/13/7 15/10/7 16/11/7 14/14/7 
f 1/1/13 22/20/13 2/2/13 
s 8
f 22/21/14 6/6/14 5/5/14 23/13/14 
s 16
f 22/20/15 19/17/15 2/2/15 
s 2
f 20/18/16 22/21/16 23/13/16 21/19/16 
s 16
f 4/22/17 7/23/18 6/6/19 1/24/20 
s 32
f 2/2/21 14/25/22 16/26/23 3/27/24 
s 64
f 3/28/25 16/12/25 7/11/25 4/29/25 
s 1
f 11/30/26 18/16/26 17/15/26 12/31/26 
s 32
f 14/32/22 2/2/21 18/16/27 11/33/28 
s 8
f 19/34/29 20/18/30 12/11/31 17/35/32 
s 32
f 1/36/33 6/6/33 22/37/33 
s 1
f 22/21/34 20/18/34 19/38/34 
# 16 polygons - 4 triangles

