# 3ds Max Wavefront OBJ Exporter v0.97b - (c)2007 guruware
# File Created: 17.07.2017 15:23:18

#
# object SM_Rock_4
#

v  86.9376 -35.4324 -71.2339
v  66.0098 -72.5928 -182.1516
v  68.6138 66.2435 -180.0763
v  -82.1505 82.4736 -50.8029
v  -45.5453 81.5755 -192.9010
v  -77.8113 -104.7358 -126.3281
v  36.7720 -40.9596 95.0829
v  -49.7328 -31.3214 92.1976
v  -36.3826 -59.7101 54.5740
v  9.6334 -73.1053 44.4082
v  54.1469 113.8928 -2.7339
v  56.2056 141.9045 -84.8919
v  35.9240 151.2412 9.7619
v  -88.2209 59.8682 -23.2877
v  -58.2075 -43.6021 42.4965
v  -71.1598 125.4914 61.0894
v  1.2308 166.4531 129.4158
v  -29.4296 165.5354 22.0365
v  35.0828 81.6818 -195.8262
v  5.6712 -104.2842 -207.8933
v  -2.0078 69.5116 -210.6968
v  -10.5554 -159.3183 -123.6384
v  55.1626 -65.6756 24.2599
v  73.5490 83.5146 102.5065
v  11.5001 42.3430 202.6467
v  30.0771 15.4440 177.4603
v  26.6237 160.1146 133.9914
v  -27.3485 129.9296 197.4415
v  -49.1969 -142.3981 -180.7591
v  -48.0201 30.0974 172.6531
v  -70.9867 113.6682 114.6015
v  -5.7499 121.7371 195.0449
v  -44.0631 135.4327 -137.6593
v  8.2618 119.2245 -178.6660
v  -59.2634 107.9694 -142.3454
v  82.4548 -39.6401 11.7185
v  69.5876 36.2451 119.8578
v  73.6030 118.8037 -97.6268
v  79.2498 90.4035 -131.3002
v  -12.2429 -167.4190 -173.9716
v  -18.5335 119.9832 -181.3868
v  -22.4987 164.8467 -25.7299
v  -22.5711 53.3893 212.0518
v  -56.7008 102.6973 179.1776
v  27.0684 -121.6214 -200.8502
v  -28.7624 -164.5649 -172.5953
v  -34.6005 115.9384 207.9997
v  -24.4548 90.1503 -202.4331
v  73.9966 99.3248 -15.1245
v  72.0968 106.5222 62.0146
v  76.3622 35.8981 96.4167
v  43.1219 153.9446 87.7068
v  -18.8451 -106.2373 -1.8791
v  -81.5749 -77.4635 -94.5445
v  66.3217 119.3805 8.6272
v  48.1763 149.2933 21.0291
v  -64.9555 -64.9709 -0.1188
v  -30.7681 -51.0195 21.6033
v  -0.7404 -58.4852 23.9117
# 59 vertices

vn 0.9898 -0.0012 -0.1425
vn 0.9835 -0.0158 -0.1803
vn 0.9814 -0.0265 -0.1900
vn -0.9751 0.0524 -0.2156
vn -0.9578 0.0399 -0.2846
vn -0.9328 0.0197 -0.3598
vn -0.1100 -0.8187 0.5635
vn -0.1276 -0.8086 0.5743
vn -0.1096 -0.8118 0.5736
vn 0.8280 0.5345 0.1694
vn 0.8498 0.4920 0.1891
vn 0.9073 0.3905 0.1559
vn -0.9670 -0.1803 0.1799
vn -0.9688 -0.1591 0.1901
vn -0.9688 -0.1450 0.2010
vn -0.6018 0.7811 0.1665
vn -0.6000 0.7825 0.1666
vn -0.5986 0.7840 0.1642
vn 0.2039 0.9776 -0.0527
vn 0.2383 0.9709 -0.0237
vn 0.2270 0.9731 -0.0400
vn 0.3970 0.0039 -0.9178
vn 0.3254 0.0099 -0.9455
vn 0.3717 0.0014 -0.9283
vn 0.7707 -0.6341 0.0633
vn 0.7618 -0.6456 0.0529
vn 0.7389 -0.6730 0.0327
vn 0.7914 0.1914 0.5805
vn 0.8112 0.1588 0.5628
vn 0.8280 0.0821 0.5547
vn 0.7840 0.2344 0.5748
vn -0.6940 0.6784 0.2411
vn -0.4191 -0.0423 -0.9069
vn -0.3929 -0.0417 -0.9186
vn -0.4153 -0.0411 -0.9088
vn -0.6724 -0.6602 0.3346
vn -0.6661 -0.6896 0.2840
vn -0.6749 -0.6426 0.3626
vn -0.9710 -0.1587 0.1791
vn -0.9731 -0.1409 0.1822
vn 0.7944 0.2266 0.5636
vn 0.0773 0.9581 -0.2758
vn 0.0800 0.9596 -0.2698
vn 0.0732 0.9559 -0.2845
vn -0.9681 -0.0258 -0.2492
vn 0.7776 -0.4811 0.4048
vn 0.7659 -0.5073 0.3950
vn 0.8305 -0.4151 0.3715
vn 0.5926 0.6510 -0.4744
vn 0.5737 0.6742 -0.4651
vn 0.5741 0.6678 -0.4737
vn 0.9981 0.0385 -0.0471
vn 0.7698 -0.6348 0.0663
vn -0.0976 -0.4494 -0.8880
vn -0.1277 -0.4477 -0.8850
vn -0.1372 -0.4430 -0.8859
vn -0.5950 0.5583 -0.5781
vn -0.6773 0.5358 -0.5042
vn -0.5776 0.5788 -0.5756
vn 0.1408 0.5295 -0.8365
vn 0.1716 0.5083 -0.8439
vn 0.1653 0.5098 -0.8443
vn 0.7233 -0.5717 0.3873
vn 0.3193 -0.8641 0.3891
vn 0.3118 -0.8690 0.3842
vn -0.8368 0.5417 -0.0795
vn -0.8241 0.5617 -0.0735
vn -0.6991 0.7117 -0.0692
vn 0.0788 0.9603 -0.2675
vn -0.7815 -0.1348 0.6092
vn -0.7746 -0.1225 0.6204
vn -0.7886 -0.1479 0.5968
vn -0.1670 -0.7806 0.6023
vn -0.1612 -0.7770 0.6086
vn -0.1551 -0.7680 0.6214
vn 0.7778 -0.6240 0.0744
vn -0.7505 -0.5667 0.3399
vn -0.6403 -0.7222 0.2617
vn -0.6749 -0.6939 0.2510
vn -0.9797 0.1952 0.0463
vn -0.9095 0.4104 -0.0664
vn -0.7650 -0.1060 0.6353
vn -0.6341 0.7504 0.1867
vn -0.8881 -0.0104 -0.4596
vn -0.6197 -0.7429 0.2530
vn 0.1438 0.5243 -0.8393
vn -0.3869 -0.0371 -0.9214
vn 0.7693 -0.6356 0.0645
vn 0.3652 0.0086 -0.9309
vn 0.4272 0.0055 -0.9041
vn 0.6503 0.7401 0.1716
vn 0.8010 0.5665 0.1936
vn 0.5711 0.6820 -0.4569
vn 0.7884 0.1527 0.5959
vn 0.9972 0.0681 0.0294
vn 0.9970 0.0754 0.0188
vn 0.9916 0.0486 0.1197
vn 0.1448 0.8105 0.5676
vn 0.3485 0.7570 0.5528
vn 0.3057 0.7714 0.5581
vn 0.3266 0.1517 0.9329
vn 0.3614 0.1404 0.9218
vn 0.3836 0.1330 0.9139
vn 0.2333 0.9707 -0.0568
vn 0.2192 0.9738 -0.0604
vn 0.1017 0.8171 0.5675
vn -0.1123 -0.8219 0.5584
vn 0.3098 0.1571 0.9377
vn 0.9983 0.0190 0.0549
vn 0.6904 -0.7234 0.0006
vn -0.6250 -0.7258 0.2874
vn 0.3298 -0.8570 0.3960
vn 0.5583 0.6808 -0.4742
vn 0.5411 0.7007 -0.4651
vn -0.3915 -0.0580 -0.9184
vn -0.5194 0.5590 -0.6463
vn -0.0766 -0.4550 -0.8872
vn 0.2757 0.4839 0.8306
vn -0.7400 0.6148 0.2726
vn -0.7417 0.6042 0.2912
vn 0.8001 -0.4626 0.3818
vn 0.0994 0.5604 -0.8223
vn 0.0577 0.9514 -0.3025
vn 0.2488 0.9677 -0.0403
vn 0.8729 0.4554 0.1753
vn 0.8679 0.4280 0.2523
vn 0.8761 0.4259 0.2258
vn -0.7429 0.4892 -0.4570
vn -0.8664 0.4931 -0.0793
vn -0.9722 -0.1335 0.1924
vn -0.9878 0.0378 -0.1513
vn -0.9827 0.0455 -0.1794
vn -0.9668 0.2556 -0.0033
vn -0.1527 -0.4624 -0.8734
vn -0.1549 -0.9746 0.1620
vn 0.3003 0.9534 0.0298
vn -0.7425 0.6595 -0.1173
vn 0.9916 0.0998 0.0821
vn 0.9338 -0.2311 0.2733
vn 0.9971 0.0519 0.0548
vn 0.9606 0.0213 0.2773
vn 0.8807 0.4620 0.1042
vn 0.9038 0.4279 0.0053
vn 0.8600 0.5094 0.0297
vn 0.9292 0.3693 -0.0116
vn 0.5638 0.5596 -0.6075
vn 0.5961 0.5882 -0.5465
vn 0.3981 0.6224 -0.6739
vn 0.3403 0.6506 -0.6789
vn 0.2020 0.7795 -0.5929
vn 0.9959 0.0889 0.0162
vn -0.9697 -0.1403 0.2000
vn -0.9064 -0.3677 0.2082
vn -0.3528 -0.4297 0.8312
vn -0.2030 -0.4388 0.8754
vn -0.2655 -0.4253 0.8652
vn -0.1124 -0.4389 0.8915
vn -0.0641 -0.4553 0.8880
vn -0.1039 -0.8338 -0.5422
vn -0.2093 -0.8431 -0.4954
vn -0.2300 -0.8710 -0.4341
vn -0.2690 -0.8979 -0.3486
vn -0.2109 -0.9358 -0.2826
vn 0.4554 -0.8769 -0.1536
vn -0.9827 -0.0470 0.1792
vn -0.6776 -0.6088 0.4126
vn -0.6319 -0.7185 0.2907
# 167 vertex normals

vt 0.3020 0.7899 0.0000
vt 0.2377 0.9457 0.0000
vt 0.4780 0.9428 0.0000
vt 0.1399 0.2416 0.0000
vt 0.1412 0.0406 0.0000
vt 0.4116 0.1347 0.0000
vt 0.7672 0.1862 0.0000
vt 0.6275 0.1813 0.0000
vt 0.6490 0.1183 0.0000
vt 0.7234 0.1012 0.0000
vt 0.5604 0.6936 0.0000
vt 0.6089 0.8091 0.0000
vt 0.6251 0.6761 0.0000
vt 0.3051 0.4439 0.0000
vt 0.1727 0.2805 0.0000
vt 0.3229 0.3736 0.0000
vt 0.0775 0.3999 0.0000
vt 0.0181 0.4965 0.0000
vt 0.0194 0.3446 0.0000
vt 0.8056 0.7895 0.0000
vt 0.8349 0.6477 0.0000
vt 0.7112 0.8079 0.0000
vt 0.9622 0.8923 0.0000
vt 0.9211 0.5782 0.0000
vt 0.9104 0.8717 0.0000
vt 0.0876 0.8635 0.0000
vt 0.2497 0.6557 0.0000
vt 0.5079 0.5458 0.0000
vt 0.4366 0.4051 0.0000
vt 0.3901 0.4405 0.0000
vt 0.6404 0.5016 0.0000
vt 0.0711 0.5927 0.0000
vt 0.4662 0.0577 0.0000
vt 0.4109 0.0194 0.0000
vt 0.3463 0.3906 0.0000
vt 0.2159 0.5577 0.0000
vt 0.0947 0.4756 0.0000
vt 0.5740 0.4158 0.0000
vt 0.6901 0.5686 0.0000
vt 0.7657 0.5071 0.0000
vt 0.1029 0.1121 0.0000
vt 0.2924 0.5562 0.0000
vt 0.2947 0.6733 0.0000
vt 0.4261 0.5214 0.0000
vt 0.5696 0.9408 0.0000
vt 0.5689 0.8269 0.0000
vt 0.5047 0.9649 0.0000
vt 0.5198 0.8742 0.0000
vt 0.8961 0.4715 0.0000
vt 0.8444 0.5138 0.0000
vt 0.0631 0.1187 0.0000
vt 0.0855 0.0569 0.0000
vt 0.9247 0.9557 0.0000
vt 0.2368 0.6274 0.0000
vt 0.0204 0.2770 0.0000
vt 0.7212 0.7363 0.0000
vt 0.1821 0.6134 0.0000
vt 0.1106 0.5669 0.0000
vt 0.6302 0.3162 0.0000
vt 0.7564 0.3243 0.0000
vt 0.7264 0.3665 0.0000
vt 0.1529 0.9719 0.0000
vt 0.0736 0.9342 0.0000
vt 0.4984 0.0693 0.0000
vt 0.4908 0.1385 0.0000
vt 0.0914 0.6077 0.0000
vt 0.8790 0.9066 0.0000
vt 0.1587 0.0154 0.0000
vt 0.5352 0.7110 0.0000
vt 0.5477 0.6027 0.0000
vt 0.4254 0.5544 0.0000
vt 0.9024 0.2513 0.0000
vt 0.8596 0.1852 0.0000
vt 0.8919 0.1703 0.0000
vt 0.8667 0.0466 0.0000
vt 0.8487 0.1598 0.0000
vt 0.7555 0.9688 0.0000
vt 0.8160 0.9063 0.0000
vt 0.9404 0.2398 0.0000
vt 0.6713 0.3822 0.0000
vt 0.9177 0.0266 0.0000
vt 0.4138 0.3108 0.0000
vt 0.1795 0.6924 0.0000
vt 0.1288 0.0271 0.0000
vt 0.9510 0.5489 0.0000
vt 0.7184 0.4715 0.0000
vt 0.7270 0.5031 0.0000
vt 0.7922 0.9757 0.0000
vt 0.6297 0.5666 0.0000
vt 0.3720 0.1797 0.0000
vt 0.8730 0.4763 0.0000
vt 0.8984 0.4852 0.0000
vt 0.5699 0.6777 0.0000
vt 0.6217 0.6603 0.0000
vt 0.8233 0.8064 0.0000
vt 0.3539 0.3133 0.0000
vt 0.6029 0.0266 0.0000
vt 0.6774 0.0236 0.0000
vt 0.6581 0.0630 0.0000
vt 0.7066 0.0669 0.0000
vt 0.2621 0.6562 0.0000
vt 0.7563 0.4259 0.0000
vt 0.6754 0.4100 0.0000
vt 0.6570 0.4414 0.0000
# 104 texture coords

g SM_Rock_4
s 1024
f 1/1/1 2/2/2 3/3/3 
s 33554432
f 4/4/4 5/5/5 6/6/6 
s 2
f 7/7/7 8/8/8 9/9/9 10/10/9 
f 11/11/10 12/12/11 13/13/12 
s 4
f 8/14/13 14/15/14 15/16/15 
s 16777216
f 16/17/16 17/18/17 18/19/18 
s 4
f 13/20/19 12/21/20 18/22/21 
s 2
f 19/23/22 20/24/23 21/25/24 
s 512
f 22/26/25 1/1/26 23/27/27 
s 8
f 24/28/28 25/29/29 26/30/30 
f 27/31/31 25/29/29 24/28/28 
s 16777216
f 17/18/17 16/17/16 28/32/32 
s 4
f 29/33/33 5/5/34 20/34/35 
s 2097152
f 9/35/36 8/14/37 15/16/38 
s 4
f 14/15/14 30/36/39 31/37/40 
s 8
f 27/31/31 32/38/41 25/29/29 
f 33/39/42 12/21/43 34/40/44 
s 33554432
f 5/5/5 4/4/4 35/41/45 
s 2048
f 7/42/46 36/43/47 37/44/48 
s 16
f 34/45/49 38/46/50 19/47/51 
s 1024
f 39/48/52 1/1/1 3/3/3 
s 512
f 1/1/26 22/26/25 2/2/53 
s 16
f 20/24/54 40/49/55 29/50/56 
s 2
f 5/5/57 33/51/58 41/52/59 
s 1
f 34/53/60 19/23/61 21/25/62 
s 2048
f 36/43/47 7/42/46 23/27/63 
s 4
f 23/27/64 7/42/65 10/54/65 
s 1
f 33/51/66 16/17/67 42/55/68 
s 8
f 42/56/69 12/21/43 33/39/42 
f 43/57/70 44/58/71 30/36/72 
s 2
f 30/59/73 26/60/74 25/61/75 
s 1
f 45/62/76 22/26/76 40/63/76 
s 8
f 46/64/77 22/65/78 29/33/79 
s 268435456
f 16/17/80 14/15/80 31/37/80 
s 1
f 16/17/67 33/51/66 4/4/81 
s 8
f 44/58/71 43/57/70 47/66/82 
s 16777216
f 28/32/32 16/17/16 31/37/83 
s 33554432
f 5/5/5 29/33/84 6/6/6 
s 8
f 22/65/78 6/6/85 29/33/79 
s 1
f 34/53/60 21/25/62 48/67/86 
s 4
f 20/34/35 5/5/34 21/68/87 
s 512
f 22/26/25 45/62/88 2/2/53 
s 2
f 45/62/89 19/47/22 2/2/90 
f 11/11/10 49/69/91 38/46/92 12/12/11 
s 16
f 34/45/49 12/12/93 38/46/50 
s 8
f 24/28/28 26/30/30 37/44/94 
s 1
f 1/1/95 50/70/96 51/71/97 
s 2
f 17/72/98 28/73/99 32/74/100 
s 4
f 43/75/101 32/74/102 47/76/103 
f 18/22/21 17/77/104 52/78/105 
s 2
f 32/74/100 27/79/106 17/72/98 
f 30/59/73 25/61/75 43/80/107 
s 4
f 32/74/102 43/75/101 25/81/108 
s 1
f 36/43/109 1/1/95 51/71/97 
s 512
f 23/27/27 1/1/26 36/43/110 
s 2
f 8/8/8 26/60/74 30/59/73 
s 4
f 14/15/14 8/14/13 30/36/39 
s 8
f 6/6/85 22/65/78 53/82/111 
s 4
f 22/26/112 23/27/64 53/83/112 
s 16
f 19/47/51 39/48/113 3/3/114 
s 2
f 2/2/90 19/47/22 3/3/90 
s 4
f 21/68/87 5/5/34 48/84/115 
s 2
f 5/5/57 41/52/59 48/84/116 
s 16
f 40/49/55 20/24/54 45/85/117 
s 2
f 19/23/22 45/85/89 20/24/23 
s 16
f 32/74/118 28/73/118 47/76/118 
s 16777216
f 28/32/32 44/58/119 47/66/120 
s 2048
f 7/42/46 37/44/48 26/30/121 
s 2
f 8/8/8 7/7/7 26/60/74 
s 1
f 34/40/60 48/86/86 41/87/122 
s 8
f 33/39/42 34/40/44 41/87/123 
s 4
f 52/78/105 17/77/104 27/88/124 
s 256
f 52/89/125 27/31/126 24/28/127 
s 2
f 33/51/58 5/5/57 35/41/128 
s 1
f 35/41/129 4/4/81 33/51/66 
s 16777216
f 44/58/119 28/32/32 31/37/83 
s 4
f 31/37/40 30/36/39 44/58/130 
s 33554432
f 4/4/4 54/90/131 14/15/132 
s 1
f 4/4/81 14/15/133 16/17/67 
s 16
f 46/91/134 29/50/56 40/49/55 
s 2
f 22/92/135 46/91/135 40/49/135 
s 4
f 18/22/21 12/21/20 42/56/136 
s 1
f 42/55/68 16/17/67 18/19/137 
s 1024
f 38/46/138 1/1/1 39/48/52 
s 16
f 19/47/51 38/46/50 39/48/113 
s 2048
f 36/43/47 51/71/139 37/44/48 
s 1
f 51/71/97 24/28/140 37/44/141 
f 51/71/97 50/70/96 24/28/140 
s 256
f 52/89/125 24/28/127 50/70/142 
s 33554432
f 54/90/131 4/4/4 6/6/6 
s 4
f 18/22/21 52/78/105 13/20/19 
s 256
f 50/70/142 55/93/143 56/94/144 52/89/125 
f 49/69/145 55/93/143 50/70/142 
s 8
f 13/13/146 56/94/147 55/93/148 11/11/149 
f 11/11/149 55/93/148 49/69/150 
s 4
f 52/78/105 56/95/19 13/20/19 
s 1
f 50/70/96 1/1/95 49/69/151 
f 49/69/151 1/1/95 38/46/151 
s 4
f 14/15/14 54/90/152 15/16/15 
s 524288
f 54/90/153 6/6/153 57/96/153 
s 131072
f 57/97/154 53/98/155 58/99/156 
f 58/99/156 53/98/155 59/100/157 
f 59/101/157 53/83/155 23/27/158 
s 4096
f 23/102/159 10/103/160 59/104/161 
f 9/9/162 58/99/163 59/100/161 10/10/160 
s 32768
f 58/99/164 9/9/164 57/97/164 
s 4
f 57/96/165 15/16/15 54/90/152 
s 2097152
f 9/35/36 15/16/38 57/96/166 
s 8
f 57/96/167 6/6/85 53/82/111 
# 5 polygons - 104 triangles

