# 3ds Max Wavefront OBJ Exporter v0.97b - (c)2007 guruware
# File Created: 13.07.2017 23:40:05

#
# object SM_Rock_7
#

v  98.0627 -115.4090 52.7829
v  97.4526 -109.8364 4.2147
v  103.0646 -125.1093 -10.3186
v  99.0650 -132.3443 48.7621
v  -4.8930 113.7321 63.8547
v  -16.4345 100.9405 65.6612
v  -44.9352 77.7945 97.7704
v  97.8804 20.3689 -98.9298
v  109.4235 23.8978 -116.5996
v  104.4282 -13.2460 -134.1769
v  93.1014 -14.7072 -112.9993
v  26.2023 127.9854 52.8871
v  24.6990 111.7780 49.1380
v  -319.0361 -51.4036 -18.4343
v  -111.4845 -103.9387 -78.9333
v  -244.2693 -95.4441 23.7801
v  17.5400 -21.1426 -123.8455
v  1.7263 61.0340 -64.5846
v  19.8392 71.8105 -81.2190
v  92.0422 -128.4207 82.6298
v  265.0264 -56.8173 57.8556
v  175.4652 1.2944 132.8931
v  254.1743 104.6260 44.2990
v  175.3609 90.3607 106.4809
v  337.9056 -4.3958 68.8258
v  -124.2320 46.1841 -121.3704
v  -46.1202 -26.8548 -114.6318
v  -154.7357 109.1580 -10.2770
v  -249.6146 47.1856 65.9024
v  -66.7700 80.0377 106.4670
v  -63.6322 90.4543 90.2902
v  -29.4020 -21.2490 117.1429
v  -55.0718 -24.0737 87.4765
v  -57.3001 -123.2962 72.0580
v  -335.2875 -23.9588 0.3599
v  -223.1557 -42.5695 102.2471
v  96.2512 -104.2892 -53.5289
v  102.7285 -118.5322 -67.9667
v  363.9296 23.2802 -12.9032
v  -262.1631 58.4741 -62.7574
v  -329.3707 14.6216 -5.1980
v  3.2099 111.3943 -57.2841
v  -28.3678 15.7491 129.5929
v  -53.9462 17.5630 101.4860
v  -68.2686 67.1041 114.8341
v  108.0431 -55.1588 -112.5758
v  96.3893 -50.5064 -93.6935
v  362.7766 -35.5657 -7.5880
v  102.3906 123.3021 -26.4314
v  96.3718 104.0481 -29.7479
v  231.8160 100.4903 -56.9151
v  305.7014 -37.5196 84.7900
v  -223.0824 37.8765 -99.1015
v  329.7789 -51.5631 -50.7066
v  222.3287 -120.7599 40.4097
v  222.7189 -110.5917 -48.5490
v  300.8943 9.2276 -88.7470
v  -163.2099 -124.8354 23.2259
v  103.6036 -101.6798 -87.6899
v  95.0948 -98.4938 -69.6762
v  106.0724 115.2679 -70.2381
v  96.5453 104.2891 -54.1201
v  -268.7500 -53.5375 -60.1167
v  -75.4173 19.0856 128.8312
v  -34.7692 81.4000 110.5769
v  -52.6567 109.7299 49.8377
v  -21.5447 -88.2356 -84.9699
v  -143.2350 -38.4942 -90.8514
v  -126.1290 -28.4136 -64.5156
v  -5.3652 63.5279 -80.1399
v  99.2334 80.9903 -68.1483
v  111.1532 82.4698 -89.7005
v  -54.6918 79.3111 93.6604
v  -54.0309 63.9464 96.8492
v  -78.2956 -26.6292 113.3839
# 75 vertices

vn -0.9897 -0.0542 -0.1322
vn -0.9443 -0.3281 -0.0261
vn -0.9544 -0.2966 -0.0334
vn -0.9915 -0.0285 -0.1271
vn -0.7417 0.6415 -0.1959
vn -0.8346 0.2817 -0.4734
vn -0.8257 0.2960 -0.4803
vn -0.8409 0.3049 -0.4470
vn -0.8519 0.2908 -0.4356
vn -0.4170 0.2439 -0.8756
vn -0.4158 0.2414 -0.8768
vn -0.4206 0.2512 -0.8718
vn -0.4255 0.2615 -0.8664
vn -0.3237 -0.8808 -0.3455
vn -0.3230 -0.8814 -0.3446
vn -0.3233 -0.8811 -0.3451
vn -0.7357 0.2973 -0.6085
vn -0.7272 0.2168 -0.6513
vn -0.7266 0.2131 -0.6531
vn 0.3189 -0.4896 0.8116
vn 0.3170 -0.4835 0.8159
vn 0.3273 -0.5170 0.7910
vn 0.4688 0.5206 0.7136
vn -0.1206 -0.2183 -0.9684
vn 0.0345 -0.4397 -0.8975
vn -0.1125 -0.2828 -0.9526
vn -0.2491 0.8806 0.4032
vn -0.2481 0.8794 0.4063
vn -0.2968 0.8498 0.4356
vn -0.3049 0.8478 0.4339
vn -0.7388 -0.1596 0.6547
vn -0.7433 -0.1325 0.6557
vn -0.7494 -0.0852 0.6566
vn -0.6145 -0.6244 0.4822
vn -0.6032 -0.5934 0.5329
vn -0.5982 -0.5807 0.5523
vn -0.9153 -0.3925 -0.0898
vn -0.9505 -0.2717 -0.1508
vn 0.6714 0.6103 0.4204
vn -0.4701 0.8747 0.1175
vn -0.4697 0.8743 0.1223
vn -0.4697 0.8743 0.1225
vn -0.1731 0.8114 -0.5583
vn -0.1599 0.8531 -0.4966
vn -0.1567 0.8397 -0.5199
vn -0.7311 -0.1991 0.6525
vn -0.7313 -0.1994 0.6522
vn -0.2792 0.3043 0.9108
vn -0.2808 0.2916 0.9144
vn -0.2823 0.4348 0.8551
vn -0.2737 0.5446 0.7928
vn -0.8311 -0.3171 -0.4569
vn -0.8546 -0.2562 -0.4518
vn -0.8477 -0.2564 -0.4644
vn -0.8242 -0.3255 -0.4633
vn 0.9519 0.0090 0.3062
vn -0.7066 0.2341 -0.6678
vn -0.6724 0.3248 -0.6651
vn -0.6764 0.3151 -0.6657
vn -0.7111 0.2204 -0.6677
vn 0.5360 0.8303 -0.1523
vn 0.3671 0.1583 0.9166
vn 0.3634 0.2414 0.8998
vn 0.3681 0.0882 0.9256
vn 0.7395 -0.5039 0.4463
vn -0.6668 0.0244 -0.7448
vn -0.6568 0.0388 -0.7530
vn -0.6621 0.0004 -0.7494
vn -0.6394 0.2048 0.7411
vn -0.6734 0.1198 0.7295
vn -0.6559 0.1655 0.7365
vn 0.4956 -0.8655 -0.0728
vn 0.4853 -0.8699 -0.0883
vn 0.4790 -0.8724 -0.0976
vn 0.2455 -0.4491 -0.8591
vn 0.2372 -0.4445 -0.8638
vn 0.2241 -0.4382 -0.8705
vn -0.9794 -0.0100 -0.2019
vn -0.2625 -0.7611 0.5932
vn -0.2677 -0.7618 0.5900
vn -0.2657 -0.7615 0.5912
vn -0.9052 -0.1300 -0.4046
vn -0.8922 -0.1539 -0.4247
vn -0.0211 -0.4511 -0.8922
vn 0.7715 -0.0311 -0.6355
vn 0.7865 -0.0478 -0.6158
vn 0.7836 -0.0445 -0.6197
vn 0.5479 0.6132 -0.5690
vn 0.3618 0.2654 0.8937
vn -0.7096 0.1215 -0.6940
vn -0.8741 0.4796 -0.0765
vn -0.7545 0.6563 0.0011
vn -0.9149 0.3878 -0.1117
vn -0.9385 0.3170 -0.1370
vn 0.3008 -0.4328 0.8498
vn 0.5462 -0.5396 0.6407
vn -0.4694 0.8739 0.1263
vn -0.6833 0.0919 0.7244
vn -0.1901 -0.2990 -0.9351
vn -0.1923 -0.2898 -0.9375
vn -0.1847 -0.3060 -0.9339
vn -0.1598 0.8210 -0.5481
vn -0.6636 0.0352 -0.7473
vn -0.3236 -0.8809 -0.3453
vn 0.8044 -0.0691 -0.5900
vn 0.5016 -0.8628 -0.0637
vn -0.2913 0.3074 0.9059
vn -0.7406 0.1285 0.6596
vn -0.7732 0.1444 0.6175
vn -0.7945 0.1551 0.5871
vn -0.2226 0.9022 0.3695
vn 0.0031 1.0000 -0.0058
vn 0.0437 0.9985 0.0343
vn -0.0113 0.9999 0.0096
vn -0.2065 0.7392 -0.6410
vn -0.6671 0.0464 -0.7436
vn -0.8953 -0.3861 -0.2222
vn -0.6874 -0.6979 -0.2012
vn 0.0440 -0.5199 -0.8531
vn -0.6249 -0.6579 0.4204
vn -0.6269 0.1520 -0.7641
vn -0.0519 -0.3473 0.9363
vn -0.0476 -0.3651 0.9298
vn -0.0778 -0.3163 0.9455
vn -0.0428 -0.9913 0.1241
vn -0.2724 -0.7624 0.5870
vn -0.3222 -0.8821 -0.3436
vn -0.0172 -0.8003 0.5993
vn 0.3222 -0.9295 0.1794
vn -0.1987 -0.2681 -0.9427
vn -0.1963 -0.2814 -0.9393
vn 0.8428 -0.3396 -0.4175
vn 0.7609 0.2610 -0.5941
vn -0.5308 0.0585 -0.8455
vn -0.4402 -0.5372 -0.7195
vn 0.8564 0.4001 -0.3263
vn 0.9114 0.0326 -0.4103
vn -0.8701 0.1864 -0.4563
vn -0.8928 0.1523 -0.4240
vn -0.8833 0.1491 -0.4445
vn -0.8590 0.2117 -0.4662
vn 0.2198 0.4938 -0.8414
vn 0.2309 0.4579 -0.8585
vn 0.2392 0.4300 -0.8706
vn 0.2533 0.3795 -0.8898
vn 0.0768 -0.9196 -0.3854
vn 0.0572 -0.9794 -0.1936
vn 0.0537 -0.9634 -0.2626
vn 0.0454 -0.9865 -0.1572
vn 0.0147 -0.9941 -0.1073
vn 0.0100 -0.9953 -0.0958
vn -0.0228 -0.9224 -0.3855
vn 0.0818 -0.7296 -0.6790
vn 0.0763 -0.7428 -0.6651
vn -0.0389 -0.9414 -0.3351
vn 0.1685 -0.4487 -0.8777
vn 0.1174 -0.4880 -0.8649
vn 0.1644 -0.4565 -0.8744
vn 0.1027 0.3582 -0.9280
vn 0.0774 0.3986 -0.9138
vn 0.0867 0.4093 -0.9083
vn 0.0777 0.4849 -0.8711
vn 0.0815 0.4916 -0.8670
vn 0.0741 0.5348 -0.8417
vn 0.0685 0.5204 -0.8512
vn 0.0756 0.9971 0.0104
vn 0.0573 0.9983 0.0039
vn -0.0274 0.9921 -0.1221
vn -0.0180 0.8560 0.5167
vn -0.0397 0.8322 0.5531
vn -0.0323 0.8445 0.5346
vn -0.0740 0.8356 0.5444
vn -0.5495 0.8090 0.2085
vn 0.0821 0.9124 0.4009
vn 0.1085 0.9301 0.3509
vn -0.0477 0.7502 0.6594
vn -0.0399 0.7954 0.6047
vn 0.1034 0.9938 0.0406
vn 0.1385 0.9897 -0.0359
vn 0.1226 0.9913 -0.0475
vn 0.1519 0.9842 -0.0915
vn 0.1326 0.9768 -0.1680
vn 0.1503 0.5216 -0.8398
vn 0.1628 0.4355 -0.8853
vn 0.1688 0.4578 -0.8729
vn 0.1863 0.4012 -0.8968
vn 0.1567 0.4289 -0.8897
vn 0.1725 0.4139 -0.8938
vn 0.2633 -0.4367 -0.8602
vn 0.2670 -0.4388 -0.8580
vn 0.2423 -0.4755 -0.8457
vn 0.1532 -0.7546 -0.6380
vn 0.0840 -0.9900 -0.1130
vn 0.0870 -0.9929 -0.0814
vn 0.0844 -0.9899 -0.1141
vn 0.0839 -0.9900 -0.1134
vn 0.0953 -0.9951 0.0257
vn 0.1018 -0.9856 0.1353
vn 0.7705 0.1386 0.6221
vn 0.7870 0.0624 0.6138
vn 0.7867 0.0628 0.6142
vn 0.7478 -0.2405 0.6189
vn 0.7392 -0.2011 0.6428
vn 0.7458 -0.1790 0.6417
vn 0.7601 -0.2256 0.6094
vn 0.7451 -0.1187 0.6563
vn -0.0314 -0.3645 0.9307
vn -0.0379 -0.3178 0.9474
vn -0.0304 -0.3719 0.9278
vn -0.0325 -0.3567 0.9336
vn -0.0267 -0.3979 0.9171
vn 0.7878 0.1497 0.5974
vn 0.7581 0.2370 0.6076
vn 0.7217 0.1703 0.6710
vn 0.5850 0.6255 0.5162
vn 0.5975 0.6296 0.4966
vn 0.6042 0.6317 0.4857
vn 0.6142 0.6346 0.4690
vn -0.2439 0.0960 0.9650
vn -0.3276 0.1532 0.9323
vn -0.2685 0.1127 0.9567
vn -0.3590 0.1748 0.9168
vn -0.0911 0.8444 0.5278
vn -0.7299 0.1235 0.6722
vn 0.0049 0.2802 0.9599
vn 0.0042 0.2786 0.9604
vn 0.0061 0.2831 0.9591
vn 0.0066 0.2843 0.9587
vn -0.0245 0.8293 0.5582
# 229 vertex normals

vt 0.2464 0.4728 0.0000
vt 0.2896 0.4735 0.0000
vt 0.2853 0.4598 0.0000
vt 0.2460 0.4598 0.0000
vt 0.6871 0.3937 0.0000
vt 0.6834 0.3852 0.0000
vt 0.7341 0.2576 0.0000
vt 0.5095 0.4630 0.0000
vt 0.5172 0.4444 0.0000
vt 0.4796 0.4535 0.0000
vt 0.4795 0.4690 0.0000
vt 0.6721 0.4332 0.0000
vt 0.6686 0.4140 0.0000
vt 0.3004 0.9826 0.0000
vt 0.3653 0.7187 0.0000
vt 0.2551 0.8875 0.0000
vt 0.4788 0.5374 0.0000
vt 0.5692 0.5459 0.0000
vt 0.5738 0.5265 0.0000
vt 0.9911 0.4561 0.0000
vt 0.9038 0.6518 0.0000
vt 0.8569 0.5518 0.0000
vt 0.7103 0.6439 0.0000
vt 0.7598 0.5602 0.0000
vt 0.8554 0.6672 0.0000
vt 0.5671 0.7125 0.0000
vt 0.4773 0.6215 0.0000
vt 0.6040 0.1549 0.0000
vt 0.7642 0.1118 0.0000
vt 0.7366 0.2455 0.0000
vt 0.7133 0.2412 0.0000
vt 0.8652 0.3357 0.0000
vt 0.8663 0.3086 0.0000
vt 0.9845 0.3030 0.0000
vt 0.8404 0.0114 0.0000
vt 0.9337 0.1028 0.0000
vt 0.8731 0.1313 0.0000
vt 0.3436 0.4749 0.0000
vt 0.3422 0.4602 0.0000
vt 0.8174 0.7647 0.0000
vt 0.1456 0.2019 0.0000
vt 0.0839 0.1164 0.0000
vt 0.0868 0.3389 0.0000
vt 0.5960 0.8845 0.0000
vt 0.6944 0.7467 0.0000
vt 0.6251 0.5391 0.0000
vt 0.8218 0.3436 0.0000
vt 0.8174 0.3175 0.0000
vt 0.7530 0.2558 0.0000
vt 0.4363 0.4531 0.0000
vt 0.4422 0.4646 0.0000
vt 0.9135 0.7354 0.0000
vt 0.0289 0.5624 0.0000
vt 0.1137 0.6478 0.0000
vt 0.1181 0.6374 0.0000
vt 0.0282 0.5380 0.0000
vt 0.0356 0.8306 0.0000
vt 0.0920 0.9590 0.0000
vt 0.1355 0.8044 0.0000
vt 0.9106 0.6782 0.0000
vt 0.5688 0.8374 0.0000
vt 0.5122 0.9843 0.0000
vt 0.5545 0.9731 0.0000
vt 0.7952 0.0218 0.0000
vt 0.3317 0.1931 0.0000
vt 0.2418 0.3188 0.0000
vt 0.3296 0.3184 0.0000
vt 0.3671 0.3156 0.0000
vt 0.4819 0.2146 0.0000
vt 0.4167 0.1866 0.0000
vt 0.2001 0.4712 0.0000
vt 0.9763 0.1878 0.0000
vt 0.3870 0.4572 0.0000
vt 0.3889 0.4708 0.0000
vt 0.3986 0.7111 0.0000
vt 0.4899 0.1405 0.0000
vt 0.5823 0.2862 0.0000
vt 0.1486 0.6472 0.0000
vt 0.1496 0.6343 0.0000
vt 0.9941 0.5870 0.0000
vt 0.4720 0.9036 0.0000
vt 0.4799 0.9666 0.0000
vt 0.4298 0.1471 0.0000
vt 0.2891 0.1545 0.0000
vt 0.8137 0.2956 0.0000
vt 0.7423 0.2655 0.0000
vt 0.6492 0.3068 0.0000
vt 0.0248 0.4015 0.0000
vt 0.1569 0.5464 0.0000
vt 0.3783 0.4557 0.0000
vt 0.3794 0.4703 0.0000
vt 0.4056 0.5896 0.0000
vt 0.8744 0.0262 0.0000
vt 0.2557 0.7845 0.0000
vt 0.2033 0.6498 0.0000
vt 0.1980 0.2213 0.0000
vt 0.1505 0.3736 0.0000
vt 0.2506 0.2527 0.0000
vt 0.4750 0.7446 0.0000
vt 0.4843 0.7221 0.0000
vt 0.5728 0.5545 0.0000
vt 0.5765 0.4495 0.0000
vt 0.6106 0.4530 0.0000
vt 0.6084 0.4403 0.0000
vt 0.5770 0.4372 0.0000
vt 0.7350 0.2534 0.0000
vt 0.7533 0.2667 0.0000
vt 0.8672 0.2841 0.0000
# 108 texture coords

g SM_Rock_7
s 1
f 1/1/1 2/2/2 3/3/3 4/4/4 
f 5/5/5 6/6/5 7/7/5 
f 8/8/6 9/9/7 10/10/8 11/11/9 
s 2
f 12/12/10 13/13/11 6/6/12 5/5/13 
s 1
f 14/14/14 15/15/15 16/16/16 
f 17/17/17 18/18/18 19/19/19 
s 2
f 20/20/20 21/21/21 22/22/22 
s 1
f 23/23/23 24/24/23 25/25/23 
s 2
f 26/26/24 17/17/25 27/27/26 
s 1
f 28/28/27 29/29/28 30/30/29 31/31/30 
f 32/32/31 33/33/32 34/34/33 
s 2
f 35/35/34 16/36/35 36/37/36 
s 1
f 2/2/2 37/38/37 38/39/38 3/3/3 
s 2
f 25/25/39 39/40/39 23/23/39 
f 40/41/40 41/42/41 28/43/42 
s 4
f 40/44/43 28/45/44 42/46/45 
s 1
f 32/32/31 43/47/46 44/48/47 33/33/32 
s 4
f 29/29/48 36/37/49 45/49/50 30/30/51 
f 10/10/52 46/50/53 47/51/54 11/11/55 
f 48/52/56 39/40/56 25/25/56 
s 1
f 12/53/57 49/54/58 50/55/59 13/56/60 
s 8
f 23/57/61 39/58/61 51/59/61 
f 25/25/62 22/22/63 52/60/64 
s 16
f 52/60/65 48/52/65 25/25/65 
s 8
f 53/61/66 35/62/67 41/63/68 
s 16
f 35/35/69 36/37/70 41/64/71 
s 1
f 54/65/72 55/66/73 56/67/74 
s 2
f 56/68/75 57/69/76 54/70/77 
s 1
f 20/71/78 1/1/1 4/4/4 
s 8
f 34/34/79 36/37/80 58/72/81 
s 4
f 46/50/53 59/73/82 60/74/83 47/51/54 
s 2
f 15/75/84 27/27/26 17/17/25 
s 32
f 57/69/85 39/76/86 54/70/87 
s 1
f 39/76/88 57/69/88 51/77/88 
s 8
f 22/22/63 25/25/62 24/24/89 
s 1
f 19/19/19 18/18/18 42/46/90 
s 2
f 61/78/91 62/79/92 50/55/93 49/54/94 
f 21/21/21 20/20/20 55/80/95 
s 8
f 55/80/96 48/52/96 21/21/96 
s 2
f 41/64/41 29/29/97 28/28/42 
s 16
f 41/64/71 36/37/70 29/29/98 
f 26/26/99 63/81/100 53/61/101 
s 4
f 26/26/102 40/44/43 42/46/45 
s 8
f 63/81/103 35/62/67 53/61/66 
s 1
f 15/75/15 14/82/14 63/81/104 
s 32
f 39/76/86 48/83/105 54/70/87 
s 1
f 55/66/73 54/65/72 48/84/106 
s 4
f 36/37/49 64/85/107 45/49/50 
s 2
f 44/48/108 65/86/109 7/7/110 
s 1
f 28/28/27 31/31/30 66/87/111 
s 8
f 66/88/112 42/89/113 28/43/114 
s 4
f 40/44/43 26/26/102 53/61/115 
s 8
f 41/63/68 40/44/116 53/61/66 
s 1
f 59/73/117 38/90/38 37/91/37 60/74/118 
s 2
f 15/75/84 17/17/25 67/92/119 
f 16/36/35 35/35/34 14/93/120 
s 8
f 35/62/67 63/81/103 14/82/121 
s 4
f 22/22/122 34/34/123 20/20/124 
s 16
f 58/94/125 20/71/125 34/95/125 
s 8
f 58/72/81 36/37/80 16/36/126 
s 1
f 16/16/16 15/15/15 58/94/127 
f 52/96/128 22/97/128 21/98/128 
s 64
f 48/84/129 52/96/129 21/98/129 
s 16
f 15/75/130 63/81/100 68/99/131 
f 68/99/131 63/81/100 26/26/99 
s 1
f 26/26/132 69/100/132 68/99/132 
s 4
f 68/99/133 69/100/133 15/75/133 
s 8
f 15/75/134 69/100/134 27/27/134 
s 32
f 27/27/135 69/100/135 26/26/135 
s 4
f 17/17/136 70/101/136 18/18/136 
s 2
f 18/18/137 70/101/137 42/46/137 
s 1
f 71/102/138 62/103/139 61/104/140 72/105/141 
f 8/8/6 71/102/138 72/105/141 9/9/7 
s 64
f 17/17/142 26/26/143 70/101/144 
f 70/101/144 26/26/143 42/46/145 
s 32
f 20/71/146 58/94/147 1/1/148 
f 15/15/149 2/2/150 1/1/148 58/94/147 
f 2/2/150 15/15/149 37/38/151 
s 64
f 37/91/152 15/75/153 67/92/154 60/74/155 
s 2
f 17/17/25 47/51/156 60/74/157 67/92/119 
f 47/51/156 17/17/25 11/11/158 
s 16
f 11/11/159 17/17/160 8/8/161 
f 8/8/161 17/17/160 19/19/162 71/102/163 
f 71/102/163 19/19/162 42/46/164 62/103/165 
s 8
f 62/79/166 42/89/113 50/55/167 
f 66/88/112 13/56/168 50/55/167 42/89/113 
s 4
f 13/13/169 66/87/170 6/6/171 
f 6/6/171 66/87/170 73/106/172 
s 8
f 7/7/173 65/86/173 5/5/173 
s 4
f 24/24/174 23/23/175 12/12/176 5/5/177 
s 16
f 12/53/178 23/57/179 49/54/180 
f 49/54/180 23/57/179 51/59/181 61/78/182 
s 64
f 61/104/183 51/77/184 72/105/185 
f 72/105/185 51/77/184 9/9/186 
f 51/77/184 57/69/187 10/10/188 9/9/186 
s 2
f 10/10/189 57/69/76 56/68/75 46/50/190 
f 46/50/190 56/68/75 59/73/191 
s 8
f 59/73/192 56/68/192 38/90/192 
s 64
f 56/67/193 55/66/194 3/3/195 38/39/196 
f 3/3/195 55/66/194 4/4/197 
f 4/4/197 55/66/194 20/71/198 
s 8
f 74/107/199 64/85/200 44/48/201 
s 32
f 64/85/202 75/108/203 33/33/204 44/48/205 
f 33/33/204 75/108/203 34/34/206 
s 4
f 34/34/123 22/22/122 32/32/207 
f 32/32/207 22/22/122 43/47/208 
s 64
f 64/85/208 36/37/209 75/108/210 
f 75/108/210 36/37/209 34/34/211 
s 8
f 64/85/200 74/107/199 45/49/212 
f 30/30/213 45/49/212 74/107/199 73/106/214 
s 2
f 30/30/215 73/106/216 31/31/217 
f 31/31/217 73/106/216 66/87/218 
s 16
f 44/48/219 7/7/220 74/107/221 
f 74/107/221 7/7/220 73/106/222 
s 4
f 73/106/172 7/7/223 6/6/171 
s 2
f 44/48/108 43/47/224 65/86/109 
s 16
f 65/86/225 43/47/226 22/22/227 
f 65/86/225 22/22/227 24/24/228 
s 4
f 65/86/229 24/24/174 5/5/177 
# 27 polygons - 92 triangles

