# 3ds Max Wavefront OBJ Exporter v0.97b - (c)2007 guruware
# File Created: 17.07.2017 15:12:24

#
# object SM_Rock_2
#

v  91.2903 1.4408 -54.6857
v  72.9155 -54.6841 -141.1885
v  75.5305 53.6701 -139.5688
v  -91.2788 48.1410 -18.7260
v  -69.7820 -68.0344 -79.8487
v  -76.6336 -11.9122 -1.6178
v  -16.4248 -83.0809 -2.5905
v  57.0746 -52.8108 19.5078
v  38.0466 -32.9363 76.4576
v  74.5957 85.6562 49.8669
v  42.1370 114.0956 -34.6028
v  44.6165 123.7892 70.5264
v  1.2735 133.8475 104.0653
v  -30.4497 133.1096 17.7199
v  36.2988 65.6816 -157.4669
v  5.8677 -83.8566 -167.1703
v  -5.9798 49.5908 -170.5142
v  -52.5411 -38.6184 7.5192
v  11.5629 33.2464 162.1927
v  71.9995 29.1452 96.3795
v  -6.7187 94.2863 159.8430
v  -58.6920 65.4481 -139.6355
v  -69.5281 95.7822 98.5496
v  76.1542 95.5319 -78.5032
v  80.2141 -30.6342 8.1464
v  -45.9752 -103.1290 -151.6272
v  -77.4349 -81.8735 -102.6620
v  -62.1670 -47.9163 6.5646
v  -86.0259 67.5232 -32.1758
v  -61.3175 86.8199 -114.4622
v  -12.5873 95.0643 -148.9131
v  -33.2420 107.8706 150.4113
v  32.9995 126.3307 102.4449
v  73.3301 73.6113 81.9122
v  -10.5519 -131.6064 -145.5691
v  -50.9021 -114.5045 -145.3513
v  28.0066 -97.7976 -161.5069
v  -7.1695 -125.3306 -91.7053
v  81.9967 72.6948 -105.5806
v  62.1181 110.2370 -74.3046
v  8.5481 95.8703 -143.6682
v  7.2794 29.0046 162.2259
v  -24.8129 36.9227 167.8668
v  -45.5904 108.9036 -110.6940
v  -47.1239 65.5962 -155.1148
v  -29.7594 -132.3293 -138.7866
v  -47.0792 -120.6289 -141.6423
v  -62.1365 82.0956 137.2307
v  -73.4471 91.4024 92.1529
v  -73.6263 100.9096 49.1229
v  -73.6150 -76.3431 -105.8108
v  -23.5939 119.1597 0.8838
v  74.0030 -21.6342 -3.2083
v  81.7265 41.4439 63.1685
v  89.9510 -28.4918 -57.2803
v  -35.7998 93.2279 167.2558
v  -46.9535 28.1245 145.5867
v  -54.3720 -30.5796 62.3297
v  -25.3025 72.4913 -162.7796
v  27.6072 130.1147 99.7306
v  -30.3404 99.8645 163.8935
v  27.2106 127.9483 106.9859
v  37.9185 11.8614 137.4228
v  74.9731 -26.7968 -8.2806
v  84.7172 26.8883 70.2211
# 65 vertices

vn 0.9935 0.0615 -0.0954
vn 0.9808 -0.0222 -0.1939
vn 0.9817 -0.0123 -0.1898
vn -0.9677 -0.1853 0.1710
vn -0.9007 -0.3865 0.1984
vn -0.8883 -0.3758 0.2640
vn 0.2323 -0.8747 0.4255
vn 0.2414 -0.8819 0.4051
vn 0.2472 -0.8862 0.3919
vn 0.7631 0.6417 -0.0772
vn 0.1457 0.9564 0.2531
vn 0.0762 0.9884 -0.1315
vn 0.1976 0.9769 -0.0809
vn 0.3572 0.0032 -0.9340
vn 0.2598 0.0098 -0.9656
vn 0.2941 0.0022 -0.9558
vn -0.8237 -0.4703 0.3167
vn 0.7255 0.2182 0.6527
vn 0.7174 0.1987 0.6677
vn 0.7115 0.2538 0.6552
vn -0.9648 0.0513 -0.2578
vn -0.9634 -0.0387 -0.2652
vn -0.9659 0.0127 -0.2585
vn -0.4896 0.8595 0.1468
vn -0.4772 0.8655 0.1522
vn -0.4954 0.8547 0.1552
vn 0.9846 0.1694 0.0435
vn 0.9834 0.1739 0.0521
vn 0.7323 -0.5357 0.4204
vn 0.7298 -0.5329 0.4283
vn 0.7433 -0.5284 0.4102
vn -0.2704 -0.0481 -0.9615
vn -0.2905 -0.0421 -0.9559
vn -0.3420 -0.0153 -0.9396
vn -0.5339 -0.7786 0.3299
vn -0.5362 -0.7821 0.3175
vn -0.5370 -0.7813 0.3180
vn -0.9640 0.0983 -0.2471
vn -0.9538 0.1725 -0.2459
vn 0.1498 0.4745 -0.8674
vn 0.1268 0.4660 -0.8757
vn 0.1279 0.4407 -0.8885
vn -0.4773 0.8688 0.1315
vn 0.6856 0.3207 0.6535
vn 0.7088 0.2275 0.6677
vn -0.0722 -0.3949 -0.9159
vn -0.1526 -0.4207 -0.8942
vn -0.1835 -0.4689 -0.8640
vn 0.6789 -0.7315 0.0637
vn 0.6914 -0.7188 0.0729
vn 0.6872 -0.7239 0.0608
vn 0.9944 0.0856 -0.0618
vn 0.5260 0.6708 -0.5227
vn 0.4842 0.7065 -0.5162
vn 0.4935 0.6935 -0.5248
vn -0.1109 -0.8165 0.5666
vn -0.0713 -0.8156 0.5742
vn -0.1524 -0.8070 0.5705
vn 0.2192 0.0967 0.9709
vn 0.1820 0.0639 0.9812
vn 0.1534 -0.0076 0.9881
vn -0.5540 0.6056 -0.5713
vn -0.4389 0.6459 -0.6246
vn -0.5330 0.6071 -0.5894
vn 0.1404 0.9636 -0.2276
vn 0.0720 0.9753 -0.2089
vn 0.6689 -0.7420 0.0444
vn -0.5602 -0.7369 0.3783
vn -0.5366 -0.7741 0.3358
vn -0.5423 -0.7582 0.3620
vn -0.9511 -0.2131 0.2235
vn -0.9662 -0.1459 0.2123
vn -0.5972 0.7979 0.0822
vn -0.8042 0.5848 -0.1060
vn -0.8086 0.5777 -0.1120
vn -0.8145 -0.0472 -0.5783
vn -0.8360 -0.0122 -0.5485
vn -0.8667 -0.0115 -0.4987
vn 0.0247 0.9950 -0.0963
vn -0.3560 0.9344 -0.0157
vn 0.9250 0.2471 -0.2885
vn 0.9164 0.3046 -0.2598
vn 0.9717 0.1302 -0.1973
vn 0.6785 -0.7307 0.0754
vn 0.7037 -0.7063 0.0776
vn 0.9833 0.1744 0.0525
vn -0.7070 0.6065 0.3638
vn -0.6803 0.6104 0.4058
vn -0.7074 0.6129 0.3521
vn -0.7106 -0.1165 0.6939
vn -0.7025 -0.1028 0.7043
vn -0.7201 -0.1331 0.6810
vn -0.9427 -0.2274 0.2443
vn -0.9969 -0.0777 0.0136
vn -0.1654 -0.8091 0.5639
vn 0.3219 0.0071 -0.9468
vn 0.4116 0.0020 -0.9113
vn -0.4268 0.6356 -0.6433
vn -0.3518 -0.0037 -0.9361
vn 0.3016 0.9472 0.1088
vn 0.1665 0.7977 0.5797
vn 0.2498 0.8872 0.3880
vn -0.0583 -0.8191 0.5706
vn 0.7341 0.1335 0.6658
vn 0.2397 0.1415 0.9605
vn 0.2789 0.7188 0.6368
vn 0.7258 -0.5370 0.4299
vn 0.5515 -0.7560 -0.3526
vn 0.4160 0.0036 -0.9094
vn 0.5176 0.6806 -0.5185
vn 0.4639 0.7266 -0.5068
vn 0.2273 -0.8706 0.4364
vn 0.6464 0.7395 0.1881
vn 0.5760 0.8108 0.1035
vn 0.7715 0.6055 0.1955
vn -0.6903 -0.0829 0.7187
vn -0.2662 -0.7764 0.5712
vn -0.9592 0.2794 0.0434
vn -0.9677 0.2469 0.0505
vn -0.9721 0.2283 0.0545
vn 0.9276 0.1676 0.3337
vn 0.9218 0.1873 0.3394
vn 0.9499 0.0706 0.3044
vn 0.7587 -0.5044 0.4124
vn 0.0764 -0.9909 0.1107
vn -0.2543 -0.5852 -0.7700
vn 0.1729 0.4430 -0.8797
vn -0.3399 0.0307 -0.9400
vn -0.9567 0.2881 0.0415
vn -0.6583 0.5481 -0.5160
vn -0.8019 0.5886 -0.1028
vn -0.6459 0.6220 0.4426
vn 0.2270 0.2851 0.9312
vn 0.0285 -0.8055 0.5919
vn 0.7468 -0.5351 0.3948
vn 0.7305 0.6092 0.3085
vn -0.0644 0.9885 -0.1366
vn -0.0218 -0.4058 -0.9137
vn -0.9862 0.1287 0.1044
vn -0.6887 0.7160 -0.1140
vn -0.6835 0.7200 -0.1200
vn -0.8275 0.5586 -0.0570
vn -0.8348 0.5480 -0.0524
vn -0.7994 -0.0585 -0.5980
vn -0.6886 0.5158 -0.5097
vn 0.4538 0.7380 -0.4994
vn 0.9755 0.1905 0.1101
vn 0.8157 0.5229 0.2473
vn 0.8191 0.5225 0.2369
vn -0.4470 0.5909 -0.6716
vn -0.7111 0.3712 -0.5971
vn -0.6206 0.4607 -0.6345
vn -0.3151 0.6638 -0.6783
vn 0.8134 0.5232 0.2544
vn 0.2259 0.9710 -0.0788
vn 0.0299 0.8623 0.5056
vn -0.5138 0.6846 0.5171
vn -0.7699 -0.0184 -0.6378
vn -0.1004 -0.4470 -0.8889
vn 0.0160 0.9766 -0.2146
vn 0.1827 0.5427 -0.8198
vn 0.9813 -0.0274 -0.1907
vn 0.9067 0.3697 -0.2029
vn 0.6320 0.4027 0.6621
vn 0.4984 0.8460 0.1894
vn -0.7588 0.0694 -0.6477
vn -0.8523 -0.5229 0.0151
vn -0.8757 -0.4797 -0.0556
vn -0.3037 -0.6251 -0.7191
vn -0.7254 0.1145 -0.6788
vn -0.8353 0.5474 -0.0519
vn 0.8508 0.3602 0.3826
vn 0.9774 0.1149 -0.1774
vn -0.8235 0.5533 0.1257
vn -0.8452 0.5063 0.1712
vn -0.8750 0.4123 0.2537
vn -0.8850 0.3592 0.2962
vn 0.1396 -0.1333 0.9812
vn 0.4193 -0.4171 0.8063
vn 0.9044 -0.3153 0.2874
vn 0.9489 -0.1145 0.2940
vn 0.9362 -0.2034 0.2868
vn 0.9546 -0.1606 0.2509
vn 0.9498 -0.2241 0.2185
vn 0.9362 -0.3027 0.1787
vn -0.6824 0.7196 -0.1283
# 186 vertex normals

vt 0.2714 0.5539 0.0000
vt 0.3836 0.3825 0.0000
vt 0.1671 0.3857 0.0000
vt 0.7172 0.6767 0.0000
vt 0.5038 0.8017 0.0000
vt 0.6069 0.6417 0.0000
vt 0.4745 0.2479 0.0000
vt 0.5232 0.3452 0.0000
vt 0.6047 0.3132 0.0000
vt 0.1032 0.7611 0.0000
vt 0.0463 0.5937 0.0000
vt 0.0270 0.8020 0.0000
vt 0.5592 0.0688 0.0000
vt 0.7870 0.1587 0.0000
vt 0.7079 0.0271 0.0000
vt 0.1683 0.1935 0.0000
vt 0.4182 0.1413 0.0000
vt 0.2208 0.2495 0.0000
vt 0.5578 0.6231 0.0000
vt 0.2079 0.9837 0.0000
vt 0.2161 0.8533 0.0000
vt 0.0859 0.9790 0.0000
vt 0.7490 0.9239 0.0000
vt 0.8047 0.4370 0.0000
vt 0.8746 0.4257 0.0000
vt 0.8733 0.6022 0.0000
vt 0.0834 0.5067 0.0000
vt 0.3401 0.8138 0.0000
vt 0.3355 0.6784 0.0000
vt 0.4747 0.9802 0.0000
vt 0.4393 0.9484 0.0000
vt 0.7199 0.9870 0.0000
vt 0.4784 0.8483 0.0000
vt 0.4762 0.6437 0.0000
vt 0.5408 0.6250 0.0000
vt 0.7528 0.7042 0.0000
vt 0.7883 0.8725 0.0000
vt 0.1432 0.2854 0.0000
vt 0.8269 0.3309 0.0000
vt 0.0219 0.8653 0.0000
vt 0.1272 0.8246 0.0000
vt 0.5093 0.1281 0.0000
vt 0.5146 0.2025 0.0000
vt 0.4697 0.3422 0.0000
vt 0.3798 0.7009 0.0000
vt 0.5247 0.4806 0.0000
vt 0.1291 0.4531 0.0000
vt 0.0080 0.1606 0.0000
vt 0.1275 0.2513 0.0000
vt 0.7467 0.2584 0.0000
vt 0.7518 0.2100 0.0000
vt 0.1222 0.0827 0.0000
vt 0.1642 0.0124 0.0000
vt 0.2004 0.0468 0.0000
vt 0.8288 0.8647 0.0000
vt 0.8034 0.9429 0.0000
vt 0.7493 0.9556 0.0000
vt 0.9353 0.0319 0.0000
vt 0.9933 0.0979 0.0000
vt 0.5373 0.3738 0.0000
vt 0.3857 0.9222 0.0000
vt 0.3986 0.8259 0.0000
vt 0.4072 0.9280 0.0000
vt 0.7796 0.3579 0.0000
vt 0.7967 0.4500 0.0000
vt 0.8141 0.5380 0.0000
vt 0.4184 0.9356 0.0000
vt 0.4885 0.8548 0.0000
vt 0.7438 0.0407 0.0000
vt 0.8477 0.6366 0.0000
vt 0.3175 0.6559 0.0000
vt 0.1915 0.7874 0.0000
vt 0.3312 0.5488 0.0000
vt 0.6966 0.2952 0.0000
vt 0.8000 0.2965 0.0000
vt 0.6804 0.3408 0.0000
vt 0.5726 0.5110 0.0000
vt 0.5808 0.1902 0.0000
vt 0.4234 0.0943 0.0000
vt 0.3201 0.0459 0.0000
vt 0.7619 0.9712 0.0000
vt 0.5631 0.1139 0.0000
vt 0.4431 0.0171 0.0000
vt 0.5504 0.1128 0.0000
vt 0.2506 0.9346 0.0000
vt 0.0970 0.0509 0.0000
vt 0.4439 0.0584 0.0000
vt 0.3279 0.6459 0.0000
vt 0.1532 0.1220 0.0000
vt 0.0261 0.1291 0.0000
vt 0.0855 0.1129 0.0000
vt 0.3430 0.2590 0.0000
vt 0.2206 0.8014 0.0000
vt 0.5387 0.3873 0.0000
vt 0.5292 0.1572 0.0000
vt 0.1920 0.2928 0.0000
vt 0.4293 0.0101 0.0000
vt 0.2164 0.9837 0.0000
vt 0.0541 0.5150 0.0000
vt 0.8479 0.2023 0.0000
vt 0.6101 0.1473 0.0000
vt 0.4694 0.0119 0.0000
vt 0.8122 0.3034 0.0000
vt 0.4916 0.2039 0.0000
vt 0.9791 0.1316 0.0000
vt 0.0187 0.8743 0.0000
vt 0.0143 0.8599 0.0000
vt 0.5232 0.1923 0.0000
vt 0.7588 0.2612 0.0000
# 109 texture coords

g SM_Rock_2
s 1
f 1/1/1 2/2/2 3/3/3 
f 4/4/4 5/5/5 6/6/6 
f 7/7/7 8/8/8 9/9/9 
s 8192
f 10/10/10 11/11/10 12/12/10 
s 1
f 13/13/11 11/14/12 14/15/13 
s 2
f 15/16/14 16/17/15 17/18/16 
s 1
f 6/6/6 5/5/5 18/19/17 
s 4
f 19/20/18 20/21/19 21/22/20 
s 2
f 22/23/21 5/5/22 4/4/23 
s 4
f 23/24/24 13/25/25 14/26/26 
s 1
f 1/1/1 24/27/27 10/10/28 
s 2
f 9/28/29 25/29/30 20/21/31 
s 1
f 16/30/32 26/31/33 17/32/34 
s 4
f 27/33/35 7/34/36 28/35/37 
s 2
f 22/23/21 29/36/38 30/37/39 
s 4
f 31/38/40 15/16/41 17/18/42 
f 13/25/25 23/24/24 32/39/43 
f 33/40/44 21/22/20 34/41/45 
s 8
f 16/17/46 35/42/47 36/43/48 
s 16
f 37/44/49 8/45/50 38/46/51 
s 1
f 24/27/27 1/1/1 39/47/52 
s 8
f 40/48/53 15/16/54 41/49/55 
f 7/7/56 42/50/57 43/51/58 
s 2
f 21/52/59 43/53/60 19/54/61 
s 8
f 44/55/62 31/56/63 45/57/64 
s 1
f 44/58/65 11/14/12 31/59/66 
s 16
f 37/44/49 38/46/51 35/60/67 
s 4
f 46/61/68 38/62/69 47/63/70 
s 1
f 4/4/4 48/64/71 49/65/72 
s 4
f 50/66/73 44/55/74 29/36/75 
f 38/62/69 27/33/35 47/63/70 
f 45/57/76 36/67/77 51/68/78 
s 65536
f 44/58/79 52/69/79 11/14/79 
s 262144
f 44/55/80 50/66/80 52/70/80 
f 25/29/81 53/71/82 54/72/83 
s 16
f 8/45/50 2/2/84 55/73/85 
s 4
f 34/41/45 21/22/20 20/21/19 
s 1
f 1/1/1 10/10/28 54/72/86 
s 8
f 48/64/87 32/39/88 23/24/89 
s 4
f 48/64/90 43/74/91 56/75/92 
s 1
f 57/76/93 48/64/71 58/77/94 
s 8
f 43/51/58 58/78/95 7/7/56 
s 2
f 37/79/96 15/16/14 2/80/97 
s 16
f 8/45/50 37/44/49 2/2/84 
s 8
f 45/57/64 31/56/63 59/81/98 
s 1
f 17/32/34 26/31/33 45/57/99 
f 13/13/11 60/82/100 11/14/12 
f 61/83/101 62/84/102 13/13/11 
s 8
f 9/9/103 42/50/57 7/7/56 
s 4
f 20/21/19 19/20/18 63/85/104 
s 2
f 43/53/60 21/52/59 56/86/105 
s 1
f 61/83/101 21/87/106 62/84/102 
s 2
f 25/29/30 9/28/29 8/45/107 
s 8192
f 64/88/108 25/29/108 8/45/108 
s 2
f 2/80/97 15/16/14 3/89/109 
s 8
f 15/16/54 24/90/110 39/91/111 
s 4
f 27/33/35 38/62/69 7/34/36 
s 1
f 38/92/112 8/8/8 7/7/7 
s 8
f 15/16/54 40/48/53 24/90/110 
s 2
f 24/27/113 11/11/114 10/10/115 
s 4
f 43/74/91 48/64/90 57/76/116 
s 8
f 58/77/95 43/74/58 57/76/117 
s 16
f 29/36/118 49/65/119 50/66/120 
s 4
f 23/24/24 14/26/26 50/66/73 
s 65536
f 20/21/121 54/72/122 34/41/123 
s 2
f 25/29/30 65/93/124 20/21/31 
f 38/46/125 46/94/125 35/60/125 
s 8
f 46/95/126 36/43/48 35/42/47 
s 4
f 59/96/127 31/38/40 17/18/42 
s 1
f 59/81/128 17/32/34 45/57/99 
s 16
f 4/4/129 49/65/119 29/36/118 
s 2
f 29/36/38 22/23/21 4/4/23 
s 8
f 44/55/62 45/57/64 30/37/130 
s 4
f 30/37/131 29/36/75 44/55/74 
s 8
f 32/39/88 48/64/87 56/75/132 
s 2
f 21/87/59 61/83/133 56/97/105 
s 8
f 42/98/57 9/28/103 63/85/134 
s 2
f 9/28/29 20/21/31 63/85/135 
f 11/11/114 24/27/113 40/99/136 
s 1
f 40/100/137 31/59/66 11/14/12 
s 2
f 15/16/14 37/79/96 16/17/15 
s 8
f 35/42/47 16/17/46 37/79/138 
s 512
f 5/5/139 22/23/139 51/68/139 
s 8192
f 28/35/140 18/19/141 5/5/142 27/33/143 
s 4
f 51/68/78 22/23/144 45/57/76 
s 8
f 30/37/130 45/57/64 22/23/145 
s 1
f 39/47/52 1/1/1 3/3/3 
s 8
f 15/16/54 39/91/111 3/89/146 
s 1
f 54/72/86 10/10/28 34/41/147 
s 2
f 12/12/148 34/41/149 10/10/115 
s 256
f 52/70/150 50/66/151 14/26/152 
f 14/15/152 11/14/153 52/69/150 
s 2
f 34/41/149 12/12/148 33/40/154 
s 1
f 11/14/12 60/82/100 12/101/155 
f 13/13/11 32/102/156 61/83/101 
s 8
f 32/39/88 56/75/132 61/103/157 
s 4
f 36/67/77 45/57/76 26/31/158 
s 8
f 26/104/159 16/17/46 36/43/48 
s 1
f 31/59/66 40/100/137 41/105/160 
s 4
f 15/16/41 31/38/40 41/49/161 
s 1
f 2/2/2 1/1/1 55/73/162 
s 262144
f 25/29/81 64/88/163 53/71/82 
s 4
f 62/106/164 21/22/20 33/40/44 
s 1
f 12/12/155 60/107/100 33/40/165 
s 32768
f 51/68/166 36/67/167 47/63/168 
s 8
f 36/43/48 46/95/126 47/108/169 
s 32768
f 47/63/168 27/33/170 51/68/166 
s 8192
f 51/68/171 27/33/143 5/5/142 
s 65536
f 54/72/122 20/21/121 65/93/172 
s 262144
f 65/93/173 25/29/81 54/72/83 
s 1
f 60/107/100 62/106/102 33/40/165 
f 13/13/11 62/84/102 60/82/100 
s 2048
f 50/66/174 49/65/175 23/24/176 
f 49/65/175 48/64/177 23/24/176 
s 2
f 43/51/60 42/50/178 19/109/61 
s 1
f 63/85/179 19/20/179 42/98/179 
s 4096
f 8/45/180 55/73/181 64/88/182 
f 64/88/182 55/73/181 1/1/183 
f 53/71/184 1/1/183 54/72/185 
f 1/1/183 53/71/184 64/88/182 
s 4
f 7/34/36 58/77/37 28/35/37 
s 8192
f 28/35/140 58/77/186 18/19/141 
s 1
f 48/64/71 6/6/6 18/19/17 58/77/94 
f 6/6/6 48/64/71 4/4/4 
# 2 polygons - 122 triangles

