# 3ds Max Wavefront OBJ Exporter v0.97b - (c)2007 guruware
# File Created: 17.07.2017 14:47:15

#
# object SM_Rock_1
#

v  109.6384 -38.6055 100.3679
v  102.4605 21.6641 -62.2336
v  111.8806 23.7486 2.8476
v  -96.4733 42.9671 48.8095
v  -109.5126 39.4769 138.2571
v  -66.1003 92.3083 132.8078
v  90.5234 78.3513 -12.5897
v  50.4746 68.7984 -94.5866
v  -30.4800 -105.2521 48.5222
v  -83.3254 -39.8968 -36.7369
v  0.6527 -105.3298 -27.6388
v  -11.0478 -39.2888 -116.4127
v  36.3054 -19.4283 -116.4126
v  20.9198 -68.3121 -116.6460
v  8.7315 -105.0012 107.1818
v  12.7141 -68.3401 168.3077
v  101.9012 -41.8516 151.9935
v  103.4601 12.2720 154.4719
v  -73.9452 -66.7403 162.1962
v  19.2180 88.2599 164.7260
v  -80.9526 66.3256 160.8958
v  -73.6007 -19.8224 -88.3737
v  -8.4699 -78.2567 -103.6776
v  -53.5550 87.7288 75.2400
v  -49.1134 79.2123 73.7533
v  -103.2825 -36.8716 69.0830
v  -77.2697 -84.3635 104.7333
v  -104.2881 -15.3483 157.2278
v  71.3152 -76.7454 -62.6449
v  53.3045 -27.6912 -117.1488
v  63.4810 -68.3924 -90.0631
v  60.9140 53.8325 -114.2716
v  55.6083 32.9654 -114.9182
v  0.8071 36.1172 -116.4127
v  19.0909 69.0687 -114.5092
v  73.0241 89.2012 152.7043
v  83.3781 104.1853 89.0023
v  23.1720 112.4862 74.6814
v  113.6399 38.8152 117.6797
v  0.5509 -122.7319 119.0803
v  -44.1585 -103.1563 120.4293
v  -12.0900 -97.8435 162.6398
v  -55.2058 27.4033 -116.4127
v  -8.6803 68.7186 -113.8419
v  94.8923 -34.1262 -74.2030
v  81.4574 -87.6092 32.7869
v  -34.4108 97.7599 140.2335
v  -38.0401 85.3737 73.9344
v  -41.0427 93.2951 74.4876
v  -81.5916 8.2829 -80.6569
v  -90.3526 29.5337 -11.2477
v  82.2865 -88.3994 123.0657
v  12.0255 81.0095 -67.3922
v  87.1759 90.6576 34.9057
v  12.8792 -1.3200 -116.4127
v  -44.0191 -8.1723 -116.4127
v  -32.5315 80.0545 -21.2328
v  -26.4782 68.7979 -21.3372
v  19.9914 103.8291 73.0259
v  -100.9458 -24.2703 34.4396
v  100.7366 51.9699 150.4091
v  10.2901 97.2228 -26.0188
v  13.6674 87.3724 -26.1491
v  75.8562 95.9918 88.4331
# 64 vertices

vn 0.9955 -0.0861 -0.0388
vn 0.9850 -0.1430 -0.0965
vn 0.9742 -0.1997 -0.1053
vn -0.7202 0.6798 -0.1389
vn -0.7740 0.6269 -0.0884
vn -0.7272 0.6735 -0.1327
vn 0.7389 0.5252 -0.4221
vn -0.5491 -0.8175 -0.1739
vn -0.6170 -0.7385 -0.2719
vn -0.5839 -0.7805 -0.2234
vn -0.0008 0.0020 -1.0000
vn -0.0115 0.0189 -0.9998
vn -0.0104 0.0081 -0.9999
vn 0.0030 -1.0000 0.0023
vn 0.0052 -0.0223 0.9997
vn 0.1942 -0.0505 0.9797
vn 0.1744 0.0229 0.9844
vn -0.0804 -0.0102 0.9967
vn 0.0732 0.0392 0.9965
vn -0.0593 0.0066 0.9982
vn -0.6662 -0.6441 -0.3759
vn -0.6159 -0.7426 -0.2631
vn 0.2584 0.2953 -0.9198
vn -0.9010 -0.4236 0.0932
vn -0.8847 -0.4470 0.1323
vn -0.8788 -0.4545 0.1452
vn 0.3665 -0.9302 -0.0197
vn 0.5734 -0.3497 -0.7409
vn 0.5871 -0.3416 -0.7339
vn 0.4857 -0.3969 -0.7788
vn 0.7124 0.6867 -0.1443
vn 0.0177 0.0264 -0.9995
vn 0.0048 0.0353 -0.9994
vn 0.0068 0.0505 -0.9987
vn 0.0542 0.9658 0.2536
vn 0.0763 0.9678 0.2400
vn 0.0579 0.9656 0.2534
vn 0.9987 -0.0497 -0.0088
vn 0.6645 -0.6029 -0.4416
vn -0.4854 -0.8004 0.3517
vn -0.4516 -0.8169 0.3588
vn -0.3874 -0.8311 0.3989
vn -0.0034 0.0216 -0.9998
vn -0.0188 0.0732 -0.9971
vn -0.4770 -0.4240 -0.7698
vn -0.4275 -0.3470 -0.8348
vn -0.3682 -0.3107 -0.8763
vn 0.6650 -0.2913 -0.6877
vn 0.8452 -0.4930 -0.2063
vn 0.8915 -0.4528 0.0127
vn 0.8960 -0.4370 -0.0786
vn -0.2046 0.7309 0.6511
vn -0.2262 0.7463 0.6260
vn -0.1822 0.7141 0.6759
vn -0.0532 0.0682 -0.9962
vn -0.0619 0.1402 -0.9882
vn -0.0680 0.1025 -0.9924
vn -0.0569 0.0546 -0.9969
vn -0.9906 0.0698 -0.1177
vn -0.9973 0.0259 -0.0681
vn -0.9979 -0.0286 -0.0583
vn -0.9755 -0.1279 -0.1788
vn -0.9802 -0.0678 -0.1862
vn -0.9873 0.0101 -0.1585
vn 0.8241 0.5351 0.1859
vn 0.8315 0.4953 0.2517
vn 0.8267 0.5242 0.2045
vn 0.2891 -0.6276 0.7229
vn 0.3119 -0.5928 0.7425
vn 0.2738 -0.6497 0.7091
vn 0.8832 -0.4674 0.0389
vn 0.1605 0.9631 -0.2159
vn 0.1167 0.9709 -0.2090
vn 0.1703 0.9644 -0.2021
vn 0.1930 -0.9206 -0.3396
vn 0.1877 -0.9213 -0.3404
vn 0.2060 -0.9189 -0.3364
vn 0.0090 0.0064 -0.9999
vn 0.7354 -0.0853 -0.6723
vn 0.7338 -0.0077 -0.6793
vn 0.7362 0.0194 -0.6765
vn -0.6319 -0.1987 -0.7492
vn -0.7294 -0.1161 -0.6741
vn -0.7002 -0.1427 -0.6996
vn -0.1102 -0.0482 -0.9927
vn -0.1104 -0.0501 -0.9926
vn -0.1219 -0.0564 -0.9909
vn -0.0578 0.1993 -0.9782
vn -0.0594 0.2085 -0.9762
vn -0.1595 0.0012 0.9872
vn -0.8524 -0.4841 0.1978
vn 0.8198 -0.5191 -0.2419
vn 0.1091 -0.9863 -0.1239
vn 0.1389 -0.9858 -0.0947
vn 0.1894 -0.9809 -0.0442
vn -0.5304 -0.8377 -0.1302
vn -0.4018 -0.9144 -0.0498
vn -0.4360 -0.8981 -0.0568
vn -0.8530 -0.5022 -0.1421
vn -0.8730 -0.4748 -0.1119
vn -0.8309 -0.5291 -0.1724
vn -0.9915 0.0545 -0.1177
vn 0.2174 0.1083 0.9701
vn 0.2407 0.9435 -0.2275
vn 0.9291 0.3665 -0.0489
vn 0.9260 0.3721 -0.0630
vn 0.9328 0.3488 -0.0905
vn -0.2677 0.7737 0.5742
vn -0.7486 0.6348 0.1914
vn 0.0000 -0.0000 -1.0000
vn 0.7212 0.0504 -0.6909
vn 0.9895 -0.1157 -0.0866
vn 0.0580 0.9698 -0.2371
vn 0.3047 0.8291 -0.4688
vn 0.2519 -0.6798 0.6888
vn -0.0721 -0.1293 0.9890
vn 0.2343 0.1149 0.9654
vn 0.9963 0.0730 0.0452
vn 0.9964 0.0451 0.0714
vn 0.9930 -0.0053 0.1184
vn -0.7056 0.1707 0.6877
vn -0.9958 -0.0911 0.0109
vn 0.9887 -0.0352 0.1460
vn 0.8911 -0.4413 0.1058
vn -0.2861 0.9575 -0.0362
vn -0.2530 0.9666 -0.0401
vn -0.2105 0.9765 -0.0451
vn -0.1577 0.9862 -0.0511
vn 0.2969 -0.6228 -0.7239
vn 0.2223 -0.9749 -0.0106
vn -0.4790 -0.5075 -0.7162
vn -0.1024 -0.0219 -0.9945
vn -0.1018 -0.0256 -0.9945
vn 0.6172 0.2216 -0.7550
vn -0.6627 0.7136 -0.2272
vn -0.6144 0.7745 -0.1508
vn -0.4886 0.8654 -0.1109
vn 0.2706 0.0633 -0.9606
vn 0.2820 -0.1937 -0.9397
vn 0.2717 -0.1727 -0.9468
vn 0.2756 0.0819 -0.9578
vn 0.3349 -0.2442 -0.9101
vn 0.6016 -0.6058 0.5207
vn -0.3611 -0.8510 0.3814
vn -0.2921 -0.3145 -0.9032
vn 0.1590 -0.9239 -0.3480
vn 0.2041 -0.9187 -0.3382
vn 0.7630 -0.5245 -0.3778
vn 0.0155 0.0270 -0.9995
vn 0.7198 -0.1621 -0.6749
vn -0.5691 -0.7763 0.2710
vn -0.9461 -0.1989 -0.2555
vn -0.7888 -0.0562 -0.6121
vn 0.0513 0.9638 0.2616
vn 0.0461 0.9641 0.2614
vn -0.0306 0.0260 -0.9992
vn -0.7429 -0.6115 -0.2725
vn 0.9346 0.3244 -0.1457
vn 0.9356 0.3455 -0.0725
vn 0.8020 0.5922 0.0782
vn 0.9011 -0.1385 0.4109
vn -0.0182 0.9685 -0.2482
vn 0.0849 0.9842 -0.1552
vn -0.4287 0.8953 -0.1211
vn -0.3952 0.9144 -0.0879
vn -0.4089 0.9069 -0.1014
vn -0.3809 0.9216 -0.0741
vn -0.6126 0.7641 -0.2021
vn -0.6547 0.7452 -0.1266
vn -0.6671 0.7354 -0.1186
vn -0.6297 0.7545 -0.1847
vn -0.5330 0.7879 -0.3085
vn -0.6458 0.7370 -0.1994
vn -0.4092 0.8982 -0.1606
vn 0.8020 0.5868 0.1111
vn 0.1562 0.9856 -0.0652
vn 0.1513 0.9857 -0.0740
vn 0.1512 0.9857 -0.0742
vn 0.1477 0.9858 -0.0802
vn -0.3034 0.9523 -0.0338
vn -0.3514 0.9343 -0.0592
vn -0.4074 0.9112 -0.0614
vn -0.5278 0.8452 -0.0846
# 183 vertex normals

vt 0.6075 0.5543 0.0000
vt 0.5194 0.7897 0.0000
vt 0.5160 0.6956 0.0000
vt 0.3111 0.8028 0.0000
vt 0.3456 0.9314 0.0000
vt 0.2446 0.9390 0.0000
vt 0.4314 0.7230 0.0000
vt 0.4319 0.8588 0.0000
vt 0.2668 0.2762 0.0000
vt 0.3226 0.1089 0.0000
vt 0.1937 0.1911 0.0000
vt 0.1779 0.0310 0.0000
vt 0.1014 0.0096 0.0000
vt 0.1359 0.0707 0.0000
vt 0.2284 0.3764 0.0000
vt 0.6670 0.1345 0.0000
vt 0.8005 0.1004 0.0000
vt 0.8421 0.1676 0.0000
vt 0.5594 0.2015 0.0000
vt 0.7920 0.3261 0.0000
vt 0.6500 0.3735 0.0000
vt 0.2861 0.0330 0.0000
vt 0.1718 0.0838 0.0000
vt 0.2257 0.8553 0.0000
vt 0.2250 0.8437 0.0000
vt 0.4181 0.2356 0.0000
vt 0.3684 0.3165 0.0000
vt 0.4957 0.3461 0.0000
vt 0.0874 0.1531 0.0000
vt 0.0764 0.0401 0.0000
vt 0.0871 0.1129 0.0000
vt 0.4650 0.8819 0.0000
vt 0.0832 0.5105 0.0000
vt 0.1645 0.5259 0.0000
vt 0.1317 0.5652 0.0000
vt 0.0307 0.9715 0.0000
vt 0.0182 0.8726 0.0000
vt 0.1073 0.8583 0.0000
vt 0.4947 0.5293 0.0000
vt 0.2586 0.3906 0.0000
vt 0.4152 0.3886 0.0000
vt 0.3277 0.3604 0.0000
vt 0.3209 0.4370 0.0000
vt 0.2453 0.5414 0.0000
vt 0.1662 0.5698 0.0000
vt 0.0295 0.1234 0.0000
vt 0.0192 0.3870 0.0000
vt 0.0974 0.2890 0.0000
vt 0.7353 0.3922 0.0000
vt 0.2057 0.8470 0.0000
vt 0.2051 0.8557 0.0000
vt 0.7740 0.5982 0.0000
vt 0.6551 0.5780 0.0000
vt 0.7572 0.4673 0.0000
vt 0.7415 0.7923 0.0000
vt 0.6651 0.7356 0.0000
vt 0.7623 0.6877 0.0000
vt 0.3843 0.5553 0.0000
vt 0.4120 0.4622 0.0000
vt 0.7442 0.0368 0.0000
vt 0.1164 0.4172 0.0000
vt 0.0825 0.5848 0.0000
vt 0.1362 0.6339 0.0000
vt 0.0168 0.7733 0.0000
vt 0.4962 0.8902 0.0000
vt 0.5705 0.9244 0.0000
vt 0.5408 0.9564 0.0000
vt 0.5858 0.8999 0.0000
vt 0.7183 0.8688 0.0000
vt 0.7009 0.8095 0.0000
vt 0.7713 0.8563 0.0000
vt 0.1991 0.7094 0.0000
vt 0.2019 0.6957 0.0000
vt 0.3096 0.7018 0.0000
vt 0.1115 0.8466 0.0000
vt 0.5593 0.2889 0.0000
vt 0.4045 0.1817 0.0000
vt 0.6777 0.6270 0.0000
vt 0.8622 0.2867 0.0000
vt 0.0155 0.7010 0.0000
vt 0.4104 0.6519 0.0000
vt 0.6930 0.4152 0.0000
vt 0.2935 0.9737 0.0000
vt 0.2459 0.4844 0.0000
vt 0.7113 0.9521 0.0000
vt 0.6785 0.9802 0.0000
vt 0.6641 0.9067 0.0000
vt 0.5996 0.8111 0.0000
vt 0.0719 0.5438 0.0000
vt 0.6148 0.0394 0.0000
vt 0.6132 0.1161 0.0000
vt 0.8693 0.2192 0.0000
vt 0.4775 0.4775 0.0000
vt 0.5357 0.4731 0.0000
vt 0.5841 0.3702 0.0000
vt 0.6746 0.4471 0.0000
vt 0.6146 0.4784 0.0000
vt 0.0435 0.4655 0.0000
vt 0.1948 0.9515 0.0000
vt 0.1384 0.7074 0.0000
vt 0.1354 0.6981 0.0000
vt 0.0256 0.8554 0.0000
vt 0.3938 0.5713 0.0000
vt 0.2993 0.4914 0.0000
vt 0.1127 0.9918 0.0000
vt 0.4849 0.9694 0.0000
vt 0.7683 0.9460 0.0000
vt 0.3047 0.5888 0.0000
# 108 texture coords

g SM_Rock_1
s 1
f 1/1/1 2/2/2 3/3/3 
f 4/4/4 5/5/5 6/6/6 
s 2
f 7/7/7 2/2/7 8/8/7 
s 1
f 9/9/8 10/10/9 11/11/10 
f 12/12/11 13/13/12 14/14/13 
s 2
f 9/9/14 11/11/14 15/15/14 
s 1
f 16/16/15 17/17/16 18/18/17 
f 19/19/18 20/20/19 21/21/20 
f 10/10/9 22/22/21 23/23/22 
s 2
f 4/4/23 24/24/23 25/25/23 
s 1
f 16/16/15 20/20/19 19/19/18 
s 2
f 26/26/24 27/27/25 28/28/26 
s 4
f 11/11/27 29/29/27 15/15/27 
s 2
f 30/30/28 31/31/29 14/14/30 
s 4
f 2/2/31 32/32/31 8/8/31 
s 1
f 33/33/32 34/34/33 35/35/34 
s 2
f 36/36/35 37/37/36 38/38/37 
s 1
f 3/3/3 39/39/38 1/1/1 
s 8
f 9/9/39 15/15/39 40/40/39 
s 4
f 19/41/40 41/42/41 42/43/42 
s 1
f 34/34/33 43/44/43 44/45/44 
s 4
f 22/22/45 12/12/46 23/23/47 
s 2
f 31/31/29 30/30/28 45/46/48 
s 8
f 45/46/49 1/47/50 46/48/51 
s 4
f 47/49/52 21/21/53 20/20/54 
f 48/50/55 25/25/56 24/24/57 49/51/58 
s 8
f 4/52/59 26/53/60 5/54/61 
f 50/55/62 10/56/63 51/57/64 
s 1
f 18/18/17 20/20/19 16/16/15 
s 4
f 39/39/65 37/58/66 36/59/67 
s 2
f 52/60/68 17/17/69 16/16/70 
s 8
f 46/48/51 1/47/50 52/61/71 
f 8/62/72 53/63/73 54/64/74 
s 1
f 11/11/10 10/10/9 23/23/22 
s 16
f 11/11/75 14/14/76 31/31/77 
s 1
f 33/65/32 13/66/12 55/67/78 
s 16
f 33/65/79 2/2/80 30/68/81 
s 2
f 56/69/82 22/70/83 43/71/84 
s 1
f 57/72/85 58/73/86 51/74/87 
s 4
f 59/75/88 48/50/55 49/51/58 38/38/89 
s 1
f 21/21/20 28/76/90 19/19/18 
s 2
f 28/28/26 27/27/25 19/41/91 
s 8
f 29/29/92 45/46/49 46/48/51 
s 1
f 29/29/93 46/48/94 15/15/95 
f 27/27/96 10/10/9 9/9/8 
f 9/9/8 40/40/97 41/42/98 
s 16
f 60/77/99 10/10/100 27/27/101 
s 8
f 60/78/102 51/57/64 10/56/63 
s 1
f 18/18/17 36/79/103 20/20/19 
s 8
f 54/64/74 7/80/104 8/62/72 
s 32
f 54/81/105 39/39/106 3/3/107 
s 4
f 47/49/52 6/82/108 21/21/53 
s 2
f 21/83/109 6/6/109 5/5/109 
s 1
f 56/84/110 43/44/43 34/34/33 
f 55/85/78 13/86/12 12/87/11 
s 16
f 30/68/81 2/2/80 45/88/111 
s 1
f 1/1/1 45/88/112 2/2/2 
s 8
f 8/62/72 35/35/113 53/63/73 
s 32
f 35/35/114 8/62/114 32/89/114 
s 2
f 52/60/68 16/16/70 40/90/115 
s 1
f 42/91/116 16/16/15 19/19/18 
f 36/79/103 18/18/17 61/92/117 
s 16
f 61/93/118 18/94/119 1/1/120 
f 21/21/121 5/95/121 28/76/121 
s 8
f 26/53/60 28/96/122 5/54/61 
s 16
f 1/1/120 18/94/119 17/97/123 
s 8
f 1/47/50 17/98/124 52/61/71 
f 38/38/125 49/51/126 47/99/127 
f 6/6/128 47/99/127 49/51/126 
s 16
f 52/61/129 40/40/129 15/15/129 
s 1
f 15/15/95 46/48/94 52/61/130 
f 55/85/78 12/87/11 56/69/110 
s 4
f 22/70/45 56/69/131 12/87/46 
s 1
f 57/72/85 62/100/132 63/101/133 58/73/86 
s 2
f 62/100/134 54/64/134 63/101/134 
s 8
f 4/52/59 51/57/64 60/78/102 
s 16
f 51/74/135 4/4/136 57/72/137 
s 64
f 38/38/138 37/37/139 64/102/140 59/75/141 
f 37/58/139 39/39/142 64/103/140 
s 32
f 40/40/143 16/104/143 42/43/143 
s 4
f 42/43/42 41/42/41 40/40/144 
f 14/14/145 23/23/47 12/12/46 
s 16
f 11/11/75 23/23/146 14/14/76 
f 31/31/77 29/29/147 11/11/75 
s 8
f 29/29/92 31/31/148 45/46/49 
s 1
f 35/35/34 32/89/149 33/33/32 
s 16
f 33/65/79 32/32/150 2/2/80 
s 1
f 41/42/98 27/27/96 9/9/8 
s 4
f 41/42/41 19/41/40 27/27/151 
s 8
f 22/70/152 10/56/63 50/55/62 
s 2
f 22/70/83 50/55/153 43/71/84 
f 47/99/154 20/105/155 38/38/37 
f 38/38/37 20/105/155 36/36/35 
s 1
f 33/65/32 30/68/156 13/66/12 
f 14/14/13 13/13/12 30/30/156 
s 16
f 27/27/101 26/26/157 60/77/99 
s 8
f 60/78/102 26/53/60 4/52/59 
s 32
f 2/2/158 7/7/159 3/3/107 
f 3/3/107 7/7/159 54/81/105 
s 4
f 36/59/67 61/93/160 39/39/65 
s 2
f 1/1/161 39/39/161 61/93/161 
s 8
f 44/45/162 53/63/73 35/35/113 
s 1
f 35/35/34 34/34/33 44/45/44 
f 33/65/32 55/67/78 34/106/33 
f 34/107/33 55/85/78 56/69/110 
s 8
f 54/64/74 53/63/73 63/101/163 
s 4
f 63/101/164 53/63/165 58/73/166 
f 58/73/166 53/63/165 44/45/167 
s 32
f 58/73/168 44/45/169 43/44/170 
f 58/73/168 43/44/170 50/108/171 
f 58/73/168 50/108/171 51/74/172 
s 1
f 4/4/4 6/6/6 24/24/173 
s 16
f 24/24/174 6/6/174 49/51/174 
f 39/39/175 54/81/175 64/103/175 
s 128
f 64/102/176 54/64/177 59/75/178 
f 59/75/178 54/64/177 62/100/179 
s 16
f 59/75/180 62/100/181 48/50/182 
f 48/50/182 62/100/181 57/72/137 
f 48/50/182 57/72/137 25/25/183 
f 25/25/183 57/72/137 4/4/136 
# 4 polygons - 116 triangles

