# 3ds Max Wavefront OBJ Exporter v0.97b - (c)2007 guruware
# File Created: 27.05.2017 03:06:21

#
# object Waterfall
#

v  -367.0056 8.5541 5627.6475
v  -365.9574 -263.5494 5629.0938
v  -122.6895 -228.7417 5660.1143
v  -123.1503 44.2500 5658.5132
v  -123.8667 354.6177 5306.1870
v  -367.8598 290.3317 5339.8906
v  -367.4669 188.2800 5495.1602
v  -123.5007 223.5666 5525.9888
v  -260.4659 1146.2308 241.1433
v  -774.6268 861.7684 273.1924
v  -774.6268 785.5610 570.5406
v  -260.8187 1022.0439 538.4907
v  -691.8622 743.2241 867.8894
v  -232.9517 979.7068 835.8396
v  -691.8622 690.3959 1165.2377
v  -232.9517 896.8224 1133.1879
v  -624.4498 653.4398 1462.5861
v  -210.2538 859.8666 1430.5363
v  -624.4498 610.5310 1759.9346
v  -210.2538 781.9384 1727.8848
v  -550.2019 579.8441 2057.2827
v  -185.2543 751.2520 2025.2329
v  -550.2019 549.4630 2354.6311
v  -185.2543 687.1275 2322.5813
v  -502.6936 524.8173 2651.9795
v  -169.2582 662.4819 2619.9297
v  -502.6936 503.5381 2949.3281
v  -169.2582 623.3038 2917.2783
v  -442.9130 482.0968 3246.6765
v  -149.1299 601.8625 3214.6267
v  -442.9130 447.4581 3544.0249
v  -149.1299 549.2400 3511.9751
v  -399.5752 429.2362 3841.3733
v  -134.5379 531.0182 3809.3235
v  -399.5752 384.0836 4138.7217
v  -134.5379 462.7092 4106.6714
v  -369.5153 370.0061 4436.2310
v  -124.4132 448.6273 4404.1650
v  -369.5974 352.0126 4734.8340
v  -124.4543 430.6504 4702.8638
v  -369.4700 322.4966 5033.3535
v  -124.3933 386.4877 5001.1152
v  122.6895 -228.7417 5660.1143
v  123.1503 44.2500 5658.5132
v  365.9574 -263.5494 5629.0938
v  367.0056 8.5541 5627.6475
v  123.5008 223.5666 5525.9888
v  123.8668 354.6177 5306.1870
v  367.4669 188.2800 5495.1602
v  367.8598 290.3317 5339.8906
v  260.8188 1022.0439 538.4907
v  260.4659 1146.2308 241.1433
v  774.6268 785.5610 570.5406
v  774.6268 861.7684 273.1924
v  232.9518 979.7068 835.8396
v  691.8622 743.2241 867.8894
v  232.9518 896.8224 1133.1879
v  691.8622 690.3959 1165.2377
v  210.2538 859.8666 1430.5363
v  624.4498 653.4398 1462.5861
v  210.2538 781.9384 1727.8848
v  624.4498 610.5310 1759.9346
v  185.2544 751.2520 2025.2329
v  550.2019 579.8441 2057.2827
v  185.2544 687.1275 2322.5813
v  550.2019 549.4630 2354.6311
v  169.2582 662.4819 2619.9297
v  502.6936 524.8173 2651.9795
v  169.2582 623.3038 2917.2783
v  502.6936 503.5381 2949.3281
v  149.1299 601.8625 3214.6267
v  442.9130 482.0968 3246.6765
v  149.1299 549.2400 3511.9751
v  442.9130 447.4581 3544.0249
v  134.5380 531.0182 3809.3235
v  399.5752 429.2362 3841.3733
v  134.5380 462.7092 4106.6714
v  399.5752 384.0836 4138.7217
v  124.4132 448.6273 4404.1650
v  369.5153 370.0061 4436.2310
v  124.4543 430.6504 4702.8638
v  369.5974 352.0126 4734.8340
v  124.3934 386.4877 5001.1152
v  369.4700 322.4966 5033.3535
v  -112.2452 -228.7417 5502.7603
v  -345.9751 -263.5494 5472.6646
v  -341.3873 -37.4391 5478.9946
v  -110.2283 -6.5188 5509.7686
v  -339.3684 74.3330 5389.8232
v  -337.6489 146.3299 5283.1450
v  -107.0926 205.3385 5258.1904
v  -108.6943 107.0449 5420.7617
v  -692.3952 221.5390 564.6599
v  -692.3952 183.5327 267.3118
v  -220.9200 451.0124 235.1152
v  -219.3759 444.3117 532.4670
v  -618.4167 179.2019 862.0085
v  -195.9368 401.9746 829.8158
v  -618.4167 198.0590 1159.3568
v  -195.9368 392.5179 1127.1641
v  -558.1605 161.1029 1456.7052
v  -176.8455 355.5619 1424.5125
v  -558.1605 201.7163 1754.0537
v  -176.8455 363.1863 1721.8610
v  -491.7945 171.0297 2051.4019
v  -155.8183 332.4997 2019.2091
v  -491.7945 221.1272 2348.7502
v  -155.8183 350.8105 2316.5576
v  -449.3295 196.4814 2646.0986
v  -142.3639 326.1646 2613.9060
v  -449.3295 217.8917 2943.4473
v  -142.3639 330.7138 2911.2546
v  -395.8949 196.4502 3240.7957
v  -125.4339 309.2724 3208.6030
v  -395.8949 204.7036 3538.1440
v  -125.4339 300.5846 3505.9514
v  -395.8949 186.4817 3835.4924
v  -125.4339 282.3627 3803.2998
v  -357.1577 196.5582 4132.8408
v  -113.1605 270.6254 4100.6479
v  -330.4030 182.4879 4429.4858
v  -104.7008 256.5737 4397.3638
v  -330.0436 164.4981 4731.4180
v  -104.5211 238.5118 4698.8774
v  -330.6012 169.8997 5024.8271
v  -104.7878 230.1987 4993.4570
v  112.2451 -228.7417 5502.7603
v  110.2283 -6.5188 5509.7686
v  345.9751 -263.5494 5472.6646
v  341.3873 -37.4391 5478.9946
v  107.0926 205.3385 5258.1904
v  108.6943 107.0449 5420.7617
v  339.3684 74.3330 5389.8232
v  337.6489 146.3299 5283.1450
v  220.9201 451.0124 235.1152
v  219.3760 444.3117 532.4670
v  692.3952 221.5390 564.6599
v  692.3952 183.5327 267.3118
v  195.9369 401.9746 829.8158
v  618.4167 179.2019 862.0085
v  195.9369 392.5179 1127.1641
v  618.4167 198.0590 1159.3568
v  176.8456 355.5619 1424.5125
v  558.1605 161.1029 1456.7052
v  176.8456 363.1863 1721.8610
v  558.1605 201.7163 1754.0537
v  155.8184 332.4997 2019.2091
v  491.7945 171.0297 2051.4019
v  155.8184 350.8105 2316.5576
v  491.7945 221.1272 2348.7502
v  142.3639 326.1646 2613.9060
v  449.3295 196.4814 2646.0986
v  142.3639 330.7138 2911.2546
v  449.3295 217.8917 2943.4473
v  125.4339 309.2724 3208.6030
v  395.8949 196.4502 3240.7957
v  125.4339 300.5846 3505.9514
v  395.8949 204.7036 3538.1440
v  125.4339 282.3627 3803.2998
v  395.8949 186.4817 3835.4924
v  113.1606 270.6254 4100.6479
v  357.1577 196.5582 4132.8408
v  104.7009 256.5738 4397.3638
v  330.4030 182.4879 4429.4858
v  104.5211 238.5118 4698.8774
v  330.0436 164.4981 4731.4180
v  104.7879 230.1986 4993.4570
v  330.6012 169.8997 5024.8271
# 168 vertices

vn -0.7500 0.1934 0.6325
vn -0.8221 0.0129 0.5693
vn -0.0662 0.0055 0.9978
vn -0.0818 0.3230 0.9429
vn -0.1062 0.9465 0.3047
vn -0.7830 0.5780 0.2297
vn -0.7866 0.4539 0.4186
vn -0.0938 0.7378 0.6684
vn -0.1888 0.9137 0.3600
vn -0.8383 0.5282 0.1354
vn -0.8821 0.4217 0.2099
vn -0.2129 0.9357 0.2814
vn -0.8514 0.4884 0.1913
vn -0.2099 0.9567 0.2016
vn -0.8799 0.4435 0.1708
vn -0.2106 0.9551 0.2084
vn -0.8581 0.4889 0.1570
vn -0.2040 0.9619 0.1819
vn -0.8757 0.4506 0.1734
vn -0.1969 0.9613 0.1927
vn -0.8549 0.4971 0.1485
vn -0.1935 0.9694 0.1512
vn -0.8727 0.4709 0.1290
vn -0.1786 0.9715 0.1559
vn -0.8593 0.5015 0.1003
vn -0.1799 0.9782 0.1036
vn -0.8696 0.4765 0.1296
vn -0.1741 0.9784 0.1118
vn -0.8481 0.5148 0.1253
vn -0.1746 0.9774 0.1196
vn -0.8723 0.4751 0.1158
vn -0.1649 0.9782 0.1265
vn -0.8151 0.5718 0.0930
vn -0.1621 0.9777 0.1337
vn -0.8604 0.4911 0.1361
vn -0.1384 0.9799 0.1438
vn -0.8535 0.5170 0.0651
vn -0.1492 0.9872 0.0555
vn -0.8584 0.5112 0.0423
vn -0.1428 0.9852 0.0946
vn -0.8576 0.5096 0.0689
vn -0.1189 0.9849 0.1256
vn 0.0664 0.0057 0.9978
vn 0.0819 0.3229 0.9429
vn 0.8171 0.0002 0.5765
vn 0.7470 0.1974 0.6349
vn 0.0938 0.7378 0.6684
vn 0.1062 0.9465 0.3047
vn 0.7849 0.4548 0.4208
vn 0.7796 0.5811 0.2336
vn 0.2129 0.9357 0.2814
vn 0.1888 0.9137 0.3600
vn 0.8851 0.4195 0.2018
vn 0.8411 0.5220 0.1417
vn 0.2099 0.9567 0.2016
vn 0.8502 0.4883 0.1968
vn 0.2106 0.9551 0.2084
vn 0.8816 0.4424 0.1646
vn 0.2040 0.9619 0.1819
vn 0.8576 0.4876 0.1635
vn 0.1969 0.9613 0.1927
vn 0.8782 0.4489 0.1650
vn 0.1935 0.9694 0.1512
vn 0.8542 0.4957 0.1568
vn 0.1786 0.9715 0.1559
vn 0.8754 0.4682 0.1202
vn 0.1799 0.9782 0.1036
vn 0.8591 0.5007 0.1064
vn 0.1741 0.9784 0.1118
vn 0.8709 0.4760 0.1222
vn 0.1746 0.9774 0.1196
vn 0.8472 0.5144 0.1324
vn 0.1649 0.9782 0.1265
vn 0.8680 0.4892 0.0856
vn 0.1621 0.9777 0.1337
vn 0.8086 0.5713 0.1402
vn 0.1384 0.9799 0.1438
vn 0.8755 0.4734 0.0967
vn 0.1492 0.9872 0.0555
vn 0.8527 0.5180 0.0678
vn 0.1428 0.9852 0.0946
vn 0.8600 0.5082 0.0465
vn 0.1189 0.9849 0.1256
vn 0.8579 0.5107 0.0566
vn 0.0664 0.0296 -0.9974
vn -0.6505 0.0344 -0.7587
vn -0.6711 -0.2186 -0.7084
vn 0.0826 -0.3190 -0.9441
vn -0.6043 -0.5858 -0.5401
vn -0.6192 -0.7290 -0.2918
vn 0.1070 -0.9470 -0.3027
vn 0.0942 -0.7461 -0.6592
vn -0.5391 -0.8405 0.0539
vn -0.3829 -0.9178 0.1049
vn 0.2267 -0.9740 -0.0008
vn 0.2236 -0.9702 -0.0931
vn -0.3937 -0.9191 0.0175
vn 0.2250 -0.9704 -0.0879
vn -0.5299 -0.8478 0.0228
vn 0.2183 -0.9721 -0.0863
vn -0.3982 -0.9159 0.0502
vn 0.2198 -0.9744 -0.0478
vn -0.5406 -0.8387 0.0666
vn 0.2051 -0.9775 -0.0489
vn -0.3983 -0.9138 0.0791
vn 0.2086 -0.9778 -0.0200
vn -0.5343 -0.8432 0.0604
vn 0.1869 -0.9822 -0.0162
vn -0.4413 -0.8968 0.0313
vn 0.1896 -0.9813 -0.0334
vn -0.5370 -0.8424 0.0436
vn 0.1799 -0.9830 -0.0363
vn -0.4421 -0.8966 0.0253
vn 0.1846 -0.9815 -0.0499
vn -0.5177 -0.8555 0.0068
vn 0.1668 -0.9850 -0.0439
vn -0.5679 -0.8231 -0.0082
vn 0.1643 -0.9852 -0.0479
vn -0.4992 -0.8654 0.0428
vn 0.1447 -0.9882 -0.0502
vn -0.4910 -0.8709 -0.0210
vn 0.1525 -0.9868 -0.0550
vn -0.4892 -0.8719 -0.0210
vn 0.1504 -0.9879 -0.0384
vn -0.5143 -0.8565 -0.0429
vn 0.1249 -0.9905 -0.0575
vn -0.0649 0.0309 -0.9974
vn -0.0821 -0.3195 -0.9440
vn 0.6433 0.0220 -0.7653
vn 0.6654 -0.2144 -0.7150
vn -0.1070 -0.9470 -0.3027
vn -0.0942 -0.7461 -0.6592
vn 0.6011 -0.5887 -0.5404
vn 0.6132 -0.7354 -0.2883
vn -0.2267 -0.9740 -0.0008
vn -0.2236 -0.9702 -0.0931
vn 0.5420 -0.8393 0.0420
vn 0.3888 -0.9139 0.1168
vn -0.2250 -0.9704 -0.0879
vn 0.3936 -0.9190 0.0246
vn -0.2183 -0.9721 -0.0863
vn 0.5314 -0.8470 0.0136
vn -0.2198 -0.9744 -0.0478
vn 0.3989 -0.9151 0.0583
vn -0.2051 -0.9775 -0.0489
vn 0.5435 -0.8377 0.0540
vn -0.2086 -0.9778 -0.0200
vn 0.3986 -0.9129 0.0885
vn -0.1869 -0.9822 -0.0162
vn 0.5384 -0.8414 0.0476
vn -0.1896 -0.9813 -0.0334
vn 0.4416 -0.8964 0.0382
vn -0.1799 -0.9830 -0.0363
vn 0.5384 -0.8420 0.0335
vn -0.1846 -0.9815 -0.0499
vn 0.4420 -0.8964 0.0338
vn -0.1668 -0.9850 -0.0439
vn 0.5050 -0.8625 -0.0323
vn -0.1643 -0.9852 -0.0479
vn 0.5627 -0.8246 0.0585
vn -0.1447 -0.9882 -0.0502
vn 0.5205 -0.8538 0.0049
vn -0.1525 -0.9868 -0.0550
vn 0.4898 -0.8717 -0.0183
vn -0.1504 -0.9879 -0.0384
vn 0.4922 -0.8703 -0.0159
vn -0.1249 -0.9905 -0.0575
vn 0.5140 -0.8559 -0.0568
# 168 vertex normals

vt 0.7444 0.9439 0.0000
vt 0.7446 0.9765 0.0000
vt 0.7913 0.9902 0.0000
vt 0.7913 0.9492 0.0000
vt 0.7911 0.8747 0.0000
vt 0.7443 0.8804 0.0000
vt 0.7443 0.9069 0.0000
vt 0.7912 0.9121 0.0000
vt 0.7649 0.0115 0.0000
vt 0.6662 0.0170 0.0000
vt 0.6662 0.0676 0.0000
vt 0.7648 0.0622 0.0000
vt 0.6820 0.1183 0.0000
vt 0.7702 0.1129 0.0000
vt 0.6820 0.1690 0.0000
vt 0.7702 0.1635 0.0000
vt 0.6950 0.2197 0.0000
vt 0.7745 0.2142 0.0000
vt 0.6950 0.2703 0.0000
vt 0.7745 0.2649 0.0000
vt 0.7093 0.3210 0.0000
vt 0.7793 0.3155 0.0000
vt 0.7093 0.3717 0.0000
vt 0.7793 0.3662 0.0000
vt 0.7184 0.4223 0.0000
vt 0.7824 0.4169 0.0000
vt 0.7184 0.4730 0.0000
vt 0.7824 0.4676 0.0000
vt 0.7299 0.5237 0.0000
vt 0.7863 0.5182 0.0000
vt 0.7299 0.5744 0.0000
vt 0.7863 0.5689 0.0000
vt 0.7359 0.6250 0.0000
vt 0.7891 0.6196 0.0000
vt 0.7382 0.6757 0.0000
vt 0.7891 0.6702 0.0000
vt 0.7439 0.7264 0.0000
vt 0.7910 0.7209 0.0000
vt 0.7439 0.7773 0.0000
vt 0.7910 0.7718 0.0000
vt 0.7440 0.8282 0.0000
vt 0.7910 0.8227 0.0000
vt 0.8385 0.9902 0.0000
vt 0.8386 0.9492 0.0000
vt 0.8852 0.9765 0.0000
vt 0.8854 0.9439 0.0000
vt 0.8386 0.9121 0.0000
vt 0.8387 0.8747 0.0000
vt 0.8855 0.9069 0.0000
vt 0.8856 0.8804 0.0000
vt 0.8650 0.0622 0.0000
vt 0.8649 0.0115 0.0000
vt 0.9637 0.0676 0.0000
vt 0.9637 0.0170 0.0000
vt 0.8596 0.1129 0.0000
vt 0.9478 0.1183 0.0000
vt 0.8596 0.1635 0.0000
vt 0.9478 0.1690 0.0000
vt 0.8553 0.2142 0.0000
vt 0.9348 0.2197 0.0000
vt 0.8553 0.2649 0.0000
vt 0.9348 0.2703 0.0000
vt 0.8505 0.3155 0.0000
vt 0.9206 0.3210 0.0000
vt 0.8505 0.3662 0.0000
vt 0.9206 0.3717 0.0000
vt 0.8474 0.4169 0.0000
vt 0.9114 0.4223 0.0000
vt 0.8474 0.4676 0.0000
vt 0.9114 0.4730 0.0000
vt 0.8435 0.5182 0.0000
vt 0.9000 0.5237 0.0000
vt 0.8435 0.5689 0.0000
vt 0.9000 0.5744 0.0000
vt 0.8407 0.6196 0.0000
vt 0.8916 0.6250 0.0000
vt 0.8407 0.6702 0.0000
vt 0.8916 0.6757 0.0000
vt 0.8388 0.7209 0.0000
vt 0.8859 0.7264 0.0000
vt 0.8388 0.7718 0.0000
vt 0.8859 0.7773 0.0000
vt 0.8388 0.8227 0.0000
vt 0.8859 0.8282 0.0000
vt 0.7934 0.9895 0.0000
vt 0.7485 0.9782 0.0000
vt 0.7494 0.9438 0.0000
vt 0.7937 0.9491 0.0000
vt 0.7497 0.8889 0.0000
vt 0.7501 0.8707 0.0000
vt 0.7943 0.8665 0.0000
vt 0.7940 0.8942 0.0000
vt 0.6819 0.0666 0.0000
vt 0.6819 0.0160 0.0000
vt 0.7725 0.0105 0.0000
vt 0.7728 0.0612 0.0000
vt 0.6962 0.1173 0.0000
vt 0.7773 0.1118 0.0000
vt 0.6962 0.1680 0.0000
vt 0.7773 0.1625 0.0000
vt 0.7077 0.2187 0.0000
vt 0.7809 0.2132 0.0000
vt 0.7077 0.2693 0.0000
vt 0.7809 0.2638 0.0000
vt 0.7205 0.3200 0.0000
vt 0.7850 0.3145 0.0000
vt 0.7205 0.3707 0.0000
vt 0.7850 0.3652 0.0000
vt 0.7286 0.4213 0.0000
vt 0.7876 0.4159 0.0000
vt 0.7286 0.4720 0.0000
vt 0.7876 0.4665 0.0000
vt 0.7389 0.5227 0.0000
vt 0.7908 0.5172 0.0000
vt 0.7389 0.5734 0.0000
vt 0.7908 0.5679 0.0000
vt 0.7389 0.6240 0.0000
vt 0.7908 0.6185 0.0000
vt 0.7463 0.6747 0.0000
vt 0.7932 0.6692 0.0000
vt 0.7515 0.7253 0.0000
vt 0.7948 0.7198 0.0000
vt 0.7515 0.7767 0.0000
vt 0.7948 0.7712 0.0000
vt 0.7514 0.8267 0.0000
vt 0.7948 0.8214 0.0000
vt 0.8365 0.9895 0.0000
vt 0.8361 0.9491 0.0000
vt 0.8814 0.9782 0.0000
vt 0.8805 0.9438 0.0000
vt 0.8355 0.8665 0.0000
vt 0.8358 0.8942 0.0000
vt 0.8801 0.8889 0.0000
vt 0.8798 0.8707 0.0000
vt 0.8573 0.0105 0.0000
vt 0.8570 0.0612 0.0000
vt 0.9479 0.0666 0.0000
vt 0.9479 0.0160 0.0000
vt 0.8525 0.1118 0.0000
vt 0.9337 0.1173 0.0000
vt 0.8525 0.1625 0.0000
vt 0.9337 0.1680 0.0000
vt 0.8489 0.2132 0.0000
vt 0.9221 0.2187 0.0000
vt 0.8489 0.2638 0.0000
vt 0.9221 0.2693 0.0000
vt 0.8448 0.3145 0.0000
vt 0.9094 0.3200 0.0000
vt 0.8448 0.3652 0.0000
vt 0.9094 0.3707 0.0000
vt 0.8422 0.4159 0.0000
vt 0.9012 0.4213 0.0000
vt 0.8422 0.4665 0.0000
vt 0.9012 0.4720 0.0000
vt 0.8390 0.5172 0.0000
vt 0.8909 0.5227 0.0000
vt 0.8390 0.5679 0.0000
vt 0.8909 0.5734 0.0000
vt 0.8390 0.6185 0.0000
vt 0.8909 0.6240 0.0000
vt 0.8366 0.6692 0.0000
vt 0.8835 0.6747 0.0000
vt 0.8350 0.7198 0.0000
vt 0.8784 0.7253 0.0000
vt 0.8350 0.7712 0.0000
vt 0.8783 0.7767 0.0000
vt 0.8350 0.8214 0.0000
vt 0.8784 0.8267 0.0000
vt 0.6689 0.9593 0.0000
vt 0.7158 0.9581 0.0000
vt 0.7158 0.9865 0.0000
vt 0.6593 0.9863 0.0000
vt 0.6307 0.9237 0.0000
vt 0.6456 0.9431 0.0000
vt 0.6220 0.9622 0.0000
vt 0.6008 0.9340 0.0000
vt 0.6230 0.0125 0.0000
vt 0.6151 0.0665 0.0000
vt 0.4979 0.0676 0.0000
vt 0.4821 0.0136 0.0000
vt 0.6239 0.1205 0.0000
vt 0.5067 0.1216 0.0000
vt 0.6199 0.1746 0.0000
vt 0.5177 0.1756 0.0000
vt 0.6276 0.2286 0.0000
vt 0.5253 0.2297 0.0000
vt 0.6192 0.2826 0.0000
vt 0.5343 0.2837 0.0000
vt 0.6256 0.3366 0.0000
vt 0.5406 0.3377 0.0000
vt 0.6152 0.3906 0.0000
vt 0.5469 0.3917 0.0000
vt 0.6203 0.4447 0.0000
vt 0.5521 0.4457 0.0000
vt 0.6158 0.4987 0.0000
vt 0.5565 0.4997 0.0000
vt 0.6203 0.5527 0.0000
vt 0.5609 0.5538 0.0000
vt 0.6186 0.6067 0.0000
vt 0.5681 0.6078 0.0000
vt 0.6223 0.6607 0.0000
vt 0.5719 0.6618 0.0000
vt 0.6203 0.7147 0.0000
vt 0.5813 0.7158 0.0000
vt 0.6232 0.7686 0.0000
vt 0.5842 0.7699 0.0000
vt 0.6269 0.8235 0.0000
vt 0.5880 0.8241 0.0000
vt 0.6258 0.8768 0.0000
vt 0.5941 0.8783 0.0000
# 210 texture coords

g Waterfall
s 1
f 1/1/1 2/2/2 3/3/3 4/4/4 
f 5/5/5 6/6/6 7/7/7 8/8/8 
f 9/9/9 10/10/10 11/11/11 12/12/12 
f 12/12/12 11/11/11 13/13/13 14/14/14 
f 14/14/14 13/13/13 15/15/15 16/16/16 
f 16/16/16 15/15/15 17/17/17 18/18/18 
f 18/18/18 17/17/17 19/19/19 20/20/20 
f 20/20/20 19/19/19 21/21/21 22/22/22 
f 22/22/22 21/21/21 23/23/23 24/24/24 
f 24/24/24 23/23/23 25/25/25 26/26/26 
f 26/26/26 25/25/25 27/27/27 28/28/28 
f 28/28/28 27/27/27 29/29/29 30/30/30 
f 30/30/30 29/29/29 31/31/31 32/32/32 
f 32/32/32 31/31/31 33/33/33 34/34/34 
f 34/34/34 33/33/33 35/35/35 36/36/36 
f 36/36/36 35/35/35 37/37/37 38/38/38 
f 38/38/38 37/37/37 39/39/39 40/40/40 
f 40/40/40 39/39/39 41/41/41 42/42/42 
f 42/42/42 41/41/41 6/6/6 5/5/5 
f 4/4/4 3/3/3 43/43/43 44/44/44 
f 44/44/44 43/43/43 45/45/45 46/46/46 
f 8/8/8 47/47/47 48/48/48 5/5/5 
f 48/48/48 47/47/47 49/49/49 50/50/50 
f 12/12/12 51/51/51 52/52/52 9/9/9 
f 52/52/52 51/51/51 53/53/53 54/54/54 
f 14/14/14 55/55/55 51/51/51 12/12/12 
f 51/51/51 55/55/55 56/56/56 53/53/53 
f 16/16/16 57/57/57 55/55/55 14/14/14 
f 55/55/55 57/57/57 58/58/58 56/56/56 
f 18/18/18 59/59/59 57/57/57 16/16/16 
f 57/57/57 59/59/59 60/60/60 58/58/58 
f 20/20/20 61/61/61 59/59/59 18/18/18 
f 59/59/59 61/61/61 62/62/62 60/60/60 
f 22/22/22 63/63/63 61/61/61 20/20/20 
f 61/61/61 63/63/63 64/64/64 62/62/62 
f 24/24/24 65/65/65 63/63/63 22/22/22 
f 63/63/63 65/65/65 66/66/66 64/64/64 
f 26/26/26 67/67/67 65/65/65 24/24/24 
f 65/65/65 67/67/67 68/68/68 66/66/66 
f 28/28/28 69/69/69 67/67/67 26/26/26 
f 67/67/67 69/69/69 70/70/70 68/68/68 
f 30/30/30 71/71/71 69/69/69 28/28/28 
f 69/69/69 71/71/71 72/72/72 70/70/70 
f 32/32/32 73/73/73 71/71/71 30/30/30 
f 71/71/71 73/73/73 74/74/74 72/72/72 
f 34/34/34 75/75/75 73/73/73 32/32/32 
f 73/73/73 75/75/75 76/76/76 74/74/74 
f 36/36/36 77/77/77 75/75/75 34/34/34 
f 75/75/75 77/77/77 78/78/78 76/76/76 
f 38/38/38 79/79/79 77/77/77 36/36/36 
f 77/77/77 79/79/79 80/80/80 78/78/78 
f 40/40/40 81/81/81 79/79/79 38/38/38 
f 79/79/79 81/81/81 82/82/82 80/80/80 
f 42/42/42 83/83/83 81/81/81 40/40/40 
f 81/81/81 83/83/83 84/84/84 82/82/82 
f 5/5/5 48/48/48 83/83/83 42/42/42 
f 83/83/83 48/48/48 50/50/50 84/84/84 
f 1/1/1 4/4/4 8/8/8 7/7/7 
f 4/4/4 44/44/44 47/47/47 8/8/8 
f 47/47/47 44/44/44 46/46/46 49/49/49 
f 85/85/85 86/86/86 87/87/87 88/88/88 
f 89/89/89 90/90/90 91/91/91 92/92/92 
f 93/93/93 94/94/94 95/95/95 96/96/96 
f 97/97/97 93/93/93 96/96/96 98/98/98 
f 99/99/99 97/97/97 98/98/98 100/100/100 
f 101/101/101 99/99/99 100/100/100 102/102/102 
f 103/103/103 101/101/101 102/102/102 104/104/104 
f 105/105/105 103/103/103 104/104/104 106/106/106 
f 107/107/107 105/105/105 106/106/106 108/108/108 
f 109/109/109 107/107/107 108/108/108 110/110/110 
f 111/111/111 109/109/109 110/110/110 112/112/112 
f 113/113/113 111/111/111 112/112/112 114/114/114 
f 115/115/115 113/113/113 114/114/114 116/116/116 
f 117/117/117 115/115/115 116/116/116 118/118/118 
f 119/119/119 117/117/117 118/118/118 120/120/120 
f 121/121/121 119/119/119 120/120/120 122/122/122 
f 123/123/123 121/121/121 122/122/122 124/124/124 
f 125/125/125 123/123/123 124/124/124 126/126/126 
f 90/90/90 125/125/125 126/126/126 91/91/91 
f 127/127/127 85/85/85 88/88/88 128/128/128 
f 129/129/129 127/127/127 128/128/128 130/130/130 
f 131/131/131 132/132/132 92/92/92 91/91/91 
f 133/133/133 132/132/132 131/131/131 134/134/134 
f 135/135/135 136/136/136 96/96/96 95/95/95 
f 137/137/137 136/136/136 135/135/135 138/138/138 
f 136/136/136 139/139/139 98/98/98 96/96/96 
f 140/140/140 139/139/139 136/136/136 137/137/137 
f 139/139/139 141/141/141 100/100/100 98/98/98 
f 142/142/142 141/141/141 139/139/139 140/140/140 
f 141/141/141 143/143/143 102/102/102 100/100/100 
f 144/144/144 143/143/143 141/141/141 142/142/142 
f 143/143/143 145/145/145 104/104/104 102/102/102 
f 146/146/146 145/145/145 143/143/143 144/144/144 
f 145/145/145 147/147/147 106/106/106 104/104/104 
f 148/148/148 147/147/147 145/145/145 146/146/146 
f 147/147/147 149/149/149 108/108/108 106/106/106 
f 150/150/150 149/149/149 147/147/147 148/148/148 
f 149/149/149 151/151/151 110/110/110 108/108/108 
f 152/152/152 151/151/151 149/149/149 150/150/150 
f 151/151/151 153/153/153 112/112/112 110/110/110 
f 154/154/154 153/153/153 151/151/151 152/152/152 
f 153/153/153 155/155/155 114/114/114 112/112/112 
f 156/156/156 155/155/155 153/153/153 154/154/154 
f 155/155/155 157/157/157 116/116/116 114/114/114 
f 158/158/158 157/157/157 155/155/155 156/156/156 
f 157/157/157 159/159/159 118/118/118 116/116/116 
f 160/160/160 159/159/159 157/157/157 158/158/158 
f 159/159/159 161/161/161 120/120/120 118/118/118 
f 162/162/162 161/161/161 159/159/159 160/160/160 
f 161/161/161 163/163/163 122/122/122 120/120/120 
f 164/164/164 163/163/163 161/161/161 162/162/162 
f 163/163/163 165/165/165 124/124/124 122/122/122 
f 166/166/166 165/165/165 163/163/163 164/164/164 
f 165/165/165 167/167/167 126/126/126 124/124/124 
f 168/168/168 167/167/167 165/165/165 166/166/166 
f 167/167/167 131/131/131 91/91/91 126/126/126 
f 134/134/134 131/131/131 167/167/167 168/168/168 
f 92/92/92 88/88/88 87/87/87 89/89/89 
f 132/132/132 128/128/128 88/88/88 92/92/92 
f 130/130/130 128/128/128 132/132/132 133/133/133 
f 87/169/87 86/170/86 2/171/2 1/172/1 
f 90/173/90 89/174/89 7/175/7 6/176/6 
f 94/177/94 93/178/93 11/179/11 10/180/10 
f 93/178/93 97/181/97 13/182/13 11/179/11 
f 97/181/97 99/183/99 15/184/15 13/182/13 
f 99/183/99 101/185/101 17/186/17 15/184/15 
f 101/185/101 103/187/103 19/188/19 17/186/17 
f 103/187/103 105/189/105 21/190/21 19/188/19 
f 105/189/105 107/191/107 23/192/23 21/190/21 
f 107/191/107 109/193/109 25/194/25 23/192/23 
f 109/193/109 111/195/111 27/196/27 25/194/25 
f 111/195/111 113/197/113 29/198/29 27/196/27 
f 113/197/113 115/199/115 31/200/31 29/198/29 
f 115/199/115 117/201/117 33/202/33 31/200/31 
f 117/201/117 119/203/119 35/204/35 33/202/33 
f 119/203/119 121/205/121 37/206/37 35/204/35 
f 121/205/121 123/207/123 39/208/39 37/206/37 
f 123/207/123 125/209/125 41/210/41 39/208/39 
f 125/209/125 90/173/90 6/176/6 41/210/41 
f 129/170/129 130/169/130 46/172/46 45/171/45 
f 133/174/133 134/173/134 50/176/50 49/175/49 
f 137/178/137 138/177/138 54/180/54 53/179/53 
f 140/181/140 137/178/137 53/179/53 56/182/56 
f 142/183/142 140/181/140 56/182/56 58/184/58 
f 144/185/144 142/183/142 58/184/58 60/186/60 
f 146/187/146 144/185/144 60/186/60 62/188/62 
f 148/189/148 146/187/146 62/188/62 64/190/64 
f 150/191/150 148/189/148 64/190/64 66/192/66 
f 152/193/152 150/191/150 66/192/66 68/194/68 
f 154/195/154 152/193/152 68/194/68 70/196/70 
f 156/197/156 154/195/154 70/196/70 72/198/72 
f 158/199/158 156/197/156 72/198/72 74/200/74 
f 160/201/160 158/199/158 74/200/74 76/202/76 
f 162/203/162 160/201/160 76/202/76 78/204/78 
f 164/205/164 162/203/162 78/204/78 80/206/80 
f 166/207/166 164/205/164 80/206/80 82/208/82 
f 168/209/168 166/207/166 82/208/82 84/210/84 
f 134/173/134 168/209/168 84/210/84 50/176/50 
f 89/174/89 87/169/87 1/172/1 7/175/7 
f 130/169/130 133/174/133 49/175/49 46/172/46 
# 160 polygons

