# 3ds Max Wavefront OBJ Exporter v0.97b - (c)2007 guruware
# File Created: 15.06.2017 03:29:50

#
# object SM_Beam
#

v  -2.9003 -139.1682 -2.9003
v  2.9003 -139.1682 2.9003
v  2.9003 0.0000 2.9003
v  -2.9003 0.0000 -2.9003
v  -4.1016 -139.1682 0.0000
v  4.1016 -139.1682 -0.0000
v  4.1016 0.0000 -0.0000
v  -4.1016 0.0000 0.0000
v  -0.0000 -139.1682 -4.1016
v  0.0000 -139.1682 4.1016
v  0.0000 0.0000 4.1016
v  -0.0000 0.0000 -4.1016
v  2.9003 -139.1682 -2.9003
v  -2.9003 -139.1682 2.9003
v  -2.9003 0.0000 2.9003
v  2.9003 0.0000 -2.9003
# 16 vertices

vn -0.7071 0.0000 0.7071
vn 0.0000 0.0000 1.0000
vn -1.0000 0.0000 0.0000
vn -0.7071 0.0000 -0.7071
# 4 vertex normals

vt -0.0000 0.5571 0.0000
vt -0.0000 0.4429 0.0000
vt 1.0000 0.4429 0.0000
vt 1.0000 0.5571 0.0000
# 4 texture coords

g SM_Beam
s 1
f 1/1/1 2/2/1 3/3/1 4/4/1 
f 5/1/2 6/2/2 7/3/2 8/4/2 
f 9/1/3 10/2/3 11/3/3 12/4/3 
f 13/1/4 14/2/4 15/3/4 16/4/4 
# 4 polygons

