# 3ds Max Wavefront OBJ Exporter v0.97b - (c)2007 guruware
# File Created: 12.06.2017 22:53:12

#
# object SM_GunFire_1
#

v  16.8867 -7.1694 14.3387
v  16.8867 -14.3387 14.3387
v  8.6944 -6.5866 6.5866
v  16.8867 -14.3387 7.1694
v  16.8867 -14.3387 -0.0000
v  8.6944 -6.5866 -0.0000
v  16.8867 -14.3387 -7.1694
v  8.6944 -6.5866 -6.5866
v  16.8867 -14.3387 -14.3387
v  16.8867 -7.1694 -14.3387
v  8.6944 -0.0000 6.5866
v  16.8867 0.0000 14.3387
v  0.0000 0.0000 -0.0000
v  8.6944 -0.0000 -6.5866
v  16.8867 0.0000 -14.3387
v  8.6944 6.5866 6.5866
v  16.8867 7.1694 14.3387
v  8.6944 6.5866 -0.0000
v  8.6944 6.5866 -6.5866
v  16.8867 7.1694 -14.3387
v  16.8867 14.3387 14.3387
v  16.8867 14.3387 7.1694
v  16.8867 14.3387 -0.0000
v  16.8867 14.3387 -7.1694
v  16.8867 14.3387 -14.3387
v  0.0377 -0.0250 -4.5520
v  22.9335 -0.0250 -12.0276
v  22.9335 -0.0250 12.0899
v  0.0377 -0.0250 4.6143
v  0.0377 -4.3230 0.0312
v  22.9335 -9.0736 0.0312
v  22.9335 9.0237 0.0312
v  0.0377 4.2731 0.0312
# 33 vertices

vn 0.6873 0.0000 -0.7264
vn 0.8011 0.4233 -0.4233
vn 0.7801 0.4424 -0.4424
vn 0.6873 0.7264 0.0000
vn 0.6466 0.7629 0.0000
vn 0.7801 0.4424 0.4424
vn 0.8011 0.4233 0.4233
vn 0.6873 0.0000 0.7264
vn 0.6466 0.0000 -0.7629
vn 1.0000 -0.0000 0.0000
vn 0.6466 0.0000 0.7629
vn 0.7801 -0.4424 -0.4424
vn 0.6466 -0.7629 0.0000
vn 0.7801 -0.4424 0.4424
vn 0.8011 -0.4233 -0.4233
vn 0.6873 -0.7264 0.0000
vn 0.8011 -0.4233 0.4233
vn -0.0000 -1.0000 0.0000
vn 0.0000 -1.0000 0.0000
vn 0.0000 0.0000 1.0000
# 20 vertex normals

vt 0.4954 0.9908 0.0000
vt 0.6566 0.9908 0.0000
vt 0.4897 0.8238 0.0000
vt 0.6566 0.8295 0.0000
vt 0.6566 0.6683 0.0000
vt 0.4897 0.6683 0.0000
vt 0.6566 0.5070 0.0000
vt 0.4897 0.5127 0.0000
vt 0.6566 0.3458 0.0000
vt 0.4954 0.3458 0.0000
vt 0.3341 0.8238 0.0000
vt 0.3341 0.9908 0.0000
vt 0.3341 0.6683 0.0000
vt 0.3341 0.5127 0.0000
vt 0.3341 0.3458 0.0000
vt 0.1786 0.8238 0.0000
vt 0.1729 0.9908 0.0000
vt 0.1786 0.6683 0.0000
vt 0.1786 0.5127 0.0000
vt 0.1729 0.3458 0.0000
vt 0.0116 0.9908 0.0000
vt 0.0116 0.8295 0.0000
vt 0.0116 0.6683 0.0000
vt 0.0116 0.5070 0.0000
vt 0.0116 0.3458 0.0000
vt 0.0123 0.1084 0.0000
vt 0.6555 0.0145 0.0000
vt 0.6555 0.3217 0.0000
vt 0.0123 0.2279 0.0000
vt 0.0126 0.1072 0.0000
vt 0.6554 0.0143 0.0000
vt 0.6554 0.3209 0.0000
vt 0.0126 0.2286 0.0000
# 33 texture coords

g SM_GunFire_1
s 1
f 1/1/1 2/2/2 3/3/3 
f 4/4/4 5/5/4 6/6/5 3/3/3 
f 5/5/4 7/7/4 8/8/6 6/6/5 
f 8/8/6 9/9/7 10/10/8 
f 1/1/1 3/3/3 11/11/9 12/12/1 
f 11/11/9 3/3/3 13/13/10 
f 13/13/10 8/8/6 14/14/11 
f 8/8/6 10/10/8 15/15/8 14/14/11 
f 12/12/1 11/11/9 16/16/12 17/17/1 
f 16/16/12 13/13/10 18/18/13 
f 18/18/13 13/13/10 19/19/14 
f 14/14/11 15/15/8 20/20/8 19/19/14 
f 21/21/15 16/16/12 22/22/16 
f 16/16/12 18/18/13 23/23/16 22/22/16 
f 18/18/13 19/19/14 24/24/16 23/23/16 
f 24/24/16 19/19/14 25/25/17 
f 16/16/12 11/11/9 13/13/10 
f 21/21/15 17/17/1 16/16/12 
f 8/8/6 7/7/4 9/9/7 
f 13/13/10 6/6/5 8/8/6 
f 2/2/2 4/4/4 3/3/3 
f 3/3/3 6/6/5 13/13/10 
f 13/13/10 14/14/11 19/19/14 
f 19/19/14 20/20/8 25/25/17 
f 26/26/18 27/27/19 28/28/19 29/29/18 
f 30/30/20 31/31/20 32/32/20 33/33/20 
# 10 polygons - 16 triangles

