# 3ds Max Wavefront OBJ Exporter v0.97b - (c)2007 guruware
# File Created: 15.06.2017 03:29:41

#
# object GeoSphere001
#

v  0.0000 -0.5082 10.0000
v  2.7327 -0.5082 9.6194
v  0.8444 2.5989 9.6194
v  5.2573 -0.5082 8.5065
v  3.6180 2.6287 8.9443
v  1.6246 5.0000 8.5065
v  7.3818 -0.5082 6.7461
v  6.1786 2.6468 7.4040
v  4.4265 5.0583 7.4040
v  2.2811 7.0205 6.7461
v  8.9443 -0.5082 4.4721
v  8.2262 2.5989 5.0572
v  6.8819 5.0000 5.2573
v  5.0138 7.0205 5.0572
v  2.7639 8.5065 4.4721
v  -2.2108 1.5444 9.6194
v  -1.3820 4.2533 8.9443
v  -4.2533 3.0902 8.5065
v  -0.6079 6.6941 7.4040
v  -3.4429 5.7730 7.4040
v  -5.9720 4.3389 6.7461
v  0.0703 8.6267 5.0572
v  -2.6287 8.0902 5.2573
v  -5.1275 6.9378 5.0572
v  -7.2361 5.2573 4.4721
v  -2.2108 -3.0206 9.6194
v  -4.4721 -0.5082 8.9443
v  -4.2533 -5.7870 8.5065
v  -6.5544 1.4111 7.4040
v  -6.5544 -2.8233 7.4040
v  -5.9720 -8.4789 6.7461
v  -8.1827 2.7327 5.0572
v  -8.5065 -0.5082 5.2573
v  -8.1827 -5.0792 5.0572
v  -7.2361 -10.6924 4.4721
v  0.8444 -4.8213 9.6194
v  -1.3820 -8.2830 8.9443
v  1.6246 -10.0511 8.5065
v  -3.4429 -12.0296 7.4040
v  -0.6079 -14.6027 7.4040
v  2.2811 -15.5756 6.7461
v  -5.1275 -15.3259 5.0572
v  -2.6287 -19.0200 5.2573
v  0.0703 -20.9170 5.0572
v  2.7639 -20.4809 4.4721
v  3.6180 -4.8783 8.9443
v  4.4265 -10.1951 7.4040
v  6.1786 -4.9132 7.4040
v  5.0138 -15.5756 5.0572
v  6.8819 -10.0511 5.2573
v  8.2262 -4.8213 5.0572
v  9.5925 -3.0206 2.3245
v  9.5925 1.5444 2.3245
v  9.5106 -5.7870 0.0000
v  10.0000 -0.5082 0.0000
v  9.5106 3.0902 0.0000
v  8.7046 -8.4789 -2.3245
v  9.5535 -2.8233 -2.5512
v  9.5535 1.4111 -2.5512
v  8.7046 4.3389 -2.3245
v  7.2361 -10.6924 -4.4721
v  8.1827 -5.0792 -5.0572
v  8.5065 -0.5082 -5.2573
v  8.1827 2.7327 -5.0572
v  7.2361 5.2573 -4.4721
v  4.4919 8.6267 2.3245
v  1.4366 9.6194 2.3245
v  5.8779 8.0902 0.0000
v  3.0902 9.5106 0.0000
v  -0.0000 10.0000 0.0000
v  6.8164 6.9378 -2.3245
v  4.3697 8.6254 -2.5512
v  1.5347 9.5465 -2.5512
v  -1.4366 9.6194 -2.3245
v  5.1275 6.9378 -5.0572
v  2.6287 8.0902 -5.2573
v  -0.0703 8.6267 -5.0572
v  -2.7639 8.5065 -4.4721
v  -6.8164 6.9378 2.3245
v  -8.7046 4.3389 2.3245
v  -5.8779 8.0902 0.0000
v  -8.0902 5.8779 0.0000
v  -9.5106 3.0902 0.0000
v  -4.4919 8.6267 -2.3245
v  -6.8529 6.8212 -2.5512
v  -8.6050 4.4096 -2.5512
v  -9.5925 1.5444 -2.3245
v  -5.0138 7.0205 -5.0572
v  -6.8819 5.0000 -5.2573
v  -8.2262 2.5989 -5.0572
v  -8.9443 -0.5082 -4.4721
v  -8.7046 -8.4789 2.3245
v  -6.8164 -15.3259 2.3245
v  -9.5106 -5.7870 0.0000
v  -8.0902 -12.3103 0.0000
v  -5.8779 -19.0200 0.0000
v  -9.5925 -3.0206 -2.3245
v  -8.6050 -8.6421 -2.5512
v  -6.8529 -14.9775 -2.5512
v  -4.4919 -20.9170 -2.3245
v  -8.2262 -4.8213 -5.0572
v  -6.8819 -10.0511 -5.2573
v  -5.0138 -15.5756 -5.0572
v  -2.7639 -20.4809 -4.4721
v  1.4366 -24.8255 2.3245
v  4.4919 -20.9170 2.3245
v  0.0000 -26.5433 0.0000
v  3.0902 -24.3647 0.0000
v  5.8779 -19.0200 0.0000
v  -1.4366 -24.8255 -2.3245
v  1.5347 -24.5158 -2.5512
v  4.3697 -20.9122 -2.5512
v  6.8164 -15.3259 -2.3245
v  -0.0703 -20.9170 -5.0572
v  2.6287 -19.0200 -5.2573
v  5.1275 -15.3259 -5.0572
v  8.0902 5.8779 0.0000
v  6.8529 6.8212 2.5512
v  8.6050 4.4096 2.5512
v  -3.0902 9.5106 0.0000
v  -4.3697 8.6254 2.5512
v  -1.5347 9.5465 2.5512
v  -10.0000 -0.5082 0.0000
v  -9.5535 -2.8233 2.5512
v  -9.5535 1.4111 2.5512
v  -3.0902 -24.3647 0.0000
v  -1.5347 -24.5158 2.5512
v  -4.3697 -20.9122 2.5512
v  8.0902 -12.3103 0.0000
v  8.6050 -8.6421 2.5512
v  6.8529 -14.9775 2.5512
v  0.0000 -0.5082 -10.0000
v  -0.8444 2.5989 -9.6194
v  2.2108 1.5444 -9.6194
v  -1.6246 5.0000 -8.5065
v  1.3820 4.2533 -8.9443
v  4.2533 3.0902 -8.5065
v  -2.2811 7.0205 -6.7461
v  0.6079 6.6941 -7.4040
v  3.4429 5.7730 -7.4040
v  5.9720 4.3389 -6.7461
v  -2.7327 -0.5082 -9.6194
v  -5.2573 -0.5082 -8.5065
v  -3.6180 2.6287 -8.9443
v  -7.3818 -0.5082 -6.7461
v  -6.1786 2.6468 -7.4040
v  -4.4265 5.0583 -7.4040
v  -0.8444 -4.8213 -9.6194
v  -1.6246 -10.0511 -8.5065
v  -3.6180 -4.8783 -8.9443
v  -2.2811 -15.5756 -6.7461
v  -4.4265 -10.1951 -7.4040
v  -6.1786 -4.9132 -7.4040
v  2.2108 -3.0206 -9.6194
v  4.2533 -5.7870 -8.5065
v  1.3820 -8.2830 -8.9443
v  5.9720 -8.4789 -6.7461
v  3.4429 -12.0296 -7.4040
v  0.6079 -14.6027 -7.4040
v  4.4721 -0.5082 -8.9443
v  6.5544 1.4111 -7.4040
v  6.5544 -2.8233 -7.4040
# 162 vertices

vn -0.0009 0.0129 0.9999
vn 0.2723 0.0153 0.9621
vn 0.0842 0.2482 0.9650
vn 0.5253 0.0159 0.8508
vn 0.3648 0.2538 0.8958
vn 0.1622 0.4993 0.8511
vn 0.7387 0.0162 0.6738
vn 0.6216 0.2575 0.7398
vn 0.4464 0.5066 0.7376
vn 0.2285 0.7032 0.6732
vn 0.8947 0.0129 0.4464
vn 0.8240 0.2516 0.5076
vn 0.6882 0.5000 0.5257
vn 0.5027 0.7009 0.5060
vn 0.2764 0.8507 0.4472
vn -0.2206 0.1533 0.9632
vn -0.1395 0.4258 0.8940
vn -0.4262 0.3005 0.8532
vn -0.0634 0.6722 0.7376
vn -0.3438 0.5811 0.7376
vn -0.5989 0.4322 0.6741
vn 0.0053 0.8625 0.5060
vn -0.2629 0.8090 0.5257
vn -0.5112 0.6947 0.5060
vn -0.7236 0.5257 0.4472
vn -0.2205 -0.0889 0.9713
vn -0.4487 0.0149 0.8936
vn -0.4403 -0.1577 0.8839
vn -0.6583 0.1416 0.7393
vn -0.6634 -0.0803 0.7440
vn -0.6500 -0.2054 0.7317
vn -0.8207 0.2628 0.5072
vn -0.8506 0.0129 0.5257
vn -0.8420 -0.1421 0.5204
vn -0.8255 -0.2413 0.5102
vn 0.0832 -0.1346 0.9874
vn -0.1504 -0.2049 0.9671
vn 0.1808 -0.2313 0.9559
vn -0.4086 -0.2643 0.8736
vn -0.0817 -0.3063 0.9484
vn 0.3068 -0.3204 0.8962
vn -0.6788 -0.3165 0.6626
vn -0.4178 -0.3947 0.8183
vn 0.0072 -0.4565 0.8897
vn 0.4735 -0.4345 0.7661
vn 0.3740 -0.1370 0.9173
vn 0.5041 -0.2339 0.8313
vn 0.6368 -0.1388 0.7584
vn 0.6671 -0.3189 0.6733
vn 0.7731 -0.2322 0.5902
vn 0.8441 -0.1371 0.5183
vn 0.9672 -0.0896 0.2376
vn 0.9596 0.1553 0.2346
vn 0.9876 -0.1570 0.0001
vn 0.9999 0.0149 -0.0017
vn 0.9536 0.3010 -0.0002
vn 0.9450 -0.2042 -0.2553
vn 0.9621 -0.0803 -0.2606
vn 0.9557 0.1416 -0.2582
vn 0.8714 0.4303 -0.2356
vn 0.8255 -0.2413 -0.5102
vn 0.8420 -0.1421 -0.5204
vn 0.8506 0.0129 -0.5257
vn 0.8207 0.2628 -0.5072
vn 0.7236 0.5257 -0.4472
vn 0.4497 0.8616 0.2353
vn 0.1426 0.9614 0.2353
vn 0.5878 0.8090 -0.0000
vn 0.3090 0.9511 -0.0027
vn -0.0000 1.0000 0.0000
vn 0.6805 0.6940 -0.2353
vn 0.4351 0.8622 -0.2595
vn 0.1547 0.9533 -0.2595
vn -0.1426 0.9614 -0.2353
vn 0.5112 0.6947 -0.5060
vn 0.2629 0.8090 -0.5257
vn -0.0053 0.8625 -0.5060
vn -0.2764 0.8507 -0.4472
vn -0.6805 0.6940 0.2353
vn -0.8714 0.4303 0.2356
vn -0.5878 0.8090 -0.0000
vn -0.8090 0.5878 -0.0027
vn -0.9536 0.3010 0.0002
vn -0.4497 0.8616 -0.2353
vn -0.6855 0.6803 -0.2595
vn -0.8597 0.4399 -0.2595
vn -0.9596 0.1553 -0.2346
vn -0.5027 0.7009 -0.5060
vn -0.6882 0.5000 -0.5257
vn -0.8240 0.2516 -0.5076
vn -0.8947 0.0129 -0.4464
vn -0.9450 -0.2042 0.2553
vn -0.8945 -0.3168 0.3155
vn -0.9876 -0.1570 -0.0001
vn -0.9638 -0.2666 -0.0032
vn -0.9196 -0.3929 0.0039
vn -0.9672 -0.0896 -0.2376
vn -0.9356 -0.2108 -0.2831
vn -0.8898 -0.3092 -0.3357
vn -0.7919 -0.4526 -0.4100
vn -0.8441 -0.1371 -0.5183
vn -0.7731 -0.2322 -0.5902
vn -0.6671 -0.3189 -0.6733
vn -0.4735 -0.4345 -0.7661
vn 0.3644 -0.7106 0.6019
vn 0.7919 -0.4526 0.4100
vn 0.0000 -1.0000 -0.0000
vn 0.7451 -0.6669 -0.0070
vn 0.9196 -0.3929 -0.0039
vn -0.3644 -0.7106 -0.6019
vn 0.3774 -0.6803 -0.6283
vn 0.7660 -0.4527 -0.4564
vn 0.8945 -0.3168 -0.3155
vn -0.0072 -0.4565 -0.8897
vn 0.4178 -0.3947 -0.8183
vn 0.6788 -0.3165 -0.6626
vn 0.8090 0.5878 0.0027
vn 0.6855 0.6803 0.2595
vn 0.8597 0.4399 0.2595
vn -0.3090 0.9511 0.0027
vn -0.4351 0.8622 0.2595
vn -0.1547 0.9533 0.2595
vn -0.9999 0.0149 0.0017
vn -0.9621 -0.0803 0.2606
vn -0.9557 0.1416 0.2582
vn -0.7451 -0.6669 0.0070
vn -0.3774 -0.6803 0.6283
vn -0.7660 -0.4527 0.4564
vn 0.9638 -0.2666 0.0032
vn 0.9356 -0.2108 0.2831
vn 0.8898 -0.3092 0.3357
vn 0.0009 0.0129 -0.9999
vn -0.0842 0.2482 -0.9650
vn 0.2206 0.1533 -0.9632
vn -0.1622 0.4993 -0.8511
vn 0.1395 0.4258 -0.8940
vn 0.4262 0.3005 -0.8532
vn -0.2285 0.7032 -0.6732
vn 0.0634 0.6722 -0.7376
vn 0.3438 0.5811 -0.7376
vn 0.5989 0.4322 -0.6741
vn -0.2723 0.0153 -0.9621
vn -0.5253 0.0159 -0.8508
vn -0.3648 0.2538 -0.8958
vn -0.7387 0.0162 -0.6738
vn -0.6216 0.2575 -0.7398
vn -0.4464 0.5066 -0.7376
vn -0.0832 -0.1346 -0.9874
vn -0.1808 -0.2313 -0.9559
vn -0.3740 -0.1370 -0.9173
vn -0.3068 -0.3204 -0.8962
vn -0.5041 -0.2339 -0.8313
vn -0.6368 -0.1388 -0.7584
vn 0.2205 -0.0889 -0.9713
vn 0.4403 -0.1577 -0.8839
vn 0.1504 -0.2049 -0.9671
vn 0.6500 -0.2054 -0.7317
vn 0.4086 -0.2643 -0.8736
vn 0.0817 -0.3063 -0.9484
vn 0.4487 0.0149 -0.8936
vn 0.6583 0.1416 -0.7393
vn 0.6634 -0.0803 -0.7440
# 162 vertex normals

vt 0.3488 0.4541 0.0000
vt 0.3464 0.5135 0.0000
vt 0.2803 0.4697 0.0000
vt 0.3429 0.5714 0.0000
vt 0.2768 0.5291 0.0000
vt 0.2261 0.4847 0.0000
vt 0.3379 0.6296 0.0000
vt 0.2690 0.5917 0.0000
vt 0.2177 0.5489 0.0000
vt 0.1716 0.4995 0.0000
vt 0.3312 0.6899 0.0000
vt 0.2573 0.6581 0.0000
vt 0.2021 0.6187 0.0000
vt 0.1546 0.5706 0.0000
vt 0.1147 0.5149 0.0000
vt 0.3045 0.4053 0.0000
vt 0.2460 0.4211 0.0000
vt 0.2695 0.3593 0.0000
vt 0.1848 0.4349 0.0000
vt 0.2061 0.3731 0.0000
vt 0.2352 0.3136 0.0000
vt 0.1190 0.4474 0.0000
vt 0.1351 0.3830 0.0000
vt 0.1623 0.3226 0.0000
vt 0.1993 0.2663 0.0000
vt 0.4061 0.4071 0.0000
vt 0.3490 0.3564 0.0000
vt 0.4694 0.3598 0.0000
vt 0.3028 0.3036 0.0000
vt 0.4000 0.3015 0.0000
vt 0.5342 0.3121 0.0000
vt 0.2640 0.2469 0.0000
vt 0.3427 0.2378 0.0000
vt 0.4547 0.2417 0.0000
vt 0.5936 0.2629 0.0000
vt 0.4457 0.4759 0.0000
vt 0.5255 0.4278 0.0000
vt 0.5658 0.4978 0.0000
vt 0.6156 0.3784 0.0000
vt 0.6738 0.4473 0.0000
vt 0.6971 0.5176 0.0000
vt 0.7023 0.3281 0.0000
vt 0.7856 0.3978 0.0000
vt 0.8277 0.4646 0.0000
vt 0.8204 0.5327 0.0000
vt 0.4444 0.5386 0.0000
vt 0.5696 0.5672 0.0000
vt 0.4439 0.6045 0.0000
vt 0.7041 0.5952 0.0000
vt 0.5702 0.6443 0.0000
vt 0.4404 0.6749 0.0000
vt 0.3920 0.7455 0.0000
vt 0.2702 0.7312 0.0000
vt 0.4746 0.7977 0.0000
vt 0.3217 0.7969 0.0000
vt 0.2128 0.7680 0.0000
vt 0.4768 0.1243 0.0000
vt 0.5449 0.1943 0.0000
vt 0.3976 0.1754 0.0000
vt 0.3264 0.1177 0.0000
vt 0.2852 0.1811 0.0000
vt 0.2173 0.1407 0.0000
vt 0.2043 0.2041 0.0000
vt 0.5934 0.2644 0.0000
vt 0.4546 0.2437 0.0000
vt 0.3427 0.2398 0.0000
vt 0.2641 0.2483 0.0000
vt 0.1993 0.2671 0.0000
vt 0.0817 0.5707 0.0000
vt 0.0571 0.4854 0.0000
vt 0.0586 0.6393 0.0000
vt 0.0167 0.5479 0.0000
vt 0.0019 0.4489 0.0000
vt 0.0617 0.2610 0.0000
vt 0.1343 0.2570 0.0000
vt 0.0901 0.3261 0.0000
vt 0.0169 0.3511 0.0000
vt 0.0634 0.4041 0.0000
vt 0.0017 0.4509 0.0000
vt 0.0570 0.4867 0.0000
vt 0.1625 0.3232 0.0000
vt 0.1353 0.3837 0.0000
vt 0.1193 0.4481 0.0000
vt 0.1145 0.5155 0.0000
vt 0.1349 0.2554 0.0000
vt 0.2052 0.2027 0.0000
vt 0.0625 0.2586 0.0000
vt 0.1321 0.1872 0.0000
vt 0.2186 0.1390 0.0000
vt 0.0593 0.6408 0.0000
vt 0.0819 0.5718 0.0000
vt 0.1309 0.6391 0.0000
vt 0.1264 0.7164 0.0000
vt 0.1940 0.6939 0.0000
vt 0.2129 0.7697 0.0000
vt 0.2699 0.7328 0.0000
vt 0.1543 0.5711 0.0000
vt 0.2019 0.6193 0.0000
vt 0.2568 0.6589 0.0000
vt 0.3305 0.6915 0.0000
vt 0.5458 0.1925 0.0000
vt 0.7170 0.2539 0.0000
vt 0.4781 0.1224 0.0000
vt 0.6544 0.1682 0.0000
vt 0.8263 0.2493 0.0000
vt 0.4749 0.7995 0.0000
vt 0.3917 0.7476 0.0000
vt 0.5411 0.7267 0.0000
vt 0.6567 0.7575 0.0000
vt 0.7038 0.6737 0.0000
vt 0.8307 0.6692 0.0000
vt 0.8472 0.5923 0.0000
vt 0.4398 0.6777 0.0000
vt 0.5699 0.6468 0.0000
vt 0.7037 0.5968 0.0000
vt 0.8202 0.5349 0.0000
vt 0.9328 0.4976 0.0000
vt 0.8470 0.5911 0.0000
vt 0.9997 0.4530 0.0000
vt 0.9534 0.5550 0.0000
vt 0.8301 0.6681 0.0000
vt 0.9988 0.4524 0.0000
vt 0.9322 0.4976 0.0000
vt 0.9254 0.4236 0.0000
vt 0.9534 0.3525 0.0000
vt 0.8475 0.3391 0.0000
vt 0.8254 0.2494 0.0000
vt 0.7164 0.2545 0.0000
vt 0.8272 0.4666 0.0000
vt 0.7853 0.3993 0.0000
vt 0.7022 0.3295 0.0000
vt 0.1307 0.1892 0.0000
vt 0.1303 0.6380 0.0000
vt 0.1261 0.7151 0.0000
vt 0.1938 0.6925 0.0000
vt 0.0170 0.5500 0.0000
vt 0.0903 0.3241 0.0000
vt 0.0172 0.3489 0.0000
vt 0.0636 0.4023 0.0000
vt 0.3220 0.7987 0.0000
vt 0.3987 0.1732 0.0000
vt 0.3275 0.1159 0.0000
vt 0.2862 0.1794 0.0000
vt 0.9536 0.5549 0.0000
vt 0.9264 0.4233 0.0000
vt 0.9542 0.3526 0.0000
vt 0.8480 0.3389 0.0000
vt 0.6530 0.1693 0.0000
vt 0.5409 0.7249 0.0000
vt 0.6562 0.7558 0.0000
vt 0.7034 0.6721 0.0000
vt 0.3487 0.4554 0.0000
vt 0.2802 0.4703 0.0000
vt 0.3047 0.4062 0.0000
vt 0.2260 0.4848 0.0000
vt 0.2461 0.4214 0.0000
vt 0.2701 0.3600 0.0000
vt 0.1715 0.4999 0.0000
vt 0.1850 0.4348 0.0000
vt 0.2066 0.3731 0.0000
vt 0.2356 0.3144 0.0000
vt 0.3461 0.5149 0.0000
vt 0.3423 0.5729 0.0000
vt 0.2764 0.5297 0.0000
vt 0.3374 0.6313 0.0000
vt 0.2683 0.5923 0.0000
vt 0.2172 0.5489 0.0000
vt 0.4455 0.4782 0.0000
vt 0.5654 0.5006 0.0000
vt 0.4438 0.5410 0.0000
vt 0.6966 0.5198 0.0000
vt 0.5688 0.5702 0.0000
vt 0.4431 0.6073 0.0000
vt 0.4063 0.4090 0.0000
vt 0.4698 0.3622 0.0000
vt 0.5255 0.4304 0.0000
vt 0.5345 0.3142 0.0000
vt 0.6158 0.3807 0.0000
vt 0.6735 0.4499 0.0000
vt 0.3496 0.3580 0.0000
vt 0.3036 0.3050 0.0000
vt 0.4007 0.3036 0.0000
# 182 texture coords

g GeoSphere001
s 1
f 1/1/1 2/2/2 3/3/3 
f 2/2/2 4/4/4 5/5/5 
f 2/2/2 5/5/5 3/3/3 
f 3/3/3 5/5/5 6/6/6 
f 4/4/4 7/7/7 8/8/8 
f 4/4/4 8/8/8 5/5/5 
f 5/5/5 8/8/8 9/9/9 
f 5/5/5 9/9/9 6/6/6 
f 6/6/6 9/9/9 10/10/10 
f 7/7/7 11/11/11 12/12/12 
f 7/7/7 12/12/12 8/8/8 
f 8/8/8 12/12/12 13/13/13 
f 8/8/8 13/13/13 9/9/9 
f 9/9/9 13/13/13 14/14/14 
f 9/9/9 14/14/14 10/10/10 
f 10/10/10 14/14/14 15/15/15 
f 1/1/1 3/3/3 16/16/16 
f 3/3/3 6/6/6 17/17/17 
f 3/3/3 17/17/17 16/16/16 
f 16/16/16 17/17/17 18/18/18 
f 6/6/6 10/10/10 19/19/19 
f 6/6/6 19/19/19 17/17/17 
f 17/17/17 19/19/19 20/20/20 
f 17/17/17 20/20/20 18/18/18 
f 18/18/18 20/20/20 21/21/21 
f 10/10/10 15/15/15 22/22/22 
f 10/10/10 22/22/22 19/19/19 
f 19/19/19 22/22/22 23/23/23 
f 19/19/19 23/23/23 20/20/20 
f 20/20/20 23/23/23 24/24/24 
f 20/20/20 24/24/24 21/21/21 
f 21/21/21 24/24/24 25/25/25 
f 1/1/1 16/16/16 26/26/26 
f 16/16/16 18/18/18 27/27/27 
f 16/16/16 27/27/27 26/26/26 
f 26/26/26 27/27/27 28/28/28 
f 18/18/18 21/21/21 29/29/29 
f 18/18/18 29/29/29 27/27/27 
f 27/27/27 29/29/29 30/30/30 
f 27/27/27 30/30/30 28/28/28 
f 28/28/28 30/30/30 31/31/31 
f 21/21/21 25/25/25 32/32/32 
f 21/21/21 32/32/32 29/29/29 
f 29/29/29 32/32/32 33/33/33 
f 29/29/29 33/33/33 30/30/30 
f 30/30/30 33/33/33 34/34/34 
f 30/30/30 34/34/34 31/31/31 
f 31/31/31 34/34/34 35/35/35 
f 1/1/1 26/26/26 36/36/36 
f 26/26/26 28/28/28 37/37/37 
f 26/26/26 37/37/37 36/36/36 
f 36/36/36 37/37/37 38/38/38 
f 28/28/28 31/31/31 39/39/39 
f 28/28/28 39/39/39 37/37/37 
f 37/37/37 39/39/39 40/40/40 
f 37/37/37 40/40/40 38/38/38 
f 38/38/38 40/40/40 41/41/41 
f 31/31/31 35/35/35 42/42/42 
f 31/31/31 42/42/42 39/39/39 
f 39/39/39 42/42/42 43/43/43 
f 39/39/39 43/43/43 40/40/40 
f 40/40/40 43/43/43 44/44/44 
f 40/40/40 44/44/44 41/41/41 
f 41/41/41 44/44/44 45/45/45 
f 1/1/1 36/36/36 2/2/2 
f 36/36/36 38/38/38 46/46/46 
f 36/36/36 46/46/46 2/2/2 
f 2/2/2 46/46/46 4/4/4 
f 38/38/38 41/41/41 47/47/47 
f 38/38/38 47/47/47 46/46/46 
f 46/46/46 47/47/47 48/48/48 
f 46/46/46 48/48/48 4/4/4 
f 4/4/4 48/48/48 7/7/7 
f 41/41/41 45/45/45 49/49/49 
f 41/41/41 49/49/49 47/47/47 
f 47/47/47 49/49/49 50/50/50 
f 47/47/47 50/50/50 48/48/48 
f 48/48/48 50/50/50 51/51/51 
f 48/48/48 51/51/51 7/7/7 
f 7/7/7 51/51/51 11/11/11 
f 11/11/11 52/52/52 53/53/53 
f 52/52/52 54/54/54 55/55/55 
f 52/52/52 55/55/55 53/53/53 
f 53/53/53 55/55/55 56/56/56 
f 54/57/54 57/58/57 58/59/58 
f 54/57/54 58/59/58 55/60/55 
f 55/60/55 58/59/58 59/61/59 
f 55/60/55 59/61/59 56/62/56 
f 56/62/56 59/61/59 60/63/60 
f 57/58/57 61/64/61 62/65/62 
f 57/58/57 62/65/62 58/59/58 
f 58/59/58 62/65/62 63/66/63 
f 58/59/58 63/66/63 59/61/59 
f 59/61/59 63/66/63 64/67/64 
f 59/61/59 64/67/64 60/63/60 
f 60/63/60 64/67/64 65/68/65 
f 15/15/15 66/69/66 67/70/67 
f 66/69/66 68/71/68 69/72/69 
f 66/69/66 69/72/69 67/70/67 
f 67/70/67 69/72/69 70/73/70 
f 68/74/68 71/75/71 72/76/72 
f 68/74/68 72/76/72 69/77/69 
f 69/77/69 72/76/72 73/78/73 
f 69/77/69 73/78/73 70/79/70 
f 70/79/70 73/78/73 74/80/74 
f 71/75/71 65/68/65 75/81/75 
f 71/75/71 75/81/75 72/76/72 
f 72/76/72 75/81/75 76/82/76 
f 72/76/72 76/82/76 73/78/73 
f 73/78/73 76/82/76 77/83/77 
f 73/78/73 77/83/77 74/80/74 
f 74/80/74 77/83/77 78/84/78 
f 25/25/25 79/85/79 80/86/80 
f 79/85/79 81/87/81 82/88/82 
f 79/85/79 82/88/82 80/86/80 
f 80/86/80 82/88/82 83/89/83 
f 81/90/81 84/91/84 85/92/85 
f 81/90/81 85/92/85 82/93/82 
f 82/93/82 85/92/85 86/94/86 
f 82/93/82 86/94/86 83/95/83 
f 83/95/83 86/94/86 87/96/87 
f 84/91/84 78/84/78 88/97/88 
f 84/91/84 88/97/88 85/92/85 
f 85/92/85 88/97/88 89/98/89 
f 85/92/85 89/98/89 86/94/86 
f 86/94/86 89/98/89 90/99/90 
f 86/94/86 90/99/90 87/96/87 
f 87/96/87 90/99/90 91/100/91 
f 35/35/35 92/101/92 93/102/93 
f 92/101/92 94/103/94 95/104/95 
f 92/101/92 95/104/95 93/102/93 
f 93/102/93 95/104/95 96/105/96 
f 94/106/94 97/107/97 98/108/98 
f 94/106/94 98/108/98 95/109/95 
f 95/109/95 98/108/98 99/110/99 
f 95/109/95 99/110/99 96/111/96 
f 96/111/96 99/110/99 100/112/100 
f 97/107/97 91/100/91 101/113/101 
f 97/107/97 101/113/101 98/108/98 
f 98/108/98 101/113/101 102/114/102 
f 98/108/98 102/114/102 99/110/99 
f 99/110/99 102/114/102 103/115/103 
f 99/110/99 103/115/103 100/112/100 
f 100/112/100 103/115/103 104/116/104 
f 45/45/45 105/117/105 106/118/106 
f 105/117/105 107/119/107 108/120/108 
f 105/117/105 108/120/108 106/118/106 
f 106/118/106 108/120/108 109/121/109 
f 107/122/107 110/123/110 111/124/111 
f 107/122/107 111/124/111 108/125/108 
f 108/125/108 111/124/111 112/126/112 
f 108/125/108 112/126/112 109/127/109 
f 109/127/109 112/126/112 113/128/113 
f 110/123/110 104/116/104 114/129/114 
f 110/123/110 114/129/114 111/124/111 
f 111/124/111 114/129/114 115/130/115 
f 111/124/111 115/130/115 112/126/112 
f 112/126/112 115/130/115 116/131/116 
f 112/126/112 116/131/116 113/128/113 
f 113/128/113 116/131/116 61/64/61 
f 65/68/65 71/75/71 60/63/60 
f 71/75/71 68/74/68 117/132/117 
f 71/75/71 117/132/117 60/63/60 
f 60/63/60 117/132/117 56/62/56 
f 68/71/68 66/69/66 118/133/118 
f 68/71/68 118/133/118 117/134/117 
f 117/134/117 118/133/118 119/135/119 
f 117/134/117 119/135/119 56/56/56 
f 56/56/56 119/135/119 53/53/53 
f 66/69/66 15/15/15 14/14/14 
f 66/69/66 14/14/14 118/133/118 
f 118/133/118 14/14/14 13/13/13 
f 118/133/118 13/13/13 119/135/119 
f 119/135/119 13/13/13 12/12/12 
f 119/135/119 12/12/12 53/53/53 
f 53/53/53 12/12/12 11/11/11 
f 78/84/78 84/91/84 74/80/74 
f 84/91/84 81/90/81 120/136/120 
f 84/91/84 120/136/120 74/80/74 
f 74/80/74 120/136/120 70/79/70 
f 81/87/81 79/85/79 121/137/121 
f 81/87/81 121/137/121 120/138/120 
f 120/138/120 121/137/121 122/139/122 
f 120/138/120 122/139/122 70/73/70 
f 70/73/70 122/139/122 67/70/67 
f 79/85/79 25/25/25 24/24/24 
f 79/85/79 24/24/24 121/137/121 
f 121/137/121 24/24/24 23/23/23 
f 121/137/121 23/23/23 122/139/122 
f 122/139/122 23/23/23 22/22/22 
f 122/139/122 22/22/22 67/70/67 
f 67/70/67 22/22/22 15/15/15 
f 91/100/91 97/107/97 87/96/87 
f 97/107/97 94/106/94 123/140/123 
f 97/107/97 123/140/123 87/96/87 
f 87/96/87 123/140/123 83/95/83 
f 94/103/94 92/101/92 124/141/124 
f 94/103/94 124/141/124 123/142/123 
f 123/142/123 124/141/124 125/143/125 
f 123/142/123 125/143/125 83/89/83 
f 83/89/83 125/143/125 80/86/80 
f 92/101/92 35/35/35 34/34/34 
f 92/101/92 34/34/34 124/141/124 
f 124/141/124 34/34/34 33/33/33 
f 124/141/124 33/33/33 125/143/125 
f 125/143/125 33/33/33 32/32/32 
f 125/143/125 32/32/32 80/86/80 
f 80/86/80 32/32/32 25/25/25 
f 104/116/104 110/123/110 100/112/100 
f 110/123/110 107/122/107 126/144/126 
f 110/123/110 126/144/126 100/112/100 
f 100/112/100 126/144/126 96/111/96 
f 107/119/107 105/117/105 127/145/127 
f 107/119/107 127/145/127 126/146/126 
f 126/146/126 127/145/127 128/147/128 
f 126/146/126 128/147/128 96/105/96 
f 96/105/96 128/147/128 93/102/93 
f 105/117/105 45/45/45 44/44/44 
f 105/117/105 44/44/44 127/145/127 
f 127/145/127 44/44/44 43/43/43 
f 127/145/127 43/43/43 128/147/128 
f 128/147/128 43/43/43 42/42/42 
f 128/147/128 42/42/42 93/102/93 
f 93/102/93 42/42/42 35/35/35 
f 61/64/61 57/58/57 113/128/113 
f 57/58/57 54/57/54 129/148/129 
f 57/58/57 129/148/129 113/128/113 
f 113/128/113 129/148/129 109/127/109 
f 54/54/54 52/52/52 130/149/130 
f 54/54/54 130/149/130 129/150/129 
f 129/150/129 130/149/130 131/151/131 
f 129/150/129 131/151/131 109/121/109 
f 109/121/109 131/151/131 106/118/106 
f 52/52/52 11/11/11 51/51/51 
f 52/52/52 51/51/51 130/149/130 
f 130/149/130 51/51/51 50/50/50 
f 130/149/130 50/50/50 131/151/131 
f 131/151/131 50/50/50 49/49/49 
f 131/151/131 49/49/49 106/118/106 
f 106/118/106 49/49/49 45/45/45 
f 132/152/132 133/153/133 134/154/134 
f 133/153/133 135/155/135 136/156/136 
f 133/153/133 136/156/136 134/154/134 
f 134/154/134 136/156/136 137/157/137 
f 135/155/135 138/158/138 139/159/139 
f 135/155/135 139/159/139 136/156/136 
f 136/156/136 139/159/139 140/160/140 
f 136/156/136 140/160/140 137/157/137 
f 137/157/137 140/160/140 141/161/141 
f 138/158/138 78/84/78 77/83/77 
f 138/158/138 77/83/77 139/159/139 
f 139/159/139 77/83/77 76/82/76 
f 139/159/139 76/82/76 140/160/140 
f 140/160/140 76/82/76 75/81/75 
f 140/160/140 75/81/75 141/161/141 
f 141/161/141 75/81/75 65/68/65 
f 132/152/132 142/162/142 133/153/133 
f 142/162/142 143/163/143 144/164/144 
f 142/162/142 144/164/144 133/153/133 
f 133/153/133 144/164/144 135/155/135 
f 143/163/143 145/165/145 146/166/146 
f 143/163/143 146/166/146 144/164/144 
f 144/164/144 146/166/146 147/167/147 
f 144/164/144 147/167/147 135/155/135 
f 135/155/135 147/167/147 138/158/138 
f 145/165/145 91/100/91 90/99/90 
f 145/165/145 90/99/90 146/166/146 
f 146/166/146 90/99/90 89/98/89 
f 146/166/146 89/98/89 147/167/147 
f 147/167/147 89/98/89 88/97/88 
f 147/167/147 88/97/88 138/158/138 
f 138/158/138 88/97/88 78/84/78 
f 132/152/132 148/168/148 142/162/142 
f 148/168/148 149/169/149 150/170/150 
f 148/168/148 150/170/150 142/162/142 
f 142/162/142 150/170/150 143/163/143 
f 149/169/149 151/171/151 152/172/152 
f 149/169/149 152/172/152 150/170/150 
f 150/170/150 152/172/152 153/173/153 
f 150/170/150 153/173/153 143/163/143 
f 143/163/143 153/173/153 145/165/145 
f 151/171/151 104/116/104 103/115/103 
f 151/171/151 103/115/103 152/172/152 
f 152/172/152 103/115/103 102/114/102 
f 152/172/152 102/114/102 153/173/153 
f 153/173/153 102/114/102 101/113/101 
f 153/173/153 101/113/101 145/165/145 
f 145/165/145 101/113/101 91/100/91 
f 132/152/132 154/174/154 148/168/148 
f 154/174/154 155/175/155 156/176/156 
f 154/174/154 156/176/156 148/168/148 
f 148/168/148 156/176/156 149/169/149 
f 155/175/155 157/177/157 158/178/158 
f 155/175/155 158/178/158 156/176/156 
f 156/176/156 158/178/158 159/179/159 
f 156/176/156 159/179/159 149/169/149 
f 149/169/149 159/179/159 151/171/151 
f 157/177/157 61/64/61 116/131/116 
f 157/177/157 116/131/116 158/178/158 
f 158/178/158 116/131/116 115/130/115 
f 158/178/158 115/130/115 159/179/159 
f 159/179/159 115/130/115 114/129/114 
f 159/179/159 114/129/114 151/171/151 
f 151/171/151 114/129/114 104/116/104 
f 132/152/132 134/154/134 154/174/154 
f 134/154/134 137/157/137 160/180/160 
f 134/154/134 160/180/160 154/174/154 
f 154/174/154 160/180/160 155/175/155 
f 137/157/137 141/161/141 161/181/161 
f 137/157/137 161/181/161 160/180/160 
f 160/180/160 161/181/161 162/182/162 
f 160/180/160 162/182/162 155/175/155 
f 155/175/155 162/182/162 157/177/157 
f 141/161/141 65/68/65 64/67/64 
f 141/161/141 64/67/64 161/181/161 
f 161/181/161 64/67/64 63/66/63 
f 161/181/161 63/66/63 162/182/162 
f 162/182/162 63/66/63 62/65/62 
f 162/182/162 62/65/62 157/177/157 
f 157/177/157 62/65/62 61/64/61 
# 0 polygons - 320 triangles

