# 3ds Max Wavefront OBJ Exporter v0.97b - (c)2007 guruware
# File Created: 06.06.2017 23:48:11

#
# object SM_FlowerLavender
#

v  0.0000 -0.9092 0.0000
v  0.0000 -0.9092 7.4875
v  0.0000 0.9092 7.4875
v  0.0000 0.9092 0.0000
v  -0.0000 -0.9092 14.9751
v  -0.0000 0.9092 14.9751
v  -0.0000 -0.9092 22.4626
v  -0.0000 0.9092 22.4626
v  -0.9092 -0.0000 0.0000
v  -0.9092 -0.0000 7.4875
v  0.9092 -0.0000 7.4875
v  0.9092 -0.0000 0.0000
v  -0.9092 0.0000 14.9751
v  0.9092 0.0000 14.9751
v  -0.9092 0.0000 22.4626
v  0.9092 0.0000 22.4626
v  0.0103 -0.8154 22.4428
v  0.0103 -0.8154 24.2442
v  0.0103 0.8219 24.2442
v  0.0103 0.8219 22.4428
v  0.0103 -0.8154 26.0456
v  0.0103 0.8219 26.0456
v  -0.8084 0.0033 22.4428
v  -0.8084 0.0033 24.2442
v  0.8290 0.0033 24.2442
v  0.8290 0.0033 22.4428
v  -0.8084 0.0033 26.0456
v  0.8290 0.0033 26.0456
v  0.0103 -0.5268 21.2154
v  0.0103 -1.6847 22.5953
v  0.0103 -0.4304 23.6478
v  0.0103 0.7275 22.2679
v  0.0103 -2.8426 23.9752
v  0.0103 -1.5883 25.0277
v  -0.8084 0.1004 21.7416
v  -0.8084 -1.0575 23.1215
v  0.8290 -1.0575 23.1215
v  0.8290 0.1004 21.7416
v  -0.8084 -2.2155 24.5015
v  0.8290 -2.2155 24.5015
v  0.0103 -0.5268 19.7181
v  0.0103 -1.6847 21.0981
v  0.0103 -0.4304 22.1506
v  0.0103 0.7275 20.7706
v  0.0103 -2.8426 22.4780
v  0.0103 -1.5883 23.5305
v  -0.8084 0.1004 20.2444
v  -0.8084 -1.0575 21.6243
v  0.8290 -1.0575 21.6243
v  0.8290 0.1004 20.2444
v  -0.8084 -2.2155 23.0043
v  0.8290 -2.2155 23.0043
v  0.0103 -0.5268 17.9748
v  0.0103 -1.6847 19.3547
v  0.0103 -0.4304 20.4072
v  0.0103 0.7275 19.0273
v  0.0103 -2.8426 20.7346
v  0.0103 -1.5883 21.7871
v  -0.8084 0.1004 18.5010
v  -0.8084 -1.0575 19.8809
v  0.8290 -1.0575 19.8809
v  0.8290 0.1004 18.5010
v  -0.8084 -2.2155 21.2609
v  0.8290 -2.2155 21.2609
v  0.0103 -0.5268 16.4775
v  0.0103 -1.6847 17.8575
v  0.0103 -0.4304 18.9100
v  0.0103 0.7275 17.5300
v  0.0103 -2.8426 19.2374
v  0.0103 -1.5883 20.2899
v  -0.8084 0.1004 17.0038
v  -0.8084 -1.0575 18.3837
v  0.8290 -1.0575 18.3837
v  0.8290 0.1004 17.0038
v  -0.8084 -2.2155 19.7637
v  0.8290 -2.2155 19.7637
v  0.0103 0.4652 21.2154
v  0.0103 1.6232 22.5953
v  0.0103 0.3688 23.6478
v  0.0103 -0.7891 22.2679
v  0.0103 2.7811 23.9752
v  0.0103 1.5268 25.0277
v  0.8290 -0.1619 21.7416
v  0.8290 0.9960 23.1215
v  -0.8084 0.9960 23.1215
v  -0.8084 -0.1619 21.7416
v  0.8290 2.1539 24.5015
v  -0.8084 2.1539 24.5015
v  0.0103 0.4652 19.7181
v  0.0103 1.6232 21.0981
v  0.0103 0.3688 22.1506
v  0.0103 -0.7891 20.7706
v  0.0103 2.7811 22.4780
v  0.0103 1.5268 23.5305
v  0.8290 -0.1619 20.2444
v  0.8290 0.9960 21.6243
v  -0.8084 0.9960 21.6243
v  -0.8084 -0.1619 20.2444
v  0.8290 2.1539 23.0043
v  -0.8084 2.1539 23.0043
v  0.0103 0.4652 17.9748
v  0.0103 1.6232 19.3547
v  0.0103 0.3688 20.4072
v  0.0103 -0.7891 19.0273
v  0.0103 2.7811 20.7346
v  0.0103 1.5268 21.7871
v  0.8290 -0.1619 18.5010
v  0.8290 0.9960 19.8809
v  -0.8084 0.9960 19.8809
v  -0.8084 -0.1619 18.5010
v  0.8290 2.1539 21.2609
v  -0.8084 2.1539 21.2609
v  0.0103 0.4652 16.4775
v  0.0103 1.6232 17.8575
v  0.0103 0.3688 18.9100
v  0.0103 -0.7891 17.5300
v  0.0103 2.7811 19.2374
v  0.0103 1.5268 20.2899
v  0.8290 -0.1619 17.0038
v  0.8290 0.9960 18.3837
v  -0.8084 0.9960 18.3837
v  -0.8084 -0.1619 17.0038
v  0.8290 2.1539 19.7637
v  -0.8084 2.1539 19.7637
# 124 vertices

vn -1.0000 0.0000 -0.0000
vn 0.0000 1.0000 -0.0000
vn 0.0000 1.0000 0.0000
vn 0.0000 0.7660 0.6428
vn 1.0000 -0.0000 -0.0000
vn 0.0000 -0.7660 0.6428
vn -0.0000 -0.7660 0.6428
# 7 vertex normals

vt 0.1051 0.0001 0.0000
vt 0.1051 0.3464 0.0000
vt 0.0377 0.3464 0.0000
vt 0.0377 0.0001 0.0000
vt 0.1051 0.6468 0.0000
vt 0.0377 0.6468 0.0000
vt 0.1051 0.9464 0.0000
vt 0.0377 0.9464 0.0000
vt 0.8358 0.5683 0.0000
vt 0.8358 0.7704 0.0000
vt 0.6544 0.7704 0.0000
vt 0.6544 0.5683 0.0000
vt 0.8358 0.9774 0.0000
vt 0.6544 0.9774 0.0000
# 14 texture coords

g SM_FlowerLavender
s 1
f 1/1/1 2/2/1 3/3/1 4/4/1 
f 2/2/1 5/5/1 6/6/1 3/3/1 
f 5/5/1 7/7/1 8/8/1 6/6/1 
f 9/1/2 10/2/2 11/3/2 12/4/2 
f 10/2/2 13/5/2 14/6/2 11/3/2 
f 13/5/2 15/7/2 16/8/2 14/6/2 
f 17/9/1 18/10/1 19/11/1 20/12/1 
f 18/10/1 21/13/1 22/14/1 19/11/1 
f 23/9/3 24/10/3 25/11/3 26/12/3 
f 24/10/3 27/13/3 28/14/3 25/11/3 
f 29/9/1 30/10/1 31/11/1 32/12/1 
f 30/10/1 33/13/1 34/14/1 31/11/1 
f 35/9/4 36/10/4 37/11/4 38/12/4 
f 36/10/4 39/13/4 40/14/4 37/11/4 
f 41/9/1 42/10/1 43/11/1 44/12/1 
f 42/10/1 45/13/1 46/14/1 43/11/1 
f 47/9/4 48/10/4 49/11/4 50/12/4 
f 48/10/4 51/13/4 52/14/4 49/11/4 
f 53/9/1 54/10/1 55/11/1 56/12/1 
f 54/10/1 57/13/1 58/14/1 55/11/1 
f 59/9/4 60/10/4 61/11/4 62/12/4 
f 60/10/4 63/13/4 64/14/4 61/11/4 
f 65/9/1 66/10/1 67/11/1 68/12/1 
f 66/10/1 69/13/1 70/14/1 67/11/1 
f 71/9/4 72/10/4 73/11/4 74/12/4 
f 72/10/4 75/13/4 76/14/4 73/11/4 
f 77/9/5 78/10/5 79/11/5 80/12/5 
f 78/10/5 81/13/5 82/14/5 79/11/5 
f 83/9/6 84/10/6 85/11/6 86/12/7 
f 84/10/6 87/13/6 88/14/6 85/11/6 
f 89/9/5 90/10/5 91/11/5 92/12/5 
f 90/10/5 93/13/5 94/14/5 91/11/5 
f 95/9/6 96/10/6 97/11/6 98/12/7 
f 96/10/6 99/13/6 100/14/6 97/11/6 
f 101/9/5 102/10/5 103/11/5 104/12/5 
f 102/10/5 105/13/5 106/14/5 103/11/5 
f 107/9/6 108/10/6 109/11/6 110/12/7 
f 108/10/6 111/13/6 112/14/6 109/11/6 
f 113/9/5 114/10/5 115/11/5 116/12/5 
f 114/10/5 117/13/5 118/14/5 115/11/5 
f 119/9/6 120/10/6 121/11/6 122/12/7 
f 120/10/6 123/13/6 124/14/6 121/11/6 
# 42 polygons

