# 3ds Max Wavefront OBJ Exporter v0.97b - (c)2007 guruware
# File Created: 09.06.2017 03:32:14

#
# object SM_FlowerLavender
#

v  0.0000 -0.9092 0.0000
v  0.0000 -0.9092 7.4875
v  0.0000 0.9092 7.4875
v  0.0000 0.9092 0.0000
v  -0.0000 -0.9092 14.9751
v  -0.0000 0.9092 14.9751
v  -0.0000 -0.9092 22.4626
v  -0.0000 0.9092 22.4626
v  -0.9092 -0.0000 0.0000
v  -0.9092 -0.0000 7.4875
v  0.9092 -0.0000 7.4875
v  0.9092 -0.0000 0.0000
v  -0.9092 0.0000 14.9751
v  0.9092 0.0000 14.9751
v  -0.9092 0.0000 22.4626
v  0.9092 0.0000 22.4626
v  0.0103 -0.8154 22.4428
v  0.0103 -0.8154 24.2442
v  0.0103 0.8219 24.2442
v  0.0103 0.8219 22.4428
v  0.0103 -0.8154 26.0456
v  0.0103 0.8219 26.0456
v  -0.8084 0.0033 22.4428
v  -0.8084 0.0033 24.2442
v  0.8290 0.0033 24.2442
v  0.8290 0.0033 22.4428
v  -0.8084 0.0033 26.0456
v  0.8290 0.0033 26.0456
v  -0.0408 -0.5288 21.4332
v  -0.1417 -1.6823 22.8131
v  -0.0324 -0.4328 23.8656
v  0.0685 0.7207 22.4857
v  -0.2426 -2.8358 24.1931
v  -0.1333 -1.5863 25.2456
v  -0.8017 0.1673 21.9594
v  -0.9026 -0.9862 23.3394
v  0.7285 -1.1289 23.3394
v  0.8294 0.0246 21.9594
v  -1.0036 -2.1397 24.7193
v  0.6276 -2.2824 24.7193
v  -0.3226 0.2095 21.5102
v  -1.6853 0.0325 22.6750
v  -0.6248 0.0730 23.9219
v  0.7379 0.2500 22.7571
v  -3.0480 -0.1446 23.8397
v  -1.9875 -0.1041 25.0866
v  0.1333 1.0443 22.1704
v  -1.2295 0.8672 23.3352
v  -1.0807 -0.7618 23.2616
v  0.2820 -0.5847 22.0968
v  -2.5922 0.6901 24.5000
v  -2.4434 -0.9388 24.4264
v  -0.0401 0.4673 21.4332
v  -0.1411 1.6208 22.8131
v  -0.0317 0.3712 23.8656
v  0.0692 -0.7823 22.4857
v  -0.2420 2.7743 24.1931
v  -0.1327 1.5247 25.2456
v  0.8301 -0.0861 21.9594
v  0.7292 1.0674 23.3394
v  -0.9020 0.9247 23.3394
v  -0.8011 -0.2289 21.9594
v  0.6283 2.2209 24.7193
v  -1.0029 2.0782 24.7193
v  0.5179 -0.0420 21.4136
v  1.7868 0.0690 22.6873
v  0.6334 -0.0319 23.8451
v  -0.6355 -0.1429 22.5714
v  3.0558 0.1800 23.9611
v  1.9024 0.0791 25.1189
v  0.0126 -0.9080 21.9925
v  1.2815 -0.7970 23.2662
v  1.1388 0.8341 23.2662
v  -0.1301 0.7231 21.9925
v  2.5504 -0.6860 24.5400
v  2.4077 0.9452 24.5400
# 76 vertices

vn -1.0000 0.0000 -0.0000
vn 0.0000 1.0000 -0.0000
vn 0.0000 1.0000 0.0000
vn -0.9962 0.0872 -0.0000
vn 0.0668 0.7631 0.6428
vn -0.0909 0.9948 0.0449
vn 0.6477 0.0247 0.7615
vn 0.9962 0.0872 -0.0000
vn 0.0668 -0.7631 0.6428
vn 0.0872 -0.9962 -0.0000
vn -0.7044 -0.0616 0.7071
# 11 vertex normals

vt 0.1051 0.0001 0.0000
vt 0.1051 0.3464 0.0000
vt 0.0377 0.3464 0.0000
vt 0.0377 0.0001 0.0000
vt 0.1051 0.6468 0.0000
vt 0.0377 0.6468 0.0000
vt 0.1051 0.9464 0.0000
vt 0.0377 0.9464 0.0000
vt 0.6541 0.5683 0.0000
vt 0.6541 0.7704 0.0000
vt 0.4932 0.7704 0.0000
vt 0.4932 0.5683 0.0000
vt 0.6541 0.9774 0.0000
vt 0.4932 0.9774 0.0000
# 14 texture coords

g SM_FlowerLavender
s 1
f 1/1/1 2/2/1 3/3/1 4/4/1 
f 2/2/1 5/5/1 6/6/1 3/3/1 
f 5/5/1 7/7/1 8/8/1 6/6/1 
f 9/1/2 10/2/2 11/3/2 12/4/2 
f 10/2/2 13/5/2 14/6/2 11/3/2 
f 13/5/2 15/7/2 16/8/2 14/6/2 
f 17/9/1 18/10/1 19/11/1 20/12/1 
f 18/10/1 21/13/1 22/14/1 19/11/1 
f 23/9/3 24/10/3 25/11/3 26/12/3 
f 24/10/3 27/13/3 28/14/3 25/11/3 
f 29/9/4 30/10/4 31/11/4 32/12/4 
f 30/10/4 33/13/4 34/14/4 31/11/4 
f 35/9/5 36/10/5 37/11/5 38/12/5 
f 36/10/5 39/13/5 40/14/5 37/11/5 
f 41/9/6 42/10/6 43/11/6 44/12/6 
f 42/10/6 45/13/6 46/14/6 43/11/6 
f 47/9/7 48/10/7 49/11/7 50/12/7 
f 48/10/7 51/13/7 52/14/7 49/11/7 
f 53/9/8 54/10/8 55/11/8 56/12/8 
f 54/10/8 57/13/8 58/14/8 55/11/8 
f 59/9/9 60/10/9 61/11/9 62/12/9 
f 60/10/9 63/13/9 64/14/9 61/11/9 
f 65/9/10 66/10/10 67/11/10 68/12/10 
f 66/10/10 69/13/10 70/14/10 67/11/10 
f 71/9/11 72/10/11 73/11/11 74/12/11 
f 72/10/11 75/13/11 76/14/11 73/11/11 
# 26 polygons

