# 3ds Max Wavefront OBJ Exporter v0.97b - (c)2007 guruware
# File Created: 29.05.2017 01:18:50

#
# object SM_FlowerPoppy
#

v  0.0000 -0.9092 0.0000
v  0.0000 -0.9092 9.1911
v  0.0000 0.9092 9.1911
v  0.0000 0.9092 0.0000
v  -0.0000 -0.9092 18.3822
v  -0.0000 0.9092 18.3822
v  -0.0000 -0.9092 27.5732
v  -0.0000 0.9092 27.5732
v  -2.6234 -2.5975 29.5912
v  -1.3799 -1.3539 29.0549
v  -1.7172 0.0259 29.0549
v  -3.2648 0.0259 29.5912
v  -0.0000 0.0259 27.5124
v  1.3798 -1.3539 29.0549
v  1.7172 0.0259 29.0549
v  -2.6234 2.6494 29.5912
v  -1.3799 1.4058 29.0549
v  -0.0000 1.8337 29.0549
v  -0.0000 3.4629 29.5912
v  2.6234 2.6494 29.5912
v  1.3798 1.4058 29.0549
v  -0.0000 -1.7818 29.0549
v  -0.0000 -3.4111 29.5912
v  2.6234 -2.5975 29.5912
v  3.2648 0.0259 29.5912
v  -0.9092 -0.0000 0.0000
v  -0.9092 -0.0000 9.1911
v  0.9092 -0.0000 9.1911
v  0.9092 -0.0000 0.0000
v  -0.9092 0.0000 18.3822
v  0.9092 0.0000 18.3822
v  -0.9092 0.0000 27.5732
v  0.9092 0.0000 27.5732
# 33 vertices

vn -1.0000 0.0000 -0.0000
vn 0.2112 0.2013 0.9565
vn 0.3030 0.2824 0.9102
vn 0.4849 0.0000 0.8746
vn 0.3274 0.0000 0.9449
vn -0.0000 0.0000 1.0000
vn -0.3030 0.2824 0.9102
vn -0.4849 -0.0000 0.8746
vn 0.2112 -0.2013 0.9565
vn 0.3030 -0.2824 0.9102
vn 0.0000 -0.4611 0.8873
vn 0.0000 -0.3127 0.9499
vn -0.2112 -0.2013 0.9565
vn -0.3030 -0.2824 0.9102
vn 0.0000 0.4611 0.8873
vn 0.0000 0.3127 0.9499
vn -0.2112 0.2013 0.9565
vn -0.3274 0.0000 0.9449
vn 0.0000 1.0000 -0.0000
# 19 vertex normals

vt 0.1051 0.0001 0.0000
vt 0.1051 0.3464 0.0000
vt 0.0377 0.3464 0.0000
vt 0.0377 0.0001 0.0000
vt 0.1051 0.6468 0.0000
vt 0.0377 0.6468 0.0000
vt 0.1051 0.9464 0.0000
vt 0.0377 0.9464 0.0000
vt 0.6174 0.1221 0.0000
vt 0.6861 0.1967 0.0000
vt 0.6675 0.2691 0.0000
vt 0.5820 0.2691 0.0000
vt 0.7623 0.2691 0.0000
vt 0.8385 0.1967 0.0000
vt 0.8571 0.2691 0.0000
vt 0.6174 0.3916 0.0000
vt 0.6861 0.3415 0.0000
vt 0.7623 0.3640 0.0000
vt 0.7623 0.4343 0.0000
vt 0.9072 0.3916 0.0000
vt 0.8385 0.3415 0.0000
vt 0.7623 0.1743 0.0000
vt 0.7623 0.0794 0.0000
vt 0.9072 0.1221 0.0000
vt 0.9426 0.2691 0.0000
# 25 texture coords

g SM_FlowerPoppy
s 1
f 1/1/1 2/2/1 3/3/1 4/4/1 
f 2/2/1 5/5/1 6/6/1 3/3/1 
f 5/5/1 7/7/1 8/8/1 6/6/1 
f 9/9/2 10/10/3 11/11/4 12/12/5 
f 13/13/6 14/14/7 15/15/8 
f 16/16/9 17/17/10 18/18/11 19/19/12 
f 20/20/13 19/19/12 18/18/11 21/21/14 
f 13/13/6 15/15/8 21/21/14 
f 13/13/6 22/22/15 14/14/7 
f 16/16/9 12/12/5 11/11/4 17/17/10 
f 9/9/2 23/23/16 22/22/15 10/10/3 
f 10/10/3 13/13/6 11/11/4 
f 24/24/17 25/25/18 15/15/8 14/14/7 
f 17/17/10 13/13/6 18/18/11 
f 18/18/11 13/13/6 21/21/14 
f 20/20/13 21/21/14 15/15/8 25/25/18 
f 24/24/17 14/14/7 22/22/15 23/23/16 
f 11/11/4 13/13/6 17/17/10 
f 22/22/15 13/13/6 10/10/3 
f 26/1/19 27/2/19 28/3/19 29/4/19 
f 27/2/19 30/5/19 31/6/19 28/3/19 
f 30/5/19 32/7/19 33/8/19 31/6/19 
# 14 polygons - 8 triangles

