# 3ds Max Wavefront OBJ Exporter v0.97b - (c)2007 guruware
# File Created: 26.05.2017 20:23:27

#
# object Grass
#

v  -6.6471 6.7291 0.0000
v  7.4951 -7.4130 0.0000
v  7.4951 -7.4130 20.0000
v  -6.6471 6.7291 20.0000
v  -12.3299 0.3477 13.3789
v  0.0375 0.3477 0.1254
v  0.0375 12.7151 13.3789
v  -12.3299 12.7151 13.3789
v  -12.3299 -12.0196 13.3789
v  0.0375 -12.0196 13.3789
v  12.4049 0.3477 13.3789
v  12.4048 12.7151 13.3789
v  12.4049 -12.0196 13.3789
v  -7.6604 -6.2501 0.0000
v  7.6604 6.6056 0.0000
v  7.6604 6.6056 20.0000
v  -7.6604 -6.2501 20.0000
v  0.0000 -9.8223 0.0000
v  -0.0000 10.1777 0.0000
v  -0.0000 10.1777 20.0000
v  0.0000 -9.8223 20.0000
v  -10.0000 0.1777 0.0000
v  10.0000 0.1777 0.0000
v  10.0000 0.1777 20.0000
v  -10.0000 0.1777 20.0000
# 25 vertices

vn -0.7071 -0.7071 -0.0000
vn 0.3848 -0.3848 0.8389
vn 0.5902 -0.5902 0.5507
vn -0.0000 -0.0000 1.0000
vn 0.4271 0.4271 0.7970
vn -0.0000 0.7311 0.6822
vn 0.7311 0.0000 0.6822
vn -0.3848 -0.3848 0.8389
vn 0.0000 0.0000 1.0000
vn -0.5902 -0.5902 0.5507
vn -0.4271 0.4271 0.7970
vn -0.7311 -0.0000 0.6822
vn 0.6428 -0.7660 -0.0000
vn 1.0000 0.0000 0.0000
vn 0.0000 -1.0000 -0.0000
# 15 vertex normals

vt 0.3383 0.5190 0.0000
vt 0.6700 0.5190 0.0000
vt 0.6700 0.9940 0.0000
vt 0.3383 0.9940 0.0000
vt 0.4324 0.2520 0.0000
vt 0.6979 0.2520 0.0000
vt 0.6979 0.4934 0.0000
vt 0.4324 0.4934 0.0000
vt 0.4324 0.0105 0.0000
vt 0.6979 0.0105 0.0000
vt 0.9634 0.2520 0.0000
vt 0.9634 0.4934 0.0000
vt 0.9634 0.0105 0.0000
vt 0.0015 0.0253 0.0000
vt 0.3434 0.0253 0.0000
vt 0.3434 0.4951 0.0000
vt 0.0015 0.4951 0.0000
vt 0.0038 0.5241 0.0000
vt 0.3094 0.5241 0.0000
vt 0.3094 0.9962 0.0000
vt 0.0038 0.9962 0.0000
vt 0.6808 0.5385 0.0000
vt 0.9964 0.5385 0.0000
vt 0.9964 0.9936 0.0000
vt 0.6808 0.9936 0.0000
# 25 texture coords

g Grass
s 1
f 1/1/1 2/2/1 3/3/1 4/4/1 
f 5/5/2 6/6/3 7/7/2 8/8/4 
s 2
f 9/9/5 10/10/6 6/6/5 5/5/7 
s 4
f 11/11/8 12/12/9 7/7/8 6/6/10 
s 8
f 13/13/11 11/11/12 6/6/11 10/10/6 
s 1
f 14/14/13 15/15/13 16/16/13 17/17/13 
f 18/18/14 19/19/14 20/20/14 21/21/14 
f 22/22/15 23/23/15 24/24/15 25/25/15 
# 8 polygons

