# 3ds Max Wavefront OBJ Exporter v0.97b - (c)2007 guruware
# File Created: 16.06.2017 01:05:55

#
# object Bush_002
#

v  -46.5722 49.6904 -13.6775
v  -64.9863 122.5768 -6.1129
v  7.9063 139.9973 3.4743
v  26.3204 67.1110 -4.0903
v  -24.9098 61.1954 -43.4981
v  -51.4648 130.1506 -27.7272
v  -22.2546 125.4982 41.7987
v  4.3004 56.5429 26.0277
v  -43.0125 52.1380 -25.3270
v  -66.4005 121.3762 -6.1491
v  0.0720 134.5775 27.2554
v  23.4600 65.3392 8.0775
v  -19.4473 49.3636 25.6263
v  -34.3753 121.8182 40.9954
v  -17.0430 140.4783 -30.1390
v  -2.1150 68.0237 -45.5082
v  -32.6259 92.6170 -32.1991
v  -22.5765 165.8621 -16.6143
v  40.1243 149.0346 22.0403
v  30.0748 75.7895 6.4555
v  2.0632 94.3693 -49.0660
v  0.4774 167.4070 -29.7864
v  -6.2535 148.0631 42.9407
v  -4.6676 75.0254 23.6611
v  -23.9003 93.6271 -40.9865
v  -24.1906 165.4100 -17.4098
v  21.6808 146.8431 39.6849
v  21.9711 75.0602 16.1082
v  -26.8123 79.0691 13.2246
v  -17.3131 150.1326 37.0669
v  33.7909 161.5741 -17.3959
v  24.2917 90.5105 -41.2382
v  19.6019 89.9348 -30.0537
v  21.7196 163.8742 -14.6523
v  -22.2463 152.5534 45.7427
v  -24.3641 78.6140 30.3413
v  35.0386 85.0855 5.0046
v  33.9736 160.5428 8.7167
v  -40.9544 159.9627 -0.9882
v  -39.8894 84.5054 -4.7003
v  28.0294 88.1623 -21.0978
v  22.4449 163.3576 -16.2801
v  -39.1720 156.0196 26.8271
v  -33.5875 80.8244 22.0094
v  -27.9371 87.4467 -26.2444
v  -34.3315 161.3194 -11.7304
v  19.2632 155.5564 41.2141
v  25.6576 81.6836 26.7001
v  24.5290 67.9927 -23.5687
v  15.2699 137.5791 4.3729
v  -38.0953 111.6855 51.1747
v  -28.8362 42.0992 23.2330
v  33.2613 57.7045 12.6086
v  23.0153 130.7709 28.8888
v  -48.0211 126.4640 3.5119
v  -37.7752 53.3975 -12.7683
v  31.1884 65.1768 -13.4644
v  16.3527 137.4383 2.8728
v  -51.2779 117.4266 29.9720
v  -36.4421 45.1652 13.6348
v  -22.2506 61.2821 -30.4454
v  -39.6217 130.3372 -5.1799
v  2.8927 118.5875 56.1649
v  20.2639 49.5323 30.8994
v  16.1633 48.3382 -32.0482
v  38.7719 120.3675 -35.1079
v  2.1135 134.6142 29.4050
v  -20.4951 62.5850 32.4646
v  34.5725 46.9727 1.8654
v  52.9010 118.8249 -12.6278
v  -20.3983 136.8080 -16.1699
v  -38.7267 64.9558 -1.6768
v  25.0309 46.2571 -23.5979
v  39.1141 119.3390 -36.6138
v  -15.8472 138.5096 11.5574
v  -29.9303 65.4276 24.5734
v  -29.5003 59.8697 -24.1415
v  -15.1894 133.9867 -27.3953
v  42.0273 125.0697 21.1377
v  27.7165 50.9526 24.3914
v  -1.4897 37.3004 -37.3394
v  33.5504 103.9853 -31.5050
v  32.8104 97.7863 43.7927
v  -2.2297 31.1014 37.9583
v  28.9074 22.8807 -18.3924
v  55.2307 93.6837 -20.0503
v  -6.0147 117.3293 17.3476
v  -32.3380 46.5264 19.0055
v  9.4118 31.7522 -35.1600
v  32.9592 103.5186 -33.2007
v  10.3397 108.9778 38.6831
v  -13.2078 37.2115 36.7238
v  -35.1930 48.8386 -5.5335
v  -6.9845 118.1773 4.7207
v  61.8070 88.6704 15.0062
v  33.5986 19.3317 4.7521
v  33.2663 42.4210 -10.0164
v  29.9955 104.8396 32.4328
v  -41.2418 88.2346 51.3603
v  -37.9710 25.8160 8.9110
v  25.4255 23.2704 22.5822
v  26.3666 91.4521 55.1259
v  -29.2166 114.1203 9.2415
v  -30.1577 45.9386 -23.3022
v  34.8944 35.8269 0.3875
v  31.4974 104.6600 31.3583
v  -43.9818 101.6715 29.7215
v  -40.5848 32.8384 -1.2493
v  -7.8479 51.8686 -32.3999
v  -17.5571 116.7970 5.0000
v  -4.6065 81.1062 70.3235
v  5.1027 16.1777 32.9237
v  34.8434 39.9532 2.9113
v  22.6962 75.3395 68.5542
v  -51.6258 64.1402 60.8381
v  -39.4786 28.7539 -4.8047
v  17.6182 9.5653 19.3664
v  12.4611 53.8286 80.3819
v  -27.5020 104.0790 40.5503
v  -22.3449 59.8158 -20.4652
v  33.2960 29.1394 8.8311
v  24.4256 75.4252 67.8875
v  -47.7979 86.2804 48.5315
v  -38.9275 39.9946 -10.5249
v  1.8263 65.4196 -20.3693
v  -15.0272 106.4032 40.8273
v  -21.8843 43.0245 81.3839
v  -5.0308 2.0408 20.1873
v  14.3178 43.7335 -32.5697
v  45.5097 103.8285 0.9620
v  12.5257 84.5729 66.1540
v  -18.6662 24.4779 32.6223
v  33.2750 22.7753 -6.2586
v  59.9087 89.2269 17.8982
v  -10.6958 112.8380 30.7915
v  -37.3295 46.3864 6.6348
v  23.0746 36.6630 -27.3065
v  45.6848 103.7398 -0.8831
v  -5.2682 99.0168 54.7065
v  -27.8784 31.9399 28.2830
v  -29.3700 53.3057 -15.8247
v  -6.1592 116.0065 19.3688
v  50.7439 77.3811 50.6552
v  27.5330 14.6802 15.4617
v  -25.8364 40.9879 -27.6434
v  19.4955 95.3170 -54.1402
v  68.4436 81.7557 1.7964
v  23.1116 27.4265 28.2931
v  4.1819 17.2903 -32.9558
v  39.5050 78.6120 -59.4254
v  28.8714 113.3367 6.8305
v  -6.4517 52.0150 33.3001
v  -18.2985 32.6055 -32.8674
v  17.8181 95.1980 -54.9242
v  52.4240 98.8629 12.1408
v  16.3074 36.2704 34.1976
v  -24.4572 57.5184 17.1392
v  19.8612 115.7109 -1.7880
v  66.5025 68.4596 -37.8522
v  22.1842 10.2672 -18.9249
v  -12.5778 54.7867 28.5405
v  2.6521 120.0950 -6.2675
v  27.8884 82.1044 -66.5051
v  12.6584 16.7961 -31.6971
v  -35.8329 47.5222 -1.4149
v  -14.7171 115.7947 -25.9446
v  57.3973 93.2599 -26.5872
v  36.2816 24.9873 -2.0575
v  -22.8684 53.8853 21.6364
v  2.1751 120.2145 -4.4785
v  48.7270 84.0346 -51.7295
v  23.6835 17.7055 -25.6146
v  30.4718 36.3270 19.2338
v  53.8484 99.0267 -15.8518
v  -9.2158 99.2538 -57.4640
v  -32.5924 36.5541 -22.3785
v  -36.6247 34.8031 8.7042
v  -46.4045 102.7379 -22.8861
v  26.8465 104.7202 -41.3003
v  36.6263 36.7855 -9.7099
v  -24.7061 23.4312 -26.2175
v  -39.8834 94.3869 -47.2809
v  9.3536 120.1199 3.9271
v  24.5308 49.1642 24.9905
v  -36.7552 29.8500 -2.6898
v  -47.8406 102.0727 -21.9178
v  26.5454 114.6199 -17.6740
v  37.6308 42.3972 1.5540
v  1.4166 48.7164 34.0011
v  -2.6337 119.5646 8.0618
v  -7.3300 93.4015 -62.6642
v  -3.2797 22.5533 -36.7248
v  -37.0403 36.1784 7.0314
v  -48.2132 83.3565 -50.9178
v  25.8919 82.8176 -65.6443
v  37.0648 35.6395 -7.6951
v  -22.2740 11.9947 -19.1985
v  -39.6754 65.9604 -69.1347
v  4.6835 114.5904 -32.0385
v  22.0849 60.6248 17.8978
v  -36.1633 26.8654 -1.1463
v  -49.6737 83.0594 -49.8128
v  23.5229 101.7510 -48.5503
v  37.0333 45.5571 0.1163
v  -1.5190 62.3126 25.3589
v  -7.5056 114.9459 -28.5170
v  -6.1714 60.9826 -81.3839
v  -0.1849 8.3493 -27.5080
v  -21.3094 39.4938 29.4475
v  -53.4136 100.7725 -0.9328
v  -11.9558 91.5145 -63.4169
v  20.1483 30.2358 -33.0366
v  -35.4604 20.4661 -1.0253
v  -64.6070 87.2722 -20.9283
v  4.8197 117.0286 -22.7195
v  33.9664 50.2224 -2.8165
v  -28.8220 32.4935 22.4525
v  -53.7839 100.4590 0.8581
v  3.2204 105.7280 -48.4519
v  28.1823 37.7625 -26.8575
v  23.0318 53.9294 19.1460
v  -1.1967 118.5328 -11.6453
v  -50.9363 79.9589 -53.4393
v  -26.7078 15.3555 -22.6481
v  -2.3612 34.6731 35.6263
v  -56.0895 87.7705 33.9971
v  -53.1014 88.4776 -41.4966
v  0.6268 35.3801 -39.8673
v  -26.7925 13.3405 14.6756
v  -73.5202 72.3652 21.1045
v  -22.2519 116.6029 -12.4115
v  24.4757 57.5781 -18.8403
v  -11.0317 26.2749 32.6820
v  -55.3926 87.3643 35.6680
v  -35.1578 105.5040 -34.8318
v  9.2032 44.4147 -37.8178
v  26.3603 58.5671 5.8807
v  -21.6530 116.6355 0.2668
v  -78.0673 68.5696 -14.4238
v  -30.0541 10.5012 -8.8099
v  21.9665 42.1890 26.8248
v  -21.5398 100.1756 48.1201
v  -69.4007 85.0012 -8.3405
v  -25.8945 27.0146 -29.6357
v  -9.2687 20.2737 32.7394
v  -42.4541 84.7814 53.8629
v  -28.2665 114.3668 -14.1969
v  4.9189 49.8591 -35.3204
v  13.8950 34.5295 32.3527
v  -19.8936 100.0360 48.9645
v  -52.3026 100.6267 -19.2853
v  -18.5140 35.1202 -35.8971
v  22.6785 55.6511 -18.9891
v  -19.4127 116.9231 -5.4690
v  -69.2498 74.3853 32.1545
v  -27.1586 13.1133 18.6344
v  19.1555 24.5042 28.2173
v  -37.1334 68.5312 52.7511
v  -79.1226 47.9106 -6.5820
v  -22.8337 3.8836 -31.1158
v  -6.1344 -4.5368 31.0351
v  -53.9271 48.2239 56.3506
v  -45.9691 86.4653 -8.3254
v  1.8237 33.7045 -33.6409
v  13.0236 14.6971 32.7556
v  -35.5150 68.7015 53.6423
v  -66.0046 68.0336 -15.4856
v  -17.4660 14.0292 -36.3723
v  17.4438 41.9394 -16.2094
v  -38.1137 90.1958 0.9199
v  -77.1535 33.9235 32.8267
v  -21.5961 -14.3328 15.6974
v  -14.1668 14.4221 33.3169
v  -66.1852 65.5484 13.5961
v  -39.1036 65.8953 -56.9389
v  12.9147 14.7689 -37.2181
v  -29.8685 -7.9017 6.0038
v  -78.0425 49.4488 -3.9417
v  -20.1609 95.2876 -19.9805
v  28.0131 37.9371 -10.0349
v  -21.1569 5.7005 27.8904
v  -66.0500 65.1778 15.4091
v  -24.8100 83.5948 -45.1614
v  20.0832 24.1176 -32.6802
v  21.8154 39.1459 13.9606
v  -23.6720 95.4200 -7.7840
v  -70.7996 45.2729 -38.9766
v  -25.3122 -11.0012 -17.2320
v  -22.6784 10.6412 28.5150
v  -71.0921 61.0108 -0.2554
v  -26.6791 69.0924 -60.8432
v  21.7347 18.7228 -32.0729
v  -29.1947 -9.7329 -3.6305
v  -76.8674 46.0934 -21.5037
v  -20.0259 95.7485 -18.0197
v  27.6468 39.9221 -0.1466
v  -27.4128 2.1575 20.7698
v  -71.4087 60.4802 1.4941
v  -17.1661 86.2431 -44.3614
v  26.8298 27.9204 -25.0858
v  15.3529 38.6265 21.3672
v  -26.5900 94.5946 -7.2178
v  -60.4951 45.5065 -53.5808
v  -18.5522 -10.4615 -24.9958
v  -32.1475 16.6041 19.1213
v  -67.7133 46.3899 -40.5159
v  -3.3087 44.3030 -79.9672
v  32.2571 14.5171 -20.3300
v  -24.1542 -13.1821 -4.1121
v  -63.6937 25.0706 -55.9009
v  -15.7862 83.1532 -49.5758
v  23.7533 44.9005 2.2130
v  -32.9218 5.4914 13.6182
v  -68.6729 46.3501 -38.9284
v  -2.1259 67.0008 -68.1476
v  33.6253 26.1422 -15.6010
v  3.9794 47.7597 16.9263
v  -26.0452 84.0445 -42.1556
v  -35.8647 18.0845 -77.6743
v  -5.8401 -18.2002 -18.5925
v  -37.3798 16.1960 5.1523
v  -41.4592 81.5725 -32.5038
v  33.2588 79.8479 -43.5925
v  37.3382 14.4713 -5.9364
v  -22.5570 1.6470 -27.3978
v  -32.9149 71.0577 -55.3906
v  12.0413 99.4211 -1.6954
v  22.3992 30.0105 26.2974
v  -36.5878 10.3311 -5.7724
v  -43.0070 81.0322 -31.6348
v  31.0339 91.6567 -20.9674
v  37.4530 20.9555 4.8950
v  -1.4828 30.9942 32.9564
v  -0.3040 99.5654 1.2496
v  0.9208 67.8415 -67.3129
v  -0.2581 -0.7297 -35.6061
v  -33.7902 25.8550 -13.1934
v  -1.3977 70.5399 -64.7948
v  66.8538 50.2472 -39.5231
v  34.4614 5.5622 12.0783
v  -14.2435 -2.9050 -29.9770
v  10.6178 50.4231 -77.3769
v  40.1282 88.4377 -19.1296
v  15.2669 35.1096 28.2703
v  -31.1981 16.1245 -20.4717
v  -3.2384 70.6947 -64.6198
v  60.8623 70.2083 -24.6250
v  32.9026 15.6380 19.5231
v  -7.5165 43.2126 22.7101
v  28.4041 92.1029 -22.3250
v  43.1638 36.3242 -71.1062
v  7.2431 -12.5662 -26.0710
v  -31.1463 21.7954 -21.3367
v  11.3877 68.2969 -63.0164
v  71.2509 52.2892 -19.7859
v  28.7169 5.7877 21.8938
v  -6.1144 -5.7370 -31.6456
v  27.5349 48.9352 -71.4878
v  37.7874 88.7987 -8.1276
v  4.1381 34.1265 31.7146
v  -26.1038 12.2298 -27.4562
v  9.5631 68.3384 -63.3509
v  60.2680 71.8703 -7.4468
v  24.6011 15.7617 28.4478
v  -16.7062 40.8017 20.0263
v  27.1817 91.7295 -14.4546
v  57.9142 36.8777 -56.3533
v  14.0263 -14.0502 -21.8725
v  20.1558 20.2548 -29.7411
v  59.3767 70.4292 10.9157
v  14.3962 57.5224 70.2359
v  -24.8247 7.3480 29.5791
v  30.1260 -5.2953 -2.5623
v  67.6601 52.3909 28.6181
v  3.1949 91.4301 33.9941
v  -34.3392 33.7439 2.8138
v  26.2840 11.1889 -23.8565
v  59.7743 70.3554 9.1049
v  2.0623 76.0406 57.5376
v  -31.4279 16.8741 24.5762
v  -22.0608 39.2616 -18.0298
v  9.8311 93.7816 23.4333
v  51.7106 42.0687 59.2188
v  19.8187 -12.4514 17.7557
v  33.6683 19.5641 9.2911
v  13.0665 82.4934 45.6806
v  -58.7239 70.8225 25.2195
v  -38.1221 7.8932 -11.1700
v  9.1181 1.3074 32.8470
v  -2.4582 69.6075 63.0100
v  -25.3083 95.4255 -4.2211
v  -13.7320 27.1254 -34.3841
v  29.3459 12.9837 18.9031
v  14.8920 82.2041 45.5179
v  -49.1969 84.1889 5.5505
v  -34.7430 14.9685 -21.0643
v  10.4142 31.4762 -30.6840
v  -12.9771 97.2831 -1.8567
v  -37.4220 61.4851 60.0276
v  -14.0307 -4.3218 31.2004
v  33.0489 21.2329 -11.3020
v  37.0444 76.2849 40.2929
v  -33.8347 61.3128 61.7571
v  -37.8302 6.2608 10.1622
v  25.9671 -2.2861 18.4906
v  33.9311 59.7450 60.8868
v  -22.7165 92.7100 23.2959
v  -30.6806 30.6789 -19.1003
v  34.8649 12.9982 -2.1770
v  38.4568 76.1847 39.0939
v  -36.9888 78.1263 42.6875
v  -40.5807 14.9398 1.4166
v  -8.6350 36.5854 -28.8351
v  -11.1925 95.2999 18.6496
v  3.3380 49.0585 76.6093
v  5.8954 -9.6559 29.1246
v  -7.0251 22.7900 -36.0067
v  50.9269 71.1230 -32.2359
v  61.2677 53.0576 40.3962
v  3.3158 4.7246 36.6254
v  18.5700 -4.2646 -25.8166
v  68.8110 52.1556 -26.9663
v  28.6008 89.0272 25.3056
v  -21.6402 32.6069 26.4553
v  1.1949 13.5124 -36.8627
v  49.9133 71.1821 -33.7889
v  44.1229 72.0587 41.5398
v  -4.5955 14.3891 38.4661
v  -27.7171 39.8415 3.5121
v  25.7996 92.2607 13.3558
v  79.1226 39.3735 5.0903
v  25.6058 -13.0458 -4.7534
# 432 vertices

vn 0.0993 0.1275 -0.9869
vn 0.8527 0.4041 -0.3312
vn 0.3608 0.3602 -0.8603
vn -0.9531 -0.1394 -0.2688
vn 0.5419 0.1031 -0.8341
vn 0.9958 -0.0025 0.0915
vn 0.7946 0.1923 -0.5759
vn -0.7258 0.3041 -0.6171
vn 0.8128 -0.1410 0.5652
vn -0.1279 -0.0505 0.9905
vn 0.5740 -0.0098 0.8188
vn 0.6998 0.1956 -0.6871
vn 0.6972 -0.1853 0.6925
vn -0.3125 -0.2481 0.9169
vn 0.4003 -0.1231 0.9081
vn 0.7941 0.3748 -0.4785
vn 0.8216 -0.2358 0.5190
vn 0.0011 0.1975 0.9803
vn 0.6604 0.0065 0.7509
vn 0.6250 -0.1543 -0.7652
vn 0.8859 -0.4629 -0.0294
vn 0.4707 -0.1547 0.8686
vn 0.9018 -0.3043 0.3069
vn 0.1779 0.0727 -0.9814
vn 0.3304 -0.5189 0.7884
vn -0.6772 -0.3093 0.6676
vn -0.0035 -0.4105 0.9119
vn 0.9768 0.1959 -0.0866
vn 0.0809 -0.8710 0.4845
vn -0.8459 -0.4631 0.2645
vn -0.2692 -0.7772 0.5687
vn 0.9706 0.0462 0.2363
vn 0.7994 -0.5499 0.2420
vn 0.0502 -0.3589 0.9320
vn 0.6750 -0.4560 0.5800
vn 0.5817 0.2236 -0.7820
vn 0.4694 -0.6714 -0.5735
vn 0.8727 -0.3607 0.3291
vn 0.7495 -0.5580 -0.3562
vn -0.5243 0.1253 -0.8423
vn -0.9208 0.0068 -0.3901
vn -0.1045 -0.3075 -0.9458
vn -0.7145 -0.0057 -0.6996
vn -0.4556 0.5580 0.6936
vn -0.2082 -0.4369 -0.8751
vn 0.7314 -0.0455 -0.6804
vn 0.0960 -0.2423 -0.9654
vn -0.9966 -0.0288 0.0768
vn -0.1272 -0.7811 -0.6114
vn 0.7761 -0.2749 -0.5676
vn 0.1718 -0.6210 -0.7647
vn -0.9967 -0.0680 0.0443
vn -0.7200 -0.5720 -0.3930
vn 0.0828 -0.2512 -0.9644
vn -0.5671 -0.4312 -0.7017
vn -0.6810 0.0909 0.7266
vn -0.7020 -0.7114 -0.0344
vn -0.3964 -0.2166 -0.8922
vn -0.7639 -0.5373 -0.3575
vn -0.1967 -0.0681 0.9781
vn -0.5169 -0.6088 0.6018
vn -0.8785 -0.3431 -0.3323
vn -0.7849 -0.4983 0.3684
vn 0.5046 0.1594 0.8485
vn -0.3690 -0.7655 0.5272
vn -0.7673 -0.5062 -0.3937
vn -0.6515 -0.6993 0.2941
vn 0.4386 0.1934 0.8777
vn -0.6305 -0.7363 -0.2457
vn -0.0813 -0.2362 -0.9683
vn -0.5908 -0.5665 -0.5745
vn -0.4985 -0.0690 0.8641
vn -0.4939 -0.7377 -0.4604
vn 0.1895 -0.1489 -0.9705
vn -0.3815 -0.5366 -0.7527
vn -0.7003 -0.1709 0.6931
vn -0.2276 -0.9186 -0.3230
vn 0.5693 -0.3908 -0.7233
vn -0.0190 -0.7955 -0.6056
vn -0.9084 -0.0852 0.4093
vn -0.1384 -0.5008 -0.8544
vn 0.7919 -0.1230 -0.5981
vn 0.1802 -0.3234 -0.9289
vn -0.9997 0.0074 -0.0213
vn 0.0144 -0.7603 -0.6494
vn 0.8598 -0.4987 -0.1101
vn 0.3786 -0.6916 -0.6151
vn -0.8578 0.1905 -0.4774
vn 0.2353 -0.7592 -0.6069
vn 0.8850 -0.4450 0.1368
vn 0.5717 -0.6681 -0.4763
vn -0.7051 0.1365 -0.6959
vn 0.6133 -0.7279 0.3067
vn -0.1589 -0.3874 0.9081
vn 0.4691 -0.6174 0.6315
vn 0.7174 0.1043 -0.6889
vn -0.1512 -0.5315 0.8335
vn -0.9408 -0.2571 0.2210
vn -0.4939 -0.4000 0.7721
vn 0.8941 0.1301 0.4285
vn 0.3423 -0.6556 0.6730
vn -0.6533 -0.3683 0.6615
vn 0.0257 -0.5477 0.8363
vn 0.9807 0.1468 -0.1287
vn 0.6269 -0.7305 -0.2709
vn 0.5240 -0.4519 0.7219
vn 0.7605 -0.6460 0.0660
vn 0.0153 0.1694 -0.9854
# 108 vertex normals

vt 1.0000 0.0000 0.0000
vt 1.0000 1.0000 0.0000
vt 0.0000 1.0000 0.0000
vt 0.0000 0.0000 0.0000
# 4 texture coords

g Bush_002
s off
f 1/1/1 2/2/1 3/3/1 4/4/1 
f 5/1/2 6/2/2 7/3/2 8/4/2 
f 9/1/3 10/2/3 11/3/3 12/4/3 
f 13/1/4 14/2/4 15/3/4 16/4/4 
f 17/1/5 18/2/5 19/3/5 20/4/5 
f 21/1/6 22/2/6 23/3/6 24/4/6 
f 25/1/7 26/2/7 27/3/7 28/4/7 
f 29/1/8 30/2/8 31/3/8 32/4/8 
f 33/1/9 34/2/9 35/3/9 36/4/9 
f 37/1/10 38/2/10 39/3/10 40/4/10 
f 41/1/11 42/2/11 43/3/11 44/4/11 
f 45/1/12 46/2/12 47/3/12 48/4/12 
f 49/1/13 50/2/13 51/3/13 52/4/13 
f 53/1/14 54/2/14 55/3/14 56/4/14 
f 57/1/15 58/2/15 59/3/15 60/4/15 
f 61/1/16 62/2/16 63/3/16 64/4/16 
f 65/1/17 66/2/17 67/3/17 68/4/17 
f 69/1/18 70/2/18 71/3/18 72/4/18 
f 73/1/19 74/2/19 75/3/19 76/4/19 
f 77/1/20 78/2/20 79/3/20 80/4/20 
f 81/1/21 82/2/21 83/3/21 84/4/21 
f 85/1/22 86/2/22 87/3/22 88/4/22 
f 89/1/23 90/2/23 91/3/23 92/4/23 
f 93/1/24 94/2/24 95/3/24 96/4/24 
f 97/1/25 98/2/25 99/3/25 100/4/25 
f 101/1/26 102/2/26 103/3/26 104/4/26 
f 105/1/27 106/2/27 107/3/27 108/4/27 
f 109/1/28 110/2/28 111/3/28 112/4/28 
f 113/1/29 114/2/29 115/3/29 116/4/29 
f 117/1/30 118/2/30 119/3/30 120/4/30 
f 121/1/31 122/2/31 123/3/31 124/4/31 
f 125/1/32 126/2/32 127/3/32 128/4/32 
f 129/1/33 130/2/33 131/3/33 132/4/33 
f 133/1/34 134/2/34 135/3/34 136/4/34 
f 137/1/35 138/2/35 139/3/35 140/4/35 
f 141/1/36 142/2/36 143/3/36 144/4/36 
f 145/1/37 146/2/37 147/3/37 148/4/37 
f 149/1/38 150/2/38 151/3/38 152/4/38 
f 153/1/39 154/2/39 155/3/39 156/4/39 
f 157/1/40 158/2/40 159/3/40 160/4/40 
f 161/1/41 162/2/41 163/3/41 164/4/41 
f 165/1/42 166/2/42 167/3/42 168/4/42 
f 169/1/43 170/2/43 171/3/43 172/4/43 
f 173/1/44 174/2/44 175/3/44 176/4/44 
f 177/1/45 178/2/45 179/3/45 180/4/45 
f 181/1/46 182/2/46 183/3/46 184/4/46 
f 185/1/47 186/2/47 187/3/47 188/4/47 
f 189/1/48 190/2/48 191/3/48 192/4/48 
f 193/1/49 194/2/49 195/3/49 196/4/49 
f 197/1/50 198/2/50 199/3/50 200/4/50 
f 201/1/51 202/2/51 203/3/51 204/4/51 
f 205/1/52 206/2/52 207/3/52 208/4/52 
f 209/1/53 210/2/53 211/3/53 212/4/53 
f 213/1/54 214/2/54 215/3/54 216/4/54 
f 217/1/55 218/2/55 219/3/55 220/4/55 
f 221/1/56 222/2/56 223/3/56 224/4/56 
f 225/1/57 226/2/57 227/3/57 228/4/57 
f 229/1/58 230/2/58 231/3/58 232/4/58 
f 233/1/59 234/2/59 235/3/59 236/4/59 
f 237/1/60 238/2/60 239/3/60 240/4/60 
f 241/1/61 242/2/61 243/3/61 244/4/61 
f 245/1/62 246/2/62 247/3/62 248/4/62 
f 249/1/63 250/2/63 251/3/63 252/4/63 
f 253/1/64 254/2/64 255/3/64 256/4/64 
f 257/1/65 258/2/65 259/3/65 260/4/65 
f 261/1/66 262/2/66 263/3/66 264/4/66 
f 265/1/67 266/2/67 267/3/67 268/4/67 
f 269/1/68 270/2/68 271/3/68 272/4/68 
f 273/1/69 274/2/69 275/3/69 276/4/69 
f 277/1/70 278/2/70 279/3/70 280/4/70 
f 281/1/71 282/2/71 283/3/71 284/4/71 
f 285/1/72 286/2/72 287/3/72 288/4/72 
f 289/1/73 290/2/73 291/3/73 292/4/73 
f 293/1/74 294/2/74 295/3/74 296/4/74 
f 297/1/75 298/2/75 299/3/75 300/4/75 
f 301/1/76 302/2/76 303/3/76 304/4/76 
f 305/1/77 306/2/77 307/3/77 308/4/77 
f 309/1/78 310/2/78 311/3/78 312/4/78 
f 313/1/79 314/2/79 315/3/79 316/4/79 
f 317/1/80 318/2/80 319/3/80 320/4/80 
f 321/1/81 322/2/81 323/3/81 324/4/81 
f 325/1/82 326/2/82 327/3/82 328/4/82 
f 329/1/83 330/2/83 331/3/83 332/4/83 
f 333/1/84 334/2/84 335/3/84 336/4/84 
f 337/1/85 338/2/85 339/3/85 340/4/85 
f 341/1/86 342/2/86 343/3/86 344/4/86 
f 345/1/87 346/2/87 347/3/87 348/4/87 
f 349/1/88 350/2/88 351/3/88 352/4/88 
f 353/1/89 354/2/89 355/3/89 356/4/89 
f 357/1/90 358/2/90 359/3/90 360/4/90 
f 361/1/91 362/2/91 363/3/91 364/4/91 
f 365/1/92 366/2/92 367/3/92 368/4/92 
f 369/1/93 370/2/93 371/3/93 372/4/93 
f 373/1/94 374/2/94 375/3/94 376/4/94 
f 377/1/95 378/2/95 379/3/95 380/4/95 
f 381/1/96 382/2/96 383/3/96 384/4/96 
f 385/1/97 386/2/97 387/3/97 388/4/97 
f 389/1/98 390/2/98 391/3/98 392/4/98 
f 393/1/99 394/2/99 395/3/99 396/4/99 
f 397/1/100 398/2/100 399/3/100 400/4/100 
f 401/1/101 402/2/101 403/3/101 404/4/101 
f 405/1/102 406/2/102 407/3/102 408/4/102 
f 409/1/103 410/2/103 411/3/103 412/4/103 
f 413/1/104 414/2/104 415/3/104 416/4/104 
f 417/1/105 418/2/105 419/3/105 420/4/105 
f 421/1/106 422/2/106 423/3/106 424/4/106 
f 425/1/107 426/2/107 427/3/107 428/4/107 
f 429/1/108 430/2/108 431/3/108 432/4/108 
# 108 polygons

