# 3ds Max Wavefront OBJ Exporter v0.97b - (c)2007 guruware
# File Created: 19.06.2017 18:40:48

#
# object SM_FlowerLavender001
#

v  0.0000 0.9092 -0.0000
v  0.0000 -0.9092 0.0000
v  0.0000 -0.9092 7.4875
v  0.0000 0.9092 7.4875
v  0.0000 -0.9092 14.9751
v  0.0000 0.9092 14.9751
v  0.0000 -0.9092 22.4626
v  0.0000 0.9092 22.4626
v  0.9092 0.0000 0.0000
v  -0.9092 0.0000 0.0000
v  -0.9092 0.0000 7.4875
v  0.9092 0.0000 7.4875
v  -0.9092 0.0000 14.9751
v  0.9092 0.0000 14.9751
v  -0.9092 0.0000 22.4626
v  0.9092 0.0000 22.4626
v  0.0103 0.8219 22.4428
v  0.0103 -0.8154 22.4428
v  0.0103 -0.8154 24.2442
v  0.0103 0.8219 24.2442
v  0.0103 -0.8154 26.0456
v  0.0103 0.8219 26.0456
v  0.8290 0.0033 22.4428
v  -0.8084 0.0033 22.4428
v  -0.8084 0.0033 24.2442
v  0.8290 0.0033 24.2442
v  -0.8084 0.0033 26.0456
v  0.8290 0.0033 26.0456
# 28 vertices

vn -1.0000 0.0000 0.0000
vn 0.0000 1.0000 -0.0000
# 2 vertex normals

vt 0.0377 0.0001 0.0000
vt 0.1051 0.0001 0.0000
vt 0.1051 0.3464 0.0000
vt 0.0377 0.3464 0.0000
vt 0.1051 0.6468 0.0000
vt 0.0377 0.6468 0.0000
vt 0.1051 0.9464 0.0000
vt 0.0377 0.9464 0.0000
vt 0.4932 0.5683 0.0000
vt 0.6541 0.5683 0.0000
vt 0.6541 0.7704 0.0000
vt 0.4932 0.7704 0.0000
vt 0.6541 0.9774 0.0000
vt 0.4932 0.9774 0.0000
# 14 texture coords

g SM_FlowerLavender001
s 1
f 1/1/1 2/2/1 3/3/1 4/4/1 
f 4/4/1 3/3/1 5/5/1 6/6/1 
f 6/6/1 5/5/1 7/7/1 8/8/1 
f 9/1/2 10/2/2 11/3/2 12/4/2 
f 12/4/2 11/3/2 13/5/2 14/6/2 
f 14/6/2 13/5/2 15/7/2 16/8/2 
f 17/9/1 18/10/1 19/11/1 20/12/1 
f 20/12/1 19/11/1 21/13/1 22/14/1 
f 23/9/2 24/10/2 25/11/2 26/12/2 
f 26/12/2 25/11/2 27/13/2 28/14/2 
# 10 polygons

